font.ufo
<glyph name="period" format="2">
	<unicode hex="002E"/>
	<advance width="289"/>
	<outline>
		<contour>
			<point x="145" y="-14" type="curve" smooth="yes"/>
			<point x="193" y="-14"/>
			<point x="230" y="24"/>
			<point x="230" y="71" type="curve" smooth="yes"/>
			<point x="230" y="118"/>
			<point x="193" y="157"/>
			<point x="145" y="157" type="curve" smooth="yes"/>
			<point x="97" y="157"/>
			<point x="59" y="118"/>
			<point x="59" y="71" type="curve" smooth="yes"/>
			<point x="59" y="24"/>
			<point x="97" y="-14"/>
		</contour>
	</outline>
</glyph>
<glyph name="question" format="2">
	<unicode hex="003F"/>
	<advance width="430"/>
	<outline>
		<contour>
			<point x="163" y="-14" type="curve" smooth="yes"/>
			<point x="212" y="-14"/>
			<point x="251" y="24"/>
			<point x="251" y="73" type="curve" smooth="yes"/>
			<point x="251" y="121"/>
			<point x="212" y="160"/>
			<point x="163" y="160" type="curve" smooth="yes"/>
			<point x="114" y="160"/>
			<point x="74" y="121"/>
			<point x="74" y="73" type="curve" smooth="yes"/>
			<point x="74" y="24"/>
			<point x="114" y="-14"/>
		</contour>
		<contour>
			<point x="380" y="444" type="curve" smooth="yes"/>
			<point x="380" y="547"/>
			<point x="251" y="652"/>
			<point x="133" y="675" type="curve"/>
			<point x="87" y="662"/>
			<point x="64" y="640"/>
			<point x="64" y="604" type="curve" smooth="yes"/>
			<point x="64" y="569"/>
			<point x="82" y="546"/>
			<point x="152" y="536" type="curve" smooth="yes"/>
			<point x="327" y="510" type="line"/>
			<point x="264" y="562" type="line"/>
			<point x="292" y="527"/>
			<point x="307" y="501"/>
			<point x="307" y="476" type="curve" smooth="yes"/>
			<point x="307" y="451"/>
			<point x="289" y="439"/>
			<point x="254" y="430" type="curve" smooth="yes"/>
			<point x="182" y="412" type="line" smooth="yes"/>
			<point x="126" y="399"/>
			<point x="103" y="379"/>
			<point x="103" y="343" type="curve" smooth="yes"/>
			<point x="103" y="321"/>
			<point x="109" y="297"/>
			<point x="121" y="261" type="curve" smooth="yes"/>
			<point x="133" y="226" type="line"/>
			<point x="184" y="226" type="line"/>
			<point x="185" y="256" type="line" smooth="yes"/>
			<point x="187" y="283"/>
			<point x="194" y="291"/>
			<point x="229" y="301" type="curve" smooth="yes"/>
			<point x="272" y="314" type="line" smooth="yes"/>
			<point x="347" y="336"/>
			<point x="380" y="373"/>
		</contour>
	</outline>
</glyph>
<glyph name="A" format="2">
	<unicode hex="0041"/>
	<advance width="660"/>
	<outline>
		<contour>
			<point x="10" y="0" type="line"/>
			<point x="212" y="0" type="line"/>
			<point x="212" y="45" type="line"/>
			<point x="121" y="58" type="line"/>
			<point x="103" y="58" type="line"/>
			<point x="10" y="45" type="line"/>
		</contour>
		<contour>
			<point x="66" y="0" type="line"/>
			<point x="118" y="0" type="line"/>
			<point x="284" y="521" type="line"/>
			<point x="289" y="535" type="line"/>
			<point x="271" y="535" type="line"/>
			<point x="438" y="0" type="line"/>
			<point x="603" y="0" type="line"/>
			<point x="383" y="659" type="line"/>
			<point x="287" y="659" type="line"/>
		</contour>
		<contour>
			<point x="165" y="198" type="line"/>
			<point x="454" y="198" type="line"/>
			<point x="454" y="248" type="line"/>
			<point x="165" y="248" type="line"/>
		</contour>
		<contour>
			<point x="345" y="0" type="line"/>
			<point x="647" y="0" type="line"/>
			<point x="647" y="43" type="line"/>
			<point x="531" y="58" type="line"/>
			<point x="458" y="58" type="line"/>
			<point x="345" y="43" type="line"/>
		</contour>
	</outline>
	<anchor name="aboveUC" x="333" y="677"/>
	<anchor name="belowLC" x="285" y="-20"/>
	<anchor name="ogonek" x="519" y="0"/>
</glyph>
<glyph name="C" format="2">
	<unicode hex="0043"/>
	<advance width="606"/>
	<outline>
		<contour>
			<point x="371" y="-18" type="curve" smooth="yes"/>
			<point x="450" y="-18"/>
			<point x="517" y="1"/>
			<point x="569" y="30" type="curve"/>
			<point x="575" y="188" type="line"/>
			<point x="514" y="188" type="line"/>
			<point x="467" y="24" type="line"/>
			<point x="532" y="40" type="line"/>
			<point x="533" y="84" type="line"/>
			<point x="488" y="48"/>
			<point x="439" y="31"/>
			<point x="392" y="31" type="curve" smooth="yes"/>
			<point x="290" y="31"/>
			<point x="203" y="118"/>
			<point x="203" y="328" type="curve" smooth="yes"/>
			<point x="203" y="537"/>
			<point x="293" y="627"/>
			<point x="396" y="627" type="curve" smooth="yes"/>
			<point x="439" y="627"/>
			<point x="481" y="612"/>
			<point x="527" y="572" type="curve"/>
			<point x="526" y="617" type="line"/>
			<point x="461" y="634" type="line"/>
			<point x="508" y="472" type="line"/>
			<point x="569" y="472" type="line"/>
			<point x="563" y="628" type="line"/>
			<point x="507" y="660"/>
			<point x="447" y="675"/>
			<point x="376" y="675" type="curve" smooth="yes"/>
			<point x="198" y="675"/>
			<point x="34" y="566"/>
			<point x="34" y="322" type="curve" smooth="yes"/>
			<point x="34" y="93"/>
			<point x="187" y="-18"/>
		</contour>
	</outline>
	<anchor name="aboveUC" x="357" y="677"/>
	<anchor name="belowLC" x="368" y="-20"/>
	<anchor name="baseLC" x="370" y="0"/>
</glyph>
<glyph name="E" format="2">
	<unicode hex="0045"/>
	<advance width="577"/>
	<outline>
		<contour>
			<point x="31" y="0" type="line"/>
			<point x="196" y="0" type="line"/>
			<point x="196" y="60" type="line"/>
			<point x="165" y="60" type="line"/>
			<point x="31" y="45" type="line"/>
		</contour>
		<contour>
			<point x="103" y="0" type="curve"/>
			<point x="270" y="0" type="line"/>
			<point x="267" y="96"/>
			<point x="266" y="207"/>
			<point x="266" y="313" type="curve" smooth="yes"/>
			<point x="266" y="349" type="line" smooth="yes"/>
			<point x="266" y="453"/>
			<point x="267" y="563"/>
			<point x="270" y="657" type="curve"/>
			<point x="103" y="657" type="line"/>
			<point x="106" y="561"/>
			<point x="106" y="451"/>
			<point x="106" y="349" type="curve" smooth="yes"/>
			<point x="106" y="310" type="line" smooth="yes"/>
			<point x="106" y="205"/>
			<point x="106" y="95"/>
		</contour>
		<contour>
			<point x="187" y="0" type="line"/>
			<point x="543" y="0" type="line"/>
			<point x="551" y="177" type="line"/>
			<point x="486" y="177" type="line"/>
			<point x="446" y="22" type="line"/>
			<point x="481" y="48" type="line"/>
			<point x="187" y="48" type="line"/>
		</contour>
		<contour>
			<point x="187" y="313" type="line"/>
			<point x="396" y="313" type="line"/>
			<point x="396" y="363" type="line"/>
			<point x="187" y="363" type="line"/>
		</contour>
		<contour>
			<point x="391" y="229" type="line"/>
			<point x="438" y="229" type="line"/>
			<point x="438" y="447" type="line"/>
			<point x="391" y="447" type="line"/>
			<point x="370" y="349" type="line"/>
			<point x="370" y="331" type="line"/>
		</contour>
		<contour>
			<point x="31" y="612" type="line"/>
			<point x="165" y="598" type="line"/>
			<point x="196" y="598" type="line"/>
			<point x="196" y="657" type="line"/>
			<point x="31" y="657" type="line"/>
		</contour>
		<contour>
			<point x="467" y="484" type="line"/>
			<point x="533" y="484" type="line"/>
			<point x="524" y="657" type="line"/>
			<point x="182" y="657" type="line"/>
			<point x="182" y="609" type="line"/>
			<point x="463" y="609" type="line"/>
			<point x="427" y="635" type="line"/>
		</contour>
	</outline>
	<anchor name="aboveUC" x="319" y="677"/>
	<anchor name="belowLC" x="315" y="-20"/>
	<anchor name="ogonek" x="440" y="0"/>
</glyph>
<glyph name="G" format="2">
	<unicode hex="0047"/>
	<advance width="657"/>
	<outline>
		<contour>
			<point x="370" y="-18" type="curve" smooth="yes"/>
			<point x="453" y="-18"/>
			<point x="522" y="0"/>
			<point x="587" y="38" type="curve"/>
			<point x="587" y="81" type="line" smooth="yes"/>
			<point x="587" y="164"/>
			<point x="588" y="244"/>
			<point x="591" y="324" type="curve"/>
			<point x="433" y="324" type="line"/>
			<point x="436" y="243"/>
			<point x="437" y="165"/>
			<point x="437" y="84" type="curve" smooth="yes"/>
			<point x="437" y="7" type="line"/>
			<point x="498" y="60" type="line"/>
			<point x="460" y="40"/>
			<point x="432" y="30"/>
			<point x="395" y="30" type="curve" smooth="yes"/>
			<point x="289" y="30"/>
			<point x="203" y="123"/>
			<point x="203" y="329" type="curve" smooth="yes"/>
			<point x="203" y="535"/>
			<point x="293" y="627"/>
			<point x="399" y="627" type="curve" smooth="yes"/>
			<point x="442" y="627"/>
			<point x="484" y="613"/>
			<point x="531" y="576" type="curve"/>
			<point x="530" y="623" type="line"/>
			<point x="464" y="637" type="line"/>
			<point x="512" y="474" type="line"/>
			<point x="574" y="474" type="line"/>
			<point x="568" y="630" type="line"/>
			<point x="513" y="661"/>
			<point x="444" y="675"/>
			<point x="381" y="675" type="curve" smooth="yes"/>
			<point x="173" y="675"/>
			<point x="34" y="548"/>
			<point x="34" y="325" type="curve" smooth="yes"/>
			<point x="34" y="100"/>
			<point x="176" y="-18"/>
		</contour>
		<contour>
			<point x="352" y="280" type="line"/>
			<point x="470" y="264" type="line"/>
			<point x="528" y="264" type="line"/>
			<point x="639" y="280" type="line"/>
			<point x="639" y="324" type="line"/>
			<point x="352" y="324" type="line"/>
		</contour>
	</outline>
	<anchor name="aboveUC" x="377" y="677"/>
	<anchor name="belowLC" x="383" y="-20"/>
</glyph>
<glyph name="J" format="2">
	<unicode hex="004A"/>
	<advance width="381"/>
	<outline>
		<contour>
			<point x="59" y="-146" type="curve" smooth="yes"/>
			<point x="112" y="-146"/>
			<point x="166" y="-127"/>
			<point x="214" y="-68" type="curve" smooth="yes"/>
			<point x="262" y="-9"/>
			<point x="278" y="52"/>
			<point x="278" y="198" type="curve" smooth="yes"/>
			<point x="278" y="356" type="line" smooth="yes"/>
			<point x="278" y="458"/>
			<point x="278" y="559"/>
			<point x="281" y="657" type="curve"/>
			<point x="120" y="657" type="line"/>
			<point x="124" y="343"/>
			<point x="125" y="254"/>
			<point x="125" y="168" type="curve" smooth="yes"/>
			<point x="125" y="61"/>
			<point x="129" y="-21"/>
			<point x="123" y="-100" type="curve"/>
			<point x="123" y="-108" type="line"/>
			<point x="138" y="-108" type="line"/>
			<point x="138" y="-93" type="line"/>
			<point x="94" y="-59" type="line" smooth="yes"/>
			<point x="59" y="-32"/>
			<point x="44" y="-24"/>
			<point x="13" y="-24" type="curve" smooth="yes"/>
			<point x="-21" y="-24"/>
			<point x="-46" y="-39"/>
			<point x="-54" y="-81" type="curve"/>
			<point x="-47" y="-128"/>
			<point x="-6" y="-146"/>
		</contour>
		<contour>
			<point x="32" y="612" type="line"/>
			<point x="169" y="598" type="line"/>
			<point x="217" y="598" type="line"/>
			<point x="353" y="612" type="line"/>
			<point x="353" y="657" type="line"/>
			<point x="32" y="657" type="line"/>
		</contour>
	</outline>
	<anchor name="aboveUC" x="194" y="677"/>
	<anchor name="belowLC" x="120" y="-156"/>
</glyph>
<glyph name="N" format="2">
	<unicode hex="004E"/>
	<advance width="701"/>
	<outline>
		<contour>
			<point x="28" y="0" type="line"/>
			<point x="269" y="0" type="line"/>
			<point x="269" y="45" type="line"/>
			<point x="153" y="58" type="line"/>
			<point x="126" y="58" type="line"/>
			<point x="28" y="45" type="line"/>
		</contour>
		<contour>
			<point x="109" y="0" type="line"/>
			<point x="164" y="0" type="line"/>
			<point x="164" y="329" type="line"/>
			<point x="164" y="633" type="line"/>
			<point x="109" y="633" type="line"/>
		</contour>
		<contour>
			<point x="432" y="612" type="line"/>
			<point x="554" y="599" type="line"/>
			<point x="580" y="599" type="line"/>
			<point x="673" y="612" type="line"/>
			<point x="673" y="657" type="line"/>
			<point x="432" y="657" type="line"/>
		</contour>
		<contour>
			<point x="516" y="-2" type="line"/>
			<point x="593" y="-2" type="line"/>
			<point x="593" y="657" type="line"/>
			<point x="538" y="657" type="line"/>
			<point x="538" y="359" type="line"/>
			<point x="538" y="211" type="line"/>
			<point x="556" y="215" type="line"/>
			<point x="253" y="657" type="line"/>
			<point x="29" y="657" type="line"/>
			<point x="29" y="612" type="line"/>
			<point x="100" y="606" type="line"/>
			<point x="152" y="528" type="line"/>
			<point x="155" y="528" type="line"/>
		</contour>
	</outline>
	<anchor name="aboveUC" x="353" y="677"/>
	<anchor name="belowLC" x="360" y="-20"/>
</glyph>
<glyph name="Q" format="2">
	<unicode hex="0051"/>
	<advance width="686"/>
	<outline>
		<contour>
			<point x="483" y="-205" type="curve" smooth="yes"/>
			<point x="534" y="-205"/>
			<point x="585" y="-194"/>
			<point x="617" y="-168" type="curve"/>
			<point x="599" y="-124" type="line"/>
			<point x="575" y="-134"/>
			<point x="548" y="-136"/>
			<point x="528" y="-136" type="curve" smooth="yes"/>
			<point x="452" y="-136"/>
			<point x="403" y="-78"/>
			<point x="416" y="21" type="curve"/>
			<point x="265" y="22" type="line"/>
			<point x="265" y="5" type="line" smooth="yes"/>
			<point x="265" y="-119"/>
			<point x="342" y="-205"/>
		</contour>
		<component base="O"/>
	</outline>
	<anchor name="aboveUC" x="343" y="677"/>
</glyph>
<glyph name="S" format="2">
	<unicode hex="0053"/>
	<advance width="528"/>
	<outline>
		<contour>
			<point x="242" y="-18" type="curve" smooth="yes"/>
			<point x="411" y="-18"/>
			<point x="495" y="66"/>
			<point x="495" y="183" type="curve" smooth="yes"/>
			<point x="495" y="287"/>
			<point x="436" y="339"/>
			<point x="323" y="392" type="curve" smooth="yes"/>
			<point x="281" y="412" type="line" smooth="yes"/>
			<point x="220" y="440"/>
			<point x="182" y="470"/>
			<point x="182" y="527" type="curve" smooth="yes"/>
			<point x="182" y="587"/>
			<point x="230" y="625"/>
			<point x="290" y="625" type="curve" smooth="yes"/>
			<point x="339" y="625"/>
			<point x="375" y="607"/>
			<point x="425" y="569" type="curve"/>
			<point x="424" y="613" type="line"/>
			<point x="352" y="639" type="line"/>
			<point x="387" y="482" type="line"/>
			<point x="459" y="482" type="line"/>
			<point x="466" y="625" type="line"/>
			<point x="421" y="656"/>
			<point x="356" y="675"/>
			<point x="287" y="675" type="curve" smooth="yes"/>
			<point x="138" y="675"/>
			<point x="46" y="600"/>
			<point x="46" y="483" type="curve" smooth="yes"/>
			<point x="46" y="373"/>
			<point x="116" y="316"/>
			<point x="221" y="267" type="curve" smooth="yes"/>
			<point x="260" y="248" type="line" smooth="yes"/>
			<point x="321" y="220"/>
			<point x="355" y="193"/>
			<point x="355" y="136" type="curve" smooth="yes"/>
			<point x="355" y="74"/>
			<point x="311" y="32"/>
			<point x="240" y="32" type="curve" smooth="yes"/>
			<point x="180" y="32"/>
			<point x="140" y="48"/>
			<point x="81" y="82" type="curve"/>
			<point x="81" y="44" type="line"/>
			<point x="150" y="18" type="line"/>
			<point x="115" y="185" type="line"/>
			<point x="42" y="185" type="line"/>
			<point x="35" y="34" type="line"/>
			<point x="91" y="0"/>
			<point x="169" y="-18"/>
		</contour>
	</outline>
	<anchor name="aboveUC" x="283" y="677"/>
	<anchor name="baseLC" x="245" y="0"/>
	<anchor name="belowLC" x="247" y="-20"/>
</glyph>
<glyph name="V" format="2">
	<unicode hex="0056"/>
	<advance width="648"/>
	<outline>
		<contour>
			<point x="278" y="-2" type="line"/>
			<point x="369" y="-2" type="line"/>
			<point x="592" y="657" type="line"/>
			<point x="536" y="657" type="line"/>
			<point x="373" y="159" type="line"/>
			<point x="368" y="147" type="line"/>
			<point x="385" y="147" type="line"/>
			<point x="222" y="657" type="line"/>
			<point x="50" y="657" type="line"/>
		</contour>
		<contour>
			<point x="9" y="612" type="line"/>
			<point x="137" y="598" type="line"/>
			<point x="187" y="598" type="line"/>
			<point x="321" y="614" type="line"/>
			<point x="321" y="657" type="line"/>
			<point x="9" y="657" type="line"/>
		</contour>
		<contour>
			<point x="439" y="614" type="line"/>
			<point x="539" y="599" type="line"/>
			<point x="555" y="599" type="line"/>
			<point x="643" y="612" type="line"/>
			<point x="643" y="657" type="line"/>
			<point x="439" y="657" type="line"/>
		</contour>
	</outline>
	<anchor name="aboveUC" x="375" y="677"/>
	<anchor name="belowLC" x="328" y="-20"/>
</glyph>
<glyph name="W" format="2">
	<unicode hex="0057"/>
	<advance width="958"/>
	<outline>
		<contour>
			<point x="243" y="-2" type="line"/>
			<point x="336" y="-2" type="line"/>
			<point x="479" y="484" type="line"/>
			<point x="483" y="499" type="line"/>
			<point x="464" y="499" type="line"/>
			<point x="612" y="-2" type="line"/>
			<point x="705" y="-2" type="line"/>
			<point x="895" y="657" type="line"/>
			<point x="840" y="657" type="line"/>
			<point x="705" y="168" type="line"/>
			<point x="701" y="151" type="line"/>
			<point x="718" y="151" type="line"/>
			<point x="578" y="657" type="line"/>
			<point x="477" y="657" type="line"/>
			<point x="337" y="173" type="line"/>
			<point x="332" y="157" type="line"/>
			<point x="349" y="157" type="line"/>
			<point x="223" y="657" type="line"/>
			<point x="54" y="657" type="line"/>
		</contour>
		<contour>
			<point x="9" y="612" type="line"/>
			<point x="136" y="598" type="line"/>
			<point x="181" y="598" type="line"/>
			<point x="311" y="612" type="line"/>
			<point x="311" y="657" type="line"/>
			<point x="9" y="657" type="line"/>
		</contour>
		<contour>
			<point x="388" y="612" type="line"/>
			<point x="499" y="598" type="line"/>
			<point x="558" y="598" type="line"/>
			<point x="677" y="612" type="line"/>
			<point x="677" y="657" type="line"/>
			<point x="388" y="657" type="line"/>
		</contour>
		<contour>
			<point x="752" y="612" type="line"/>
			<point x="842" y="599" type="line"/>
			<point x="866" y="599" type="line"/>
			<point x="952" y="612" type="line"/>
			<point x="952" y="657" type="line"/>
			<point x="752" y="657" type="line"/>
		</contour>
	</outline>
	<anchor name="aboveUC" x="522" y="677"/>
	<anchor name="belowLC" x="477" y="-20"/>
</glyph>
<glyph name="X" format="2">
	<unicode hex="0058"/>
	<advance width="644"/>
	<outline>
		<contour>
			<point x="9" y="0" type="line"/>
			<point x="213" y="0" type="line"/>
			<point x="213" y="45" type="line"/>
			<point x="122" y="54" type="line"/>
			<point x="96" y="54" type="line"/>
			<point x="9" y="45" type="line"/>
		</contour>
		<contour>
			<point x="49" y="0" type="line"/>
			<point x="114" y="0" type="line"/>
			<point x="296" y="293" type="line"/>
			<point x="318" y="327" type="line"/>
			<point x="330" y="327" type="line"/>
			<point x="279" y="350" type="line"/>
		</contour>
		<contour>
			<point x="318" y="0" type="line"/>
			<point x="636" y="0" type="line"/>
			<point x="636" y="45" type="line"/>
			<point x="506" y="60" type="line"/>
			<point x="450" y="60" type="line"/>
			<point x="318" y="45" type="line"/>
		</contour>
		<contour>
			<point x="363" y="339" type="line"/>
			<point x="564" y="657" type="line"/>
			<point x="500" y="657" type="line"/>
			<point x="345" y="398" type="line"/>
			<point x="325" y="364" type="line"/>
			<point x="314" y="364" type="line"/>
		</contour>
		<contour>
			<point x="422" y="0" type="line"/>
			<point x="598" y="0" type="line"/>
			<point x="225" y="657" type="line"/>
			<point x="49" y="657" type="line"/>
		</contour>
		<contour>
			<point x="14" y="612" type="line"/>
			<point x="130" y="598" type="line"/>
			<point x="190" y="598" type="line"/>
			<point x="319" y="612" type="line"/>
			<point x="319" y="657" type="line"/>
			<point x="14" y="657" type="line"/>
		</contour>
		<contour>
			<point x="403" y="612" type="line"/>
			<point x="492" y="604" type="line"/>
			<point x="518" y="604" type="line"/>
			<point x="605" y="612" type="line"/>
			<point x="605" y="657" type="line"/>
			<point x="403" y="657" type="line"/>
		</contour>
	</outline>
	<anchor name="aboveUC" x="357" y="677"/>
	<anchor name="belowLC" x="279" y="-20"/>
</glyph>
<glyph name="Y" format="2">
	<unicode hex="0059"/>
	<advance width="616"/>
	<outline>
		<contour>
			<point x="146" y="0" type="line"/>
			<point x="474" y="0" type="line"/>
			<point x="474" y="45" type="line"/>
			<point x="335" y="60" type="line"/>
			<point x="282" y="60" type="line"/>
			<point x="146" y="45" type="line"/>
		</contour>
		<contour>
			<point x="226" y="0" type="curve"/>
			<point x="393" y="0" type="line"/>
			<point x="390" y="95"/>
			<point x="389" y="164"/>
			<point x="389" y="306" type="curve"/>
			<point x="230" y="306" type="line"/>
			<point x="230" y="163"/>
			<point x="229" y="93"/>
		</contour>
		<contour>
			<point x="254" y="209" type="line"/>
			<point x="354" y="209" type="line"/>
			<point x="568" y="657" type="line"/>
			<point x="509" y="657" type="line"/>
			<point x="358" y="319" type="line"/>
			<point x="351" y="305" type="line"/>
			<point x="378" y="305" type="line"/>
			<point x="222" y="657" type="line"/>
			<point x="40" y="657" type="line"/>
		</contour>
		<contour>
			<point x="9" y="612" type="line"/>
			<point x="144" y="598" type="line"/>
			<point x="198" y="598" type="line"/>
			<point x="320" y="612" type="line"/>
			<point x="320" y="657" type="line"/>
			<point x="9" y="657" type="line"/>
		</contour>
		<contour>
			<point x="414" y="612" type="line"/>
			<point x="503" y="599" type="line"/>
			<point x="525" y="599" type="line"/>
			<point x="610" y="612" type="line"/>
			<point x="610" y="657" type="line"/>
			<point x="414" y="657" type="line"/>
		</contour>
	</outline>
	<anchor name="aboveUC" x="366" y="677"/>
	<anchor name="belowLC" x="308" y="-20"/>
</glyph>
<glyph name="Z" format="2">
	<unicode hex="005A"/>
	<advance width="551"/>
	<outline>
		<contour>
			<point x="21" y="0" type="line"/>
			<point x="521" y="0" type="line"/>
			<point x="530" y="186" type="line"/>
			<point x="466" y="186" type="line"/>
			<point x="422" y="24" type="line"/>
			<point x="458" y="49" type="line"/>
			<point x="175" y="49" type="line"/>
			<point x="191" y="27" type="line"/>
			<point x="519" y="619" type="line"/>
			<point x="519" y="657" type="line"/>
			<point x="40" y="657" type="line"/>
			<point x="31" y="473" type="line"/>
			<point x="94" y="473" type="line"/>
			<point x="138" y="634" type="line"/>
			<point x="102" y="609" type="line"/>
			<point x="366" y="609" type="line"/>
			<point x="350" y="630" type="line"/>
			<point x="21" y="38" type="line"/>
		</contour>
	</outline>
	<anchor name="aboveUC" x="277" y="677"/>
	<anchor name="belowLC" x="284" y="-20"/>
</glyph>
<glyph name="backslash" format="2">
	<unicode hex="005C"/>
	<advance width="372"/>
	<outline>
		<contour>
			<point x="363" y="-160" type="line"/>
			<point x="97" y="709" type="line"/>
			<point x="8" y="709" type="line"/>
			<point x="274" y="-160" type="line"/>
		</contour>
	</outline>
</glyph>
<glyph name="a" format="2">
	<unicode hex="0061"/>
	<advance width="518"/>
	<outline>
		<contour>
			<point x="158" y="-15" type="curve" smooth="yes"/>
			<point x="226" y="-15"/>
			<point x="260" y="13"/>
			<point x="306" y="66" type="curve"/>
			<point x="345" y="66" type="line"/>
			<point x="335" y="114" type="line"/>
			<point x="285" y="74"/>
			<point x="263" y="62"/>
			<point x="233" y="62" type="curve" smooth="yes"/>
			<point x="198" y="62"/>
			<point x="172" y="85"/>
			<point x="172" y="133" type="curve" smooth="yes"/>
			<point x="172" y="185"/>
			<point x="197" y="222"/>
			<point x="255" y="242" type="curve" smooth="yes"/>
			<point x="285" y="252"/>
			<point x="329" y="266"/>
			<point x="375" y="280" type="curve"/>
			<point x="375" y="315" type="line"/>
			<point x="322" y="301"/>
			<point x="267" y="286"/>
			<point x="219" y="273" type="curve" smooth="yes"/>
			<point x="70" y="232"/>
			<point x="30" y="179"/>
			<point x="30" y="109" type="curve" smooth="yes"/>
			<point x="30" y="30"/>
			<point x="83" y="-15"/>
		</contour>
		<contour>
			<point x="405" y="-14" type="curve" smooth="yes"/>
			<point x="463" y="-14"/>
			<point x="498" y="8"/>
			<point x="520" y="59" type="curve"/>
			<point x="497" y="75" type="line"/>
			<point x="485" y="58"/>
			<point x="477" y="53"/>
			<point x="465" y="53" type="curve" smooth="yes"/>
			<point x="451" y="53"/>
			<point x="443" y="62"/>
			<point x="443" y="82" type="curve" smooth="yes"/>
			<point x="443" y="306" type="line" smooth="yes"/>
			<point x="443" y="437"/>
			<point x="393" y="491"/>
			<point x="268" y="491" type="curve" smooth="yes"/>
			<point x="131" y="491"/>
			<point x="52" y="436"/>
			<point x="46" y="356" type="curve"/>
			<point x="54" y="324"/>
			<point x="76" y="307"/>
			<point x="111" y="307" type="curve" smooth="yes"/>
			<point x="147" y="307"/>
			<point x="180" y="332"/>
			<point x="182" y="397" type="curve" smooth="yes"/>
			<point x="190" y="467" type="line"/>
			<point x="132" y="432" type="line"/>
			<point x="168" y="442"/>
			<point x="191" y="446"/>
			<point x="215" y="446" type="curve" smooth="yes"/>
			<point x="277" y="446"/>
			<point x="294" y="419"/>
			<point x="294" y="328" type="curve" smooth="yes"/>
			<point x="294" y="80" type="line"/>
			<point x="294" y="76" type="line"/>
			<point x="302" y="20"/>
			<point x="338" y="-14"/>
		</contour>
	</outline>
	<anchor name="aboveLC" x="253" y="496"/>
	<anchor name="belowLC" x="255" y="-20"/>
	<anchor name="ogonek" x="446" y="0"/>
</glyph>
<glyph name="c" format="2">
	<unicode hex="0063"/>
	<advance width="496"/>
	<outline>
		<contour>
			<point x="274" y="-15" type="curve" smooth="yes"/>
			<point x="368" y="-15"/>
			<point x="432" y="24"/>
			<point x="471" y="102" type="curve"/>
			<point x="442" y="126" type="line"/>
			<point x="411" y="90"/>
			<point x="373" y="74"/>
			<point x="329" y="74" type="curve" smooth="yes"/>
			<point x="247" y="74"/>
			<point x="189" y="137"/>
			<point x="189" y="258" type="curve" smooth="yes"/>
			<point x="189" y="391"/>
			<point x="249" y="447"/>
			<point x="306" y="447" type="curve" smooth="yes"/>
			<point x="336" y="447"/>
			<point x="361" y="440"/>
			<point x="390" y="426" type="curve"/>
			<point x="322" y="464" type="line"/>
			<point x="330" y="392" type="line" smooth="yes"/>
			<point x="335" y="324"/>
			<point x="367" y="301"/>
			<point x="404" y="301" type="curve" smooth="yes"/>
			<point x="438" y="301"/>
			<point x="458" y="317"/>
			<point x="468" y="352" type="curve"/>
			<point x="462" y="428"/>
			<point x="389" y="491"/>
			<point x="285" y="491" type="curve" smooth="yes"/>
			<point x="137" y="491"/>
			<point x="29" y="400"/>
			<point x="29" y="234" type="curve" smooth="yes"/>
			<point x="29" y="77"/>
			<point x="129" y="-15"/>
		</contour>
	</outline>
	<anchor name="aboveLC" x="283" y="496"/>
	<anchor name="baseLC" x="275" y="0"/>
	<anchor name="belowLC" x="274" y="-20"/>
</glyph>
<glyph name="d" format="2">
	<unicode hex="0064"/>
	<advance width="580"/>
	<outline>
		<contour>
			<point x="222" y="-15" type="curve" smooth="yes"/>
			<point x="293" y="-15"/>
			<point x="345" y="20"/>
			<point x="386" y="88" type="curve"/>
			<point x="409" y="88" type="line"/>
			<point x="398" y="144" type="line"/>
			<point x="368" y="99"/>
			<point x="337" y="66"/>
			<point x="292" y="66" type="curve" smooth="yes"/>
			<point x="233" y="66"/>
			<point x="191" y="120"/>
			<point x="191" y="235" type="curve" smooth="yes"/>
			<point x="191" y="357"/>
			<point x="236" y="411"/>
			<point x="294" y="411" type="curve" smooth="yes"/>
			<point x="334" y="411"/>
			<point x="360" y="390"/>
			<point x="397" y="345" type="curve"/>
			<point x="408" y="399" type="line"/>
			<point x="385" y="399" type="line"/>
			<point x="349" y="461"/>
			<point x="307" y="491"/>
			<point x="242" y="491" type="curve" smooth="yes"/>
			<point x="130" y="491"/>
			<point x="30" y="393"/>
			<point x="30" y="231" type="curve" smooth="yes"/>
			<point x="30" y="72"/>
			<point x="112" y="-15"/>
		</contour>
		<contour>
			<point x="366" y="-12" type="line"/>
			<point x="558" y="0" type="line"/>
			<point x="558" y="40" type="line"/>
			<point x="508" y="49" type="line"/>
			<point x="508" y="559" type="line"/>
			<point x="512" y="717" type="line"/>
			<point x="497" y="728" type="line"/>
			<point x="294" y="682" type="line"/>
			<point x="294" y="646" type="line"/>
			<point x="361" y="635" type="line"/>
			<point x="361" y="412" type="line"/>
			<point x="357" y="401" type="line"/>
			<point x="357" y="81" type="line"/>
			<point x="357" y="77" type="line"/>
		</contour>
	</outline>
	<anchor name="aboveLC" x="422" y="728"/>
	<anchor name="belowLC" x="299" y="-20"/>
</glyph>
<glyph name="h" format="2">
	<unicode hex="0068"/>
	<advance width="603"/>
	<outline>
		<contour>
			<point x="27" y="0" type="line"/>
			<point x="283" y="0" type="line"/>
			<point x="283" y="40" type="line"/>
			<point x="193" y="58" type="line"/>
			<point x="117" y="58" type="line"/>
			<point x="27" y="40" type="line"/>
		</contour>
		<contour>
			<point x="79" y="0" type="curve"/>
			<point x="238" y="0" type="line"/>
			<point x="235" y="47"/>
			<point x="234" y="146"/>
			<point x="234" y="210" type="curve" smooth="yes"/>
			<point x="234" y="367" type="line"/>
			<point x="232" y="377" type="line"/>
			<point x="232" y="559" type="line"/>
			<point x="236" y="717" type="line"/>
			<point x="221" y="728" type="line"/>
			<point x="21" y="682" type="line"/>
			<point x="21" y="646" type="line"/>
			<point x="83" y="635" type="line"/>
			<point x="83" y="210" type="line" smooth="yes"/>
			<point x="83" y="146"/>
			<point x="82" y="47"/>
		</contour>
		<contour>
			<point x="326" y="0" type="line"/>
			<point x="582" y="0" type="line"/>
			<point x="582" y="40" type="line"/>
			<point x="489" y="58" type="line"/>
			<point x="414" y="58" type="line"/>
			<point x="326" y="40" type="line"/>
		</contour>
		<contour>
			<point x="375" y="0" type="curve"/>
			<point x="535" y="0" type="line"/>
			<point x="532" y="47"/>
			<point x="531" y="145"/>
			<point x="531" y="210" type="curve" smooth="yes"/>
			<point x="531" y="324" type="line" smooth="yes"/>
			<point x="531" y="437"/>
			<point x="475" y="491"/>
			<point x="391" y="491" type="curve" smooth="yes"/>
			<point x="323" y="491"/>
			<point x="269" y="460"/>
			<point x="211" y="379" type="curve"/>
			<point x="196" y="379" type="line"/>
			<point x="204" y="324" type="line"/>
			<point x="244" y="371"/>
			<point x="287" y="400"/>
			<point x="324" y="400" type="curve" smooth="yes"/>
			<point x="364" y="400"/>
			<point x="379" y="379"/>
			<point x="379" y="315" type="curve" smooth="yes"/>
			<point x="379" y="210" type="line" smooth="yes"/>
			<point x="379" y="145"/>
			<point x="378" y="47"/>
		</contour>
	</outline>
	<anchor name="aboveLC" x="154" y="728"/>
	<anchor name="belowLC" x="304" y="-20"/>
</glyph>
<glyph name="i" format="2">
	<unicode hex="0069"/>
	<advance width="308"/>
	<outline>
		<contour>
			<point x="28" y="0" type="line"/>
			<point x="287" y="0" type="line"/>
			<point x="287" y="40" type="line"/>
			<point x="194" y="58" type="line"/>
			<point x="119" y="58" type="line"/>
			<point x="28" y="40" type="line"/>
		</contour>
		<contour>
			<point x="80" y="0" type="curve"/>
			<point x="239" y="0" type="line"/>
			<point x="236" y="47"/>
			<point x="235" y="146"/>
			<point x="235" y="210" type="curve" smooth="yes"/>
			<point x="235" y="339" type="line"/>
			<point x="239" y="481" type="line"/>
			<point x="222" y="491" type="line"/>
			<point x="20" y="429" type="line"/>
			<point x="20" y="395" type="line"/>
			<point x="81" y="384" type="line"/>
			<point x="83" y="343"/>
			<point x="83" y="310"/>
			<point x="83" y="253" type="curve" smooth="yes"/>
			<point x="83" y="210" type="line" smooth="yes"/>
			<point x="83" y="146"/>
			<point x="83" y="47"/>
		</contour>
		<contour>
			<point x="157" y="564" type="curve" smooth="yes"/>
			<point x="201" y="564"/>
			<point x="237" y="595"/>
			<point x="237" y="640" type="curve" smooth="yes"/>
			<point x="237" y="685"/>
			<point x="201" y="717"/>
			<point x="157" y="717" type="curve" smooth="yes"/>
			<point x="112" y="717"/>
			<point x="76" y="685"/>
			<point x="76" y="640" type="curve" smooth="yes"/>
			<point x="76" y="595"/>
			<point x="112" y="564"/>
		</contour>
	</outline>
	<anchor name="aboveLC" x="157" y="717"/>
	<anchor name="belowLC" x="160" y="-20"/>
	<anchor name="ogonek" x="212" y="0"/>
</glyph>
<glyph name="j" format="2">
	<unicode hex="006A"/>
	<advance width="300"/>
	<outline>
		<contour>
			<point x="17" y="-240" type="curve" smooth="yes"/>
			<point x="65" y="-240"/>
			<point x="121" y="-225"/>
			<point x="170" y="-176" type="curve" smooth="yes"/>
			<point x="216" y="-129"/>
			<point x="232" y="-76"/>
			<point x="232" y="39" type="curve" smooth="yes"/>
			<point x="232" y="339" type="line"/>
			<point x="236" y="481" type="line"/>
			<point x="220" y="491" type="line"/>
			<point x="18" y="429" type="line"/>
			<point x="18" y="395" type="line"/>
			<point x="79" y="384" type="line"/>
			<point x="80" y="343"/>
			<point x="81" y="311"/>
			<point x="81" y="253" type="curve" smooth="yes"/>
			<point x="81" y="93" type="line" smooth="yes"/>
			<point x="81" y="-12"/>
			<point x="90" y="-101"/>
			<point x="80" y="-155" type="curve" smooth="yes"/>
			<point x="76" y="-177"/>
			<point x="71" y="-187"/>
			<point x="62" y="-200" type="curve"/>
			<point x="62" y="-219" type="line"/>
			<point x="86" y="-219" type="line"/>
			<point x="86" y="-214" type="line"/>
			<point x="57" y="-162" type="line" smooth="yes"/>
			<point x="36" y="-122"/>
			<point x="14" y="-106"/>
			<point x="-19" y="-106" type="curve" smooth="yes"/>
			<point x="-59" y="-106"/>
			<point x="-85" y="-128"/>
			<point x="-93" y="-170" type="curve"/>
			<point x="-81" y="-215"/>
			<point x="-45" y="-240"/>
		</contour>
		<contour>
			<point x="153" y="564" type="curve" smooth="yes"/>
			<point x="198" y="564"/>
			<point x="234" y="595"/>
			<point x="234" y="640" type="curve" smooth="yes"/>
			<point x="234" y="685"/>
			<point x="198" y="717"/>
			<point x="153" y="717" type="curve" smooth="yes"/>
			<point x="109" y="717"/>
			<point x="73" y="685"/>
			<point x="73" y="640" type="curve" smooth="yes"/>
			<point x="73" y="595"/>
			<point x="109" y="564"/>
		</contour>
	</outline>
	<anchor name="aboveLC" x="155" y="717"/>
	<anchor name="belowLC" x="89" y="-244"/>
</glyph>
<glyph name="k" format="2">
	<unicode hex="006B"/>
	<advance width="583"/>
	<outline>
		<contour>
			<point x="26" y="0" type="line"/>
			<point x="288" y="0" type="line"/>
			<point x="288" y="40" type="line"/>
			<point x="192" y="58" type="line"/>
			<point x="117" y="58" type="line"/>
			<point x="26" y="40" type="line"/>
		</contour>
		<contour>
			<point x="79" y="0" type="curve"/>
			<point x="238" y="0" type="line"/>
			<point x="235" y="45"/>
			<point x="234" y="149"/>
			<point x="234" y="215" type="curve" smooth="yes"/>
			<point x="234" y="559" type="line"/>
			<point x="238" y="717" type="line"/>
			<point x="223" y="728" type="line"/>
			<point x="21" y="682" type="line"/>
			<point x="21" y="646" type="line"/>
			<point x="83" y="635" type="line"/>
			<point x="83" y="210" type="line" smooth="yes"/>
			<point x="83" y="149"/>
			<point x="82" y="45"/>
		</contour>
		<contour>
			<point x="156" y="128" type="line"/>
			<point x="519" y="476" type="line"/>
			<point x="451" y="476" type="line"/>
			<point x="161" y="186" type="line"/>
			<point x="156" y="186" type="line"/>
		</contour>
		<contour>
			<point x="380" y="0" type="line"/>
			<point x="578" y="0" type="line"/>
			<point x="578" y="40" type="line"/>
			<point x="519" y="53" type="line"/>
			<point x="369" y="356" type="line"/>
			<point x="262" y="257" type="line"/>
		</contour>
		<contour>
			<point x="323" y="438" type="line"/>
			<point x="424" y="421" type="line"/>
			<point x="447" y="423" type="line"/>
			<point x="552" y="438" type="line"/>
			<point x="552" y="476" type="line"/>
			<point x="323" y="476" type="line"/>
		</contour>
	</outline>
	<anchor name="aboveLC" x="161" y="728"/>
	<anchor name="belowLC" x="308" y="-20"/>
</glyph>
<glyph name="l" format="2">
	<unicode hex="006C"/>
	<advance width="313"/>
	<outline>
		<contour>
			<point x="26" y="0" type="line"/>
			<point x="290" y="0" type="line"/>
			<point x="290" y="40" type="line"/>
			<point x="193" y="58" type="line"/>
			<point x="118" y="58" type="line"/>
			<point x="26" y="40" type="line"/>
		</contour>
		<contour>
			<point x="79" y="0" type="curve"/>
			<point x="238" y="0" type="line"/>
			<point x="235" y="65"/>
			<point x="234" y="141"/>
			<point x="234" y="210" type="curve" smooth="yes"/>
			<point x="234" y="561" type="line"/>
			<point x="238" y="717" type="line"/>
			<point x="223" y="728" type="line"/>
			<point x="21" y="682" type="line"/>
			<point x="21" y="646" type="line"/>
			<point x="83" y="635" type="line"/>
			<point x="83" y="210" type="line" smooth="yes"/>
			<point x="83" y="141"/>
			<point x="82" y="65"/>
		</contour>
	</outline>
	<anchor name="aboveLC" x="157" y="728"/>
	<anchor name="belowLC" x="159" y="-20"/>
</glyph>
<glyph name="m" format="2">
	<unicode hex="006D"/>
	<advance width="891"/>
	<outline>
		<contour>
			<point x="27" y="0" type="line"/>
			<point x="284" y="0" type="line"/>
			<point x="284" y="40" type="line"/>
			<point x="193" y="58" type="line"/>
			<point x="117" y="58" type="line"/>
			<point x="27" y="40" type="line"/>
		</contour>
		<contour>
			<point x="79" y="0" type="curve"/>
			<point x="238" y="0" type="line"/>
			<point x="235" y="47"/>
			<point x="234" y="146"/>
			<point x="234" y="210" type="curve" smooth="yes"/>
			<point x="234" y="372" type="line"/>
			<point x="234" y="375" type="line"/>
			<point x="228" y="481" type="line"/>
			<point x="212" y="491" type="line"/>
			<point x="19" y="429" type="line"/>
			<point x="19" y="395" type="line"/>
			<point x="80" y="384" type="line"/>
			<point x="82" y="343"/>
			<point x="82" y="317"/>
			<point x="82" y="260" type="curve" smooth="yes"/>
			<point x="82" y="210" type="line" smooth="yes"/>
			<point x="82" y="146"/>
			<point x="82" y="47"/>
		</contour>
		<contour>
			<point x="324" y="0" type="line"/>
			<point x="576" y="0" type="line"/>
			<point x="576" y="40" type="line"/>
			<point x="487" y="58" type="line"/>
			<point x="410" y="58" type="line"/>
			<point x="324" y="40" type="line"/>
		</contour>
		<contour>
			<point x="373" y="0" type="curve"/>
			<point x="530" y="0" type="line"/>
			<point x="527" y="47"/>
			<point x="527" y="145"/>
			<point x="527" y="210" type="curve" smooth="yes"/>
			<point x="527" y="324" type="line" smooth="yes"/>
			<point x="527" y="437"/>
			<point x="478" y="491"/>
			<point x="389" y="491" type="curve" smooth="yes"/>
			<point x="319" y="491"/>
			<point x="264" y="454"/>
			<point x="211" y="378" type="curve"/>
			<point x="197" y="378" type="line"/>
			<point x="201" y="330" type="line"/>
			<point x="233" y="368"/>
			<point x="277" y="400"/>
			<point x="319" y="400" type="curve" smooth="yes"/>
			<point x="362" y="400"/>
			<point x="377" y="376"/>
			<point x="377" y="309" type="curve" smooth="yes"/>
			<point x="377" y="210" type="line" smooth="yes"/>
			<point x="377" y="145"/>
			<point x="376" y="47"/>
		</contour>
		<contour>
			<point x="618" y="0" type="line"/>
			<point x="870" y="0" type="line"/>
			<point x="870" y="40" type="line"/>
			<point x="779" y="58" type="line"/>
			<point x="701" y="58" type="line"/>
			<point x="618" y="40" type="line"/>
		</contour>
		<contour>
			<point x="665" y="0" type="curve"/>
			<point x="822" y="0" type="line"/>
			<point x="819" y="47"/>
			<point x="818" y="145"/>
			<point x="818" y="210" type="curve" smooth="yes"/>
			<point x="818" y="321" type="line" smooth="yes"/>
			<point x="818" y="437"/>
			<point x="772" y="491"/>
			<point x="679" y="491" type="curve" smooth="yes"/>
			<point x="613" y="491"/>
			<point x="559" y="462"/>
			<point x="501" y="378" type="curve"/>
			<point x="487" y="378" type="line"/>
			<point x="492" y="329" type="line"/>
			<point x="529" y="373"/>
			<point x="570" y="400"/>
			<point x="611" y="400" type="curve" smooth="yes"/>
			<point x="652" y="400"/>
			<point x="668" y="381"/>
			<point x="668" y="309" type="curve" smooth="yes"/>
			<point x="668" y="210" type="line" smooth="yes"/>
			<point x="668" y="145"/>
			<point x="668" y="47"/>
		</contour>
	</outline>
	<anchor name="aboveLC" x="450" y="496"/>
	<anchor name="belowLC" x="453" y="-20"/>
</glyph>
<glyph name="p" format="2">
	<unicode hex="0070"/>
	<advance width="594"/>
	<outline>
		<contour>
			<point x="28" y="-232" type="line"/>
			<point x="300" y="-232" type="line"/>
			<point x="300" y="-192" type="line"/>
			<point x="211" y="-174" type="line"/>
			<point x="121" y="-174" type="line"/>
			<point x="28" y="-192" type="line"/>
		</contour>
		<contour>
			<point x="81" y="-232" type="curve"/>
			<point x="238" y="-232" type="line"/>
			<point x="235" y="-154"/>
			<point x="234" y="-76"/>
			<point x="234" y="-12" type="curve" smooth="yes"/>
			<point x="234" y="72" type="line"/>
			<point x="237" y="82" type="line"/>
			<point x="237" y="391" type="line"/>
			<point x="233" y="403" type="line"/>
			<point x="228" y="482" type="line"/>
			<point x="213" y="491" type="line"/>
			<point x="22" y="429" type="line"/>
			<point x="22" y="395" type="line"/>
			<point x="82" y="384" type="line"/>
			<point x="84" y="343"/>
			<point x="85" y="317"/>
			<point x="85" y="260" type="curve" smooth="yes"/>
			<point x="85" y="-12" type="line" smooth="yes"/>
			<point x="85" y="-77"/>
			<point x="84" y="-154"/>
		</contour>
		<contour>
			<point x="359" y="-15" type="curve" smooth="yes"/>
			<point x="471" y="-15"/>
			<point x="564" y="83"/>
			<point x="564" y="244" type="curve" smooth="yes"/>
			<point x="564" y="405"/>
			<point x="482" y="491"/>
			<point x="375" y="491" type="curve" smooth="yes"/>
			<point x="306" y="491"/>
			<point x="251" y="456"/>
			<point x="207" y="388" type="curve"/>
			<point x="179" y="388" type="line"/>
			<point x="187" y="329" type="line"/>
			<point x="218" y="363"/>
			<point x="258" y="410"/>
			<point x="306" y="410" type="curve" smooth="yes"/>
			<point x="363" y="410"/>
			<point x="403" y="359"/>
			<point x="403" y="240" type="curve" smooth="yes"/>
			<point x="403" y="119"/>
			<point x="361" y="65"/>
			<point x="304" y="65" type="curve" smooth="yes"/>
			<point x="257" y="65"/>
			<point x="231" y="93"/>
			<point x="192" y="143" type="curve"/>
			<point x="184" y="86" type="line"/>
			<point x="205" y="86" type="line"/>
			<point x="243" y="17"/>
			<point x="292" y="-15"/>
		</contour>
	</outline>
	<anchor name="aboveLC" x="304" y="496"/>
	<anchor name="belowLC" x="163" y="-252"/>
</glyph>
<glyph name="r" format="2">
	<unicode hex="0072"/>
	<advance width="459"/>
	<outline>
		<contour>
			<point x="26" y="0" type="line"/>
			<point x="310" y="0" type="line"/>
			<point x="310" y="40" type="line"/>
			<point x="215" y="58" type="line"/>
			<point x="119" y="58" type="line"/>
			<point x="26" y="40" type="line"/>
		</contour>
		<contour>
			<point x="79" y="0" type="curve"/>
			<point x="238" y="0" type="line"/>
			<point x="235" y="47"/>
			<point x="234" y="146"/>
			<point x="234" y="210" type="curve" smooth="yes"/>
			<point x="234" y="353" type="line"/>
			<point x="234" y="356" type="line"/>
			<point x="228" y="481" type="line"/>
			<point x="212" y="491" type="line"/>
			<point x="19" y="429" type="line"/>
			<point x="19" y="395" type="line"/>
			<point x="80" y="384" type="line"/>
			<point x="82" y="343"/>
			<point x="82" y="318"/>
			<point x="82" y="260" type="curve" smooth="yes"/>
			<point x="82" y="210" type="line" smooth="yes"/>
			<point x="82" y="146"/>
			<point x="82" y="47"/>
		</contour>
		<contour>
			<point x="233" y="275" type="line"/>
			<point x="245" y="334"/>
			<point x="282" y="388"/>
			<point x="316" y="413" type="curve"/>
			<point x="280" y="425" type="line"/>
			<point x="305" y="389" type="line" smooth="yes"/>
			<point x="328" y="355"/>
			<point x="353" y="341"/>
			<point x="382" y="341" type="curve" smooth="yes"/>
			<point x="421" y="341"/>
			<point x="451" y="369"/>
			<point x="453" y="420" type="curve"/>
			<point x="445" y="468"/>
			<point x="411" y="491"/>
			<point x="369" y="491" type="curve" smooth="yes"/>
			<point x="313" y="491"/>
			<point x="253" y="440"/>
			<point x="227" y="337" type="curve"/>
			<point x="203" y="337" type="line"/>
		</contour>
	</outline>
	<anchor name="aboveLC" x="258" y="496"/>
	<anchor name="belowLC" x="165" y="-20"/>
</glyph>
<glyph name="v" format="2">
	<unicode hex="0076"/>
	<advance width="517"/>
	<outline>
		<contour>
			<point x="222" y="-2" type="line"/>
			<point x="292" y="-2" type="line"/>
			<point x="473" y="476" type="line"/>
			<point x="413" y="476" type="line"/>
			<point x="301" y="147" type="line"/>
			<point x="296" y="135" type="line"/>
			<point x="315" y="135" type="line"/>
			<point x="190" y="476" type="line"/>
			<point x="25" y="476" type="line"/>
		</contour>
		<contour>
			<point x="-3" y="438" type="line"/>
			<point x="83" y="421" type="line"/>
			<point x="184" y="421" type="line"/>
			<point x="273" y="438" type="line"/>
			<point x="273" y="476" type="line"/>
			<point x="-3" y="476" type="line"/>
		</contour>
		<contour>
			<point x="333" y="438" type="line"/>
			<point x="415" y="424" type="line"/>
			<point x="434" y="424" type="line"/>
			<point x="510" y="438" type="line"/>
			<point x="510" y="476" type="line"/>
			<point x="333" y="476" type="line"/>
		</contour>
	</outline>
	<anchor name="aboveLC" x="303" y="496"/>
	<anchor name="belowLC" x="258" y="-20"/>
</glyph>
<glyph name="x" format="2">
	<unicode hex="0078"/>
	<advance width="537"/>
	<outline>
		<contour>
			<point x="11" y="0" type="line"/>
			<point x="189" y="0" type="line"/>
			<point x="189" y="40" type="line"/>
			<point x="118" y="52" type="line"/>
			<point x="91" y="52" type="line"/>
			<point x="11" y="40" type="line"/>
		</contour>
		<contour>
			<point x="40" y="0" type="line"/>
			<point x="104" y="0" type="line"/>
			<point x="276" y="258" type="line"/>
			<point x="276" y="260" type="line"/>
			<point x="243" y="283" type="line"/>
		</contour>
		<contour>
			<point x="249" y="0" type="line"/>
			<point x="526" y="0" type="line"/>
			<point x="526" y="40" type="line"/>
			<point x="425" y="58" type="line"/>
			<point x="367" y="58" type="line"/>
			<point x="249" y="40" type="line"/>
		</contour>
		<contour>
			<point x="292" y="206" type="line"/>
			<point x="489" y="476" type="line"/>
			<point x="425" y="476" type="line"/>
			<point x="264" y="233" type="line"/>
			<point x="264" y="231" type="line"/>
		</contour>
		<contour>
			<point x="327" y="0" type="line"/>
			<point x="503" y="0" type="line"/>
			<point x="326" y="285" type="line"/>
			<point x="210" y="476" type="line"/>
			<point x="38" y="476" type="line"/>
			<point x="207" y="200" type="line"/>
		</contour>
		<contour>
			<point x="14" y="438" type="line"/>
			<point x="109" y="423" type="line"/>
			<point x="193" y="423" type="line"/>
			<point x="286" y="438" type="line"/>
			<point x="286" y="476" type="line"/>
			<point x="14" y="476" type="line"/>
		</contour>
		<contour>
			<point x="343" y="438" type="line"/>
			<point x="411" y="425" type="line"/>
			<point x="437" y="425" type="line"/>
			<point x="509" y="438" type="line"/>
			<point x="509" y="476" type="line"/>
			<point x="343" y="476" type="line"/>
		</contour>
	</outline>
	<anchor name="aboveLC" x="284" y="496"/>
	<anchor name="belowLC" x="247" y="-20"/>
</glyph>
<glyph name="y" format="2">
	<unicode hex="0079"/>
	<advance width="522"/>
	<outline>
		<contour>
			<point x="100" y="-240" type="curve" smooth="yes"/>
			<point x="188" y="-240"/>
			<point x="233" y="-173"/>
			<point x="279" y="-51" type="curve" smooth="yes"/>
			<point x="479" y="476" type="line"/>
			<point x="423" y="476" type="line"/>
			<point x="359" y="293" type="line"/>
			<point x="270" y="44" type="line"/>
			<point x="267" y="34" type="line"/>
			<point x="238" y="-48" type="line" smooth="yes"/>
			<point x="212" y="-119"/>
			<point x="176" y="-168"/>
			<point x="132" y="-196" type="curve"/>
			<point x="158" y="-210" type="line"/>
			<point x="190" y="-194" type="line"/>
			<point x="162" y="-155" type="line" smooth="yes"/>
			<point x="134" y="-116"/>
			<point x="104" y="-108"/>
			<point x="76" y="-108" type="curve" smooth="yes"/>
			<point x="38" y="-108"/>
			<point x="6" y="-128"/>
			<point x="-1" y="-169" type="curve"/>
			<point x="5" y="-212"/>
			<point x="51" y="-240"/>
		</contour>
		<contour>
			<point x="250" y="-59" type="line"/>
			<point x="312" y="88" type="line"/>
			<point x="317" y="128" type="line"/>
			<point x="191" y="476" type="line"/>
			<point x="27" y="476" type="line"/>
		</contour>
		<contour>
			<point x="0" y="439" type="line"/>
			<point x="86" y="423" type="line"/>
			<point x="189" y="423" type="line"/>
			<point x="277" y="439" type="line"/>
			<point x="277" y="476" type="line"/>
			<point x="0" y="476" type="line"/>
		</contour>
		<contour>
			<point x="340" y="439" type="line"/>
			<point x="422" y="425" type="line"/>
			<point x="438" y="425" type="line"/>
			<point x="517" y="439" type="line"/>
			<point x="517" y="476" type="line"/>
			<point x="340" y="476" type="line"/>
		</contour>
	</outline>
	<anchor name="aboveLC" x="300" y="496"/>
	<anchor name="belowLC" x="150" y="-252"/>
</glyph>
<glyph name="z" format="2">
	<unicode hex="007A"/>
	<advance width="456"/>
	<outline>
		<contour>
			<point x="20" y="0" type="line"/>
			<point x="431" y="0" type="line"/>
			<point x="440" y="165" type="line"/>
			<point x="376" y="165" type="line"/>
			<point x="332" y="17" type="line"/>
			<point x="371" y="41" type="line"/>
			<point x="163" y="41" type="line"/>
			<point x="179" y="20" type="line"/>
			<point x="430" y="444" type="line"/>
			<point x="430" y="476" type="line"/>
			<point x="34" y="476" type="line"/>
			<point x="26" y="324" type="line"/>
			<point x="89" y="320" type="line"/>
			<point x="132" y="460" type="line"/>
			<point x="94" y="436" type="line"/>
			<point x="293" y="436" type="line"/>
			<point x="278" y="456" type="line"/>
			<point x="20" y="32" type="line"/>
		</contour>
	</outline>
	<anchor name="aboveLC" x="233" y="496"/>
	<anchor name="belowLC" x="238" y="-20"/>
</glyph>
<glyph name="sterling" format="2">
	<unicode hex="00A3"/>
	<advance width="533"/>
	<outline>
		<contour>
			<point x="56" y="280" type="line"/>
			<point x="408" y="280" type="line"/>
			<point x="408" y="329" type="line"/>
			<point x="56" y="329" type="line"/>
		</contour>
		<contour>
			<point x="45" y="0" type="line"/>
			<point x="487" y="0" type="line"/>
			<point x="487" y="120" type="line"/>
			<point x="133" y="120" type="line"/>
			<point x="133" y="138" type="line"/>
			<point x="109" y="99" type="line"/>
			<point x="198" y="129"/>
			<point x="249" y="190"/>
			<point x="249" y="273" type="curve" smooth="yes"/>
			<point x="249" y="342"/>
			<point x="219" y="400"/>
			<point x="219" y="483" type="curve" smooth="yes"/>
			<point x="219" y="559"/>
			<point x="259" y="601"/>
			<point x="326" y="601" type="curve" smooth="yes"/>
			<point x="348" y="601"/>
			<point x="371" y="596"/>
			<point x="412" y="582" type="curve"/>
			<point x="338" y="616" type="line"/>
			<point x="353" y="536" type="line" smooth="yes"/>
			<point x="364" y="471"/>
			<point x="393" y="455"/>
			<point x="427" y="455" type="curve" smooth="yes"/>
			<point x="455" y="455"/>
			<point x="477" y="469"/>
			<point x="485" y="501" type="curve"/>
			<point x="478" y="592"/>
			<point x="408" y="646"/>
			<point x="299" y="646" type="curve" smooth="yes"/>
			<point x="183" y="646"/>
			<point x="81" y="586"/>
			<point x="81" y="470" type="curve" smooth="yes"/>
			<point x="81" y="368"/>
			<point x="142" y="330"/>
			<point x="142" y="238" type="curve" smooth="yes"/>
			<point x="142" y="182"/>
			<point x="106" y="126"/>
			<point x="45" y="89" type="curve"/>
		</contour>
	</outline>
</glyph>
<glyph name="copyright" format="2">
	<unicode hex="00A9"/>
	<advance width="744"/>
	<outline>
		<contour>
			<point x="373" y="-18" type="curve" smooth="yes"/>
			<point x="557" y="-18"/>
			<point x="715" y="118"/>
			<point x="715" y="329" type="curve" smooth="yes"/>
			<point x="715" y="541"/>
			<point x="557" y="675"/>
			<point x="373" y="675" type="curve" smooth="yes"/>
			<point x="189" y="675"/>
			<point x="30" y="541"/>
			<point x="30" y="329" type="curve" smooth="yes"/>
			<point x="30" y="118"/>
			<point x="189" y="-18"/>
		</contour>
		<contour>
			<point x="373" y="29" type="curve" smooth="yes"/>
			<point x="217" y="29"/>
			<point x="86" y="146"/>
			<point x="86" y="329" type="curve" smooth="yes"/>
			<point x="86" y="512"/>
			<point x="217" y="628"/>
			<point x="373" y="628" type="curve" smooth="yes"/>
			<point x="529" y="628"/>
			<point x="660" y="512"/>
			<point x="660" y="329" type="curve" smooth="yes"/>
			<point x="660" y="146"/>
			<point x="529" y="29"/>
		</contour>
		<contour>
			<point x="392" y="125" type="curve" smooth="yes"/>
			<point x="439" y="125"/>
			<point x="479" y="137"/>
			<point x="509" y="153" type="curve"/>
			<point x="513" y="251" type="line"/>
			<point x="475" y="251" type="line"/>
			<point x="445" y="149" type="line"/>
			<point x="489" y="192" type="line"/>
			<point x="464" y="173"/>
			<point x="434" y="162"/>
			<point x="408" y="162" type="curve" smooth="yes"/>
			<point x="348" y="162"/>
			<point x="298" y="213"/>
			<point x="298" y="330" type="curve" smooth="yes"/>
			<point x="298" y="447"/>
			<point x="350" y="500"/>
			<point x="410" y="500" type="curve" smooth="yes"/>
			<point x="434" y="500"/>
			<point x="460" y="490"/>
			<point x="486" y="469" type="curve"/>
			<point x="441" y="513" type="line"/>
			<point x="472" y="413" type="line"/>
			<point x="510" y="413" type="line"/>
			<point x="506" y="510" type="line"/>
			<point x="474" y="527"/>
			<point x="440" y="537"/>
			<point x="394" y="537" type="curve" smooth="yes"/>
			<point x="288" y="537"/>
			<point x="187" y="469"/>
			<point x="187" y="329" type="curve" smooth="yes"/>
			<point x="187" y="192"/>
			<point x="281" y="125"/>
		</contour>
	</outline>
</glyph>
<glyph name="two.sups" format="2">
	<unicode hex="00B2"/>
	<advance width="368"/>
	<outline>
		<contour>
			<point x="40" y="418" type="line"/>
			<point x="331" y="418" type="line"/>
			<point x="331" y="502" type="line"/>
			<point x="110" y="502" type="line"/>
			<point x="110" y="515" type="line"/>
			<point x="88" y="480" type="line"/>
			<point x="165" y="533" type="line" smooth="yes"/>
			<point x="270" y="602"/>
			<point x="323" y="649"/>
			<point x="323" y="713" type="curve" smooth="yes"/>
			<point x="323" y="773"/>
			<point x="284" y="822"/>
			<point x="190" y="822" type="curve" smooth="yes"/>
			<point x="106" y="822"/>
			<point x="40" y="789"/>
			<point x="37" y="719" type="curve"/>
			<point x="45" y="702"/>
			<point x="61" y="692"/>
			<point x="78" y="692" type="curve" smooth="yes"/>
			<point x="99" y="692"/>
			<point x="119" y="703"/>
			<point x="126" y="746" type="curve" smooth="yes"/>
			<point x="137" y="806" type="line"/>
			<point x="90" y="779" type="line"/>
			<point x="114" y="790"/>
			<point x="132" y="792"/>
			<point x="151" y="792" type="curve" smooth="yes"/>
			<point x="191" y="792"/>
			<point x="217" y="765"/>
			<point x="217" y="713" type="curve" smooth="yes"/>
			<point x="217" y="655"/>
			<point x="184" y="611"/>
			<point x="125" y="553" type="curve" smooth="yes"/>
			<point x="40" y="472" type="line"/>
		</contour>
	</outline>
</glyph>
<glyph name="three.sups" format="2">
	<unicode hex="00B3"/>
	<advance width="368"/>
	<outline>
		<contour>
			<point x="171" y="408" type="curve" smooth="yes"/>
			<point x="274" y="408"/>
			<point x="336" y="453"/>
			<point x="336" y="522" type="curve" smooth="yes"/>
			<point x="336" y="587"/>
			<point x="292" y="623"/>
			<point x="193" y="628" type="curve"/>
			<point x="194" y="620" type="line"/>
			<point x="280" y="627"/>
			<point x="322" y="670"/>
			<point x="322" y="722" type="curve" smooth="yes"/>
			<point x="322" y="779"/>
			<point x="276" y="822"/>
			<point x="181" y="822" type="curve" smooth="yes"/>
			<point x="109" y="822"/>
			<point x="52" y="791"/>
			<point x="50" y="724" type="curve"/>
			<point x="57" y="711"/>
			<point x="71" y="703"/>
			<point x="86" y="703" type="curve" smooth="yes"/>
			<point x="109" y="703"/>
			<point x="128" y="714"/>
			<point x="134" y="748" type="curve" smooth="yes"/>
			<point x="143" y="805" type="line"/>
			<point x="107" y="784" type="line"/>
			<point x="126" y="790"/>
			<point x="142" y="792"/>
			<point x="154" y="792" type="curve" smooth="yes"/>
			<point x="195" y="792"/>
			<point x="220" y="764"/>
			<point x="220" y="717" type="curve" smooth="yes"/>
			<point x="220" y="664"/>
			<point x="194" y="638"/>
			<point x="141" y="638" type="curve" smooth="yes"/>
			<point x="122" y="638" type="line"/>
			<point x="122" y="605" type="line"/>
			<point x="144" y="605" type="line" smooth="yes"/>
			<point x="202" y="605"/>
			<point x="228" y="574"/>
			<point x="228" y="525" type="curve" smooth="yes"/>
			<point x="228" y="469"/>
			<point x="198" y="437"/>
			<point x="141" y="437" type="curve" smooth="yes"/>
			<point x="124" y="437"/>
			<point x="112" y="439"/>
			<point x="97" y="446" type="curve"/>
			<point x="127" y="422" type="line"/>
			<point x="119" y="484" type="line" smooth="yes"/>
			<point x="113" y="527"/>
			<point x="96" y="538"/>
			<point x="72" y="538" type="curve" smooth="yes"/>
			<point x="56" y="538"/>
			<point x="39" y="530"/>
			<point x="32" y="510" type="curve"/>
			<point x="36" y="445"/>
			<point x="83" y="408"/>
		</contour>
	</outline>
</glyph>
<glyph name="one.sups" format="2">
	<unicode hex="00B9"/>
	<advance width="368"/>
	<outline>
		<contour>
			<point x="61" y="412" type="line"/>
			<point x="321" y="412" type="line"/>
			<point x="321" y="439" type="line"/>
			<point x="238" y="456" type="line"/>
			<point x="149" y="456" type="line"/>
			<point x="61" y="439" type="line"/>
		</contour>
		<contour>
			<point x="140" y="412" type="line"/>
			<point x="246" y="412" type="line"/>
			<point x="246" y="808" type="line"/>
			<point x="236" y="814" type="line"/>
			<point x="70" y="773" type="line"/>
			<point x="70" y="740" type="line"/>
			<point x="140" y="748" type="line"/>
		</contour>
	</outline>
</glyph>
<glyph name="Oslash" format="2">
	<unicode hex="00D8"/>
	<advance width="686"/>
	<outline>
		<contour>
			<point x="636" y="650" type="line"/>
			<point x="590" y="688" type="line"/>
			<point x="49" y="8" type="line"/>
			<point x="95" y="-31" type="line"/>
		</contour>
		<contour>
			<point x="195" y="329" type="curve" smooth="yes"/>
			<point x="195" y="501"/>
			<point x="237" y="627"/>
			<point x="343" y="627" type="curve" smooth="yes"/>
			<point x="449" y="627"/>
			<point x="491" y="501"/>
			<point x="491" y="329" type="curve" smooth="yes"/>
			<point x="491" y="155"/>
			<point x="449" y="31"/>
			<point x="343" y="31" type="curve" smooth="yes"/>
			<point x="237" y="31"/>
			<point x="195" y="156"/>
		</contour>
		<contour>
			<point x="343" y="675" type="curve" smooth="yes"/>
			<point x="183" y="675"/>
			<point x="34" y="559"/>
			<point x="34" y="329" type="curve" smooth="yes"/>
			<point x="34" y="95"/>
			<point x="182" y="-18"/>
			<point x="343" y="-18" type="curve" smooth="yes"/>
			<point x="504" y="-18"/>
			<point x="652" y="98"/>
			<point x="652" y="328" type="curve" smooth="yes"/>
			<point x="652" y="561"/>
			<point x="503" y="675"/>
		</contour>
	</outline>
	<anchor name="aboveUC" x="343" y="677"/>
</glyph>
<glyph name="idieresis" format="2">
	<unicode hex="00EF"/>
	<advance width="308"/>
	<outline>
		<contour>
			<point x="65" y="570" type="curve" smooth="yes"/>
			<point x="102" y="570"/>
			<point x="133" y="596"/>
			<point x="133" y="639" type="curve" smooth="yes"/>
			<point x="133" y="682"/>
			<point x="102" y="708"/>
			<point x="65" y="708" type="curve" smooth="yes"/>
			<point x="30" y="708"/>
			<point x="-2" y="682"/>
			<point x="-2" y="639" type="curve" smooth="yes"/>
			<point x="-2" y="596"/>
			<point x="30" y="570"/>
		</contour>
		<contour>
			<point x="250" y="570" type="curve" smooth="yes"/>
			<point x="286" y="570"/>
			<point x="317" y="596"/>
			<point x="317" y="639" type="curve" smooth="yes"/>
			<point x="317" y="682"/>
			<point x="286" y="708"/>
			<point x="250" y="708" type="curve" smooth="yes"/>
			<point x="214" y="708"/>
			<point x="182" y="682"/>
			<point x="182" y="639" type="curve" smooth="yes"/>
			<point x="182" y="596"/>
			<point x="214" y="570"/>
		</contour>
		<component base="dotlessi"/>
	</outline>
</glyph>
<glyph name="eth" format="2">
	<unicode hex="00F0"/>
	<advance width="547"/>
	<outline>
		<contour>
			<point x="267" y="-15" type="curve" smooth="yes"/>
			<point x="404" y="-15"/>
			<point x="516" y="80"/>
			<point x="516" y="277" type="curve" smooth="yes"/>
			<point x="516" y="502"/>
			<point x="364" y="670"/>
			<point x="142" y="738" type="curve"/>
			<point x="121" y="695" type="line"/>
			<point x="262" y="628"/>
			<point x="316" y="557"/>
			<point x="361" y="386" type="curve"/>
			<point x="395" y="396" type="line"/>
			<point x="373" y="446"/>
			<point x="332" y="480"/>
			<point x="269" y="480" type="curve" smooth="yes"/>
			<point x="141" y="480"/>
			<point x="30" y="389"/>
			<point x="30" y="236" type="curve" smooth="yes"/>
			<point x="30" y="73"/>
			<point x="142" y="-15"/>
		</contour>
		<contour>
			<point x="275" y="30" type="curve" smooth="yes"/>
			<point x="222" y="30"/>
			<point x="192" y="93"/>
			<point x="192" y="232" type="curve" smooth="yes"/>
			<point x="192" y="374"/>
			<point x="224" y="436"/>
			<point x="275" y="436" type="curve" smooth="yes"/>
			<point x="329" y="436"/>
			<point x="359" y="373"/>
			<point x="359" y="237" type="curve" smooth="yes"/>
			<point x="359" y="94"/>
			<point x="326" y="30"/>
		</contour>
		<contour>
			<point x="135" y="513" type="line"/>
			<point x="490" y="682" type="line"/>
			<point x="468" y="729" type="line"/>
			<point x="112" y="559" type="line"/>
		</contour>
	</outline>
</glyph>
<glyph name="oslash" format="2">
	<unicode hex="00F8"/>
	<advance width="555"/>
	<outline>
		<contour>
			<point x="503" y="474" type="line"/>
			<point x="464" y="506" type="line"/>
			<point x="52" y="2" type="line"/>
			<point x="91" y="-29" type="line"/>
		</contour>
		<contour>
			<point x="277" y="-15" type="curve" smooth="yes"/>
			<point x="426" y="-15"/>
			<point x="525" y="87"/>
			<point x="525" y="240" type="curve" smooth="yes"/>
			<point x="525" y="393"/>
			<point x="421" y="491"/>
			<point x="277" y="491" type="curve" smooth="yes"/>
			<point x="137" y="491"/>
			<point x="30" y="391"/>
			<point x="30" y="239" type="curve" smooth="yes"/>
			<point x="30" y="88"/>
			<point x="124" y="-15"/>
		</contour>
		<contour>
			<point x="277" y="30" type="curve" smooth="yes"/>
			<point x="216" y="30"/>
			<point x="185" y="89"/>
			<point x="185" y="238" type="curve" smooth="yes"/>
			<point x="185" y="386"/>
			<point x="216" y="446"/>
			<point x="277" y="446" type="curve" smooth="yes"/>
			<point x="338" y="446"/>
			<point x="370" y="387"/>
			<point x="370" y="238" type="curve" smooth="yes"/>
			<point x="370" y="89"/>
			<point x="338" y="30"/>
		</contour>
	</outline>
	<anchor name="aboveLC" x="277" y="496"/>
</glyph>
<glyph name="dcroat" format="2">
	<unicode hex="0111"/>
	<advance width="580"/>
	<outline>
		<contour>
			<point x="201" y="536" type="line"/>
			<point x="564" y="536" type="line"/>
			<point x="564" y="585" type="line"/>
			<point x="201" y="585" type="line"/>
		</contour>
		<contour>
			<point x="191" y="228" type="curve" smooth="yes"/>
			<point x="191" y="343"/>
			<point x="236" y="396"/>
			<point x="295" y="396" type="curve" smooth="yes"/>
			<point x="334" y="396"/>
			<point x="360" y="375"/>
			<point x="397" y="330" type="curve"/>
			<point x="409" y="348" type="line"/>
			<point x="404" y="348" type="line"/>
			<point x="362" y="433"/>
			<point x="320" y="476"/>
			<point x="241" y="476" type="curve" smooth="yes"/>
			<point x="130" y="476"/>
			<point x="30" y="380"/>
			<point x="30" y="225" type="curve" smooth="yes"/>
			<point x="30" y="70"/>
			<point x="112" y="-15"/>
			<point x="222" y="-15" type="curve" smooth="yes"/>
			<point x="303" y="-15"/>
			<point x="361" y="30"/>
			<point x="406" y="127" type="curve"/>
			<point x="402" y="138" type="line"/>
			<point x="398" y="144" type="line"/>
			<point x="368" y="99"/>
			<point x="337" y="66"/>
			<point x="292" y="66" type="curve" smooth="yes"/>
			<point x="233" y="66"/>
			<point x="191" y="119"/>
		</contour>
		<contour>
			<point x="558" y="0" type="line"/>
			<point x="558" y="40" type="line"/>
			<point x="508" y="49" type="line"/>
			<point x="508" y="552" type="line"/>
			<point x="512" y="717" type="line"/>
			<point x="497" y="728" type="line"/>
			<point x="294" y="682" type="line"/>
			<point x="294" y="646" type="line"/>
			<point x="361" y="638" type="line"/>
			<point x="361" y="399" type="line"/>
			<point x="357" y="388" type="line"/>
			<point x="357" y="82" type="line"/>
			<point x="357" y="79" type="line"/>
			<point x="366" y="-12" type="line"/>
		</contour>
	</outline>
</glyph>
<glyph name="eogonek" format="2">
	<unicode hex="0119"/>
	<advance width="507"/>
	<outline>
		<contour>
			<point x="332" y="-225" type="curve" smooth="yes"/>
			<point x="385" y="-225"/>
			<point x="433" y="-206"/>
			<point x="462" y="-172" type="curve"/>
			<point x="449" y="-137" type="line"/>
			<point x="433" y="-144"/>
			<point x="416" y="-148"/>
			<point x="394" y="-148" type="curve" smooth="yes"/>
			<point x="351" y="-148"/>
			<point x="323" y="-124"/>
			<point x="323" y="-83" type="curve" smooth="yes"/>
			<point x="323" y="-48"/>
			<point x="345" y="-17"/>
			<point x="386" y="9" type="curve" smooth="yes"/>
			<point x="424" y="31"/>
			<point x="452" y="60"/>
			<point x="475" y="103" type="curve"/>
			<point x="446" y="127" type="line"/>
			<point x="416" y="94"/>
			<point x="382" y="74"/>
			<point x="332" y="74" type="curve" smooth="yes"/>
			<point x="254" y="74"/>
			<point x="189" y="133"/>
			<point x="189" y="254" type="curve" smooth="yes"/>
			<point x="189" y="401"/>
			<point x="227" y="447"/>
			<point x="271" y="447" type="curve" smooth="yes"/>
			<point x="308" y="447"/>
			<point x="336" y="418"/>
			<point x="336" y="347" type="curve" smooth="yes"/>
			<point x="336" y="300"/>
			<point x="323" y="282"/>
			<point x="271" y="282" type="curve" smooth="yes"/>
			<point x="93" y="282" type="line"/>
			<point x="93" y="237" type="line"/>
			<point x="471" y="237" type="line"/>
			<point x="475" y="254"/>
			<point x="476" y="268"/>
			<point x="476" y="289" type="curve" smooth="yes"/>
			<point x="476" y="405"/>
			<point x="399" y="491"/>
			<point x="270" y="491" type="curve" smooth="yes"/>
			<point x="137" y="491"/>
			<point x="30" y="397"/>
			<point x="30" y="233" type="curve" smooth="yes"/>
			<point x="30" y="73"/>
			<point x="132" y="-15"/>
			<point x="273" y="-15" type="curve" smooth="yes"/>
			<point x="289" y="-15"/>
			<point x="309" y="-13"/>
			<point x="327" y="-9" type="curve"/>
			<point x="330" y="1" type="line"/>
			<point x="269" y="-27"/>
			<point x="224" y="-70"/>
			<point x="224" y="-130" type="curve" smooth="yes"/>
			<point x="224" y="-185"/>
			<point x="263" y="-225"/>
		</contour>
	</outline>
	<anchor name="aboveLC" x="271" y="496"/>
	<anchor name="belowLC" x="276" y="-20"/>
</glyph>
<glyph name="dotlessi" format="2">
	<unicode hex="0131"/>
	<advance width="308"/>
	<outline>
		<contour>
			<point x="28" y="0" type="line"/>
			<point x="287" y="0" type="line"/>
			<point x="287" y="40" type="line"/>
			<point x="194" y="58" type="line"/>
			<point x="119" y="58" type="line"/>
			<point x="28" y="40" type="line"/>
		</contour>
		<contour>
			<point x="80" y="0" type="curve"/>
			<point x="239" y="0" type="line"/>
			<point x="236" y="47"/>
			<point x="235" y="146"/>
			<point x="235" y="210" type="curve" smooth="yes"/>
			<point x="235" y="339" type="line"/>
			<point x="239" y="481" type="line"/>
			<point x="222" y="491" type="line"/>
			<point x="20" y="429" type="line"/>
			<point x="20" y="395" type="line"/>
			<point x="81" y="384" type="line"/>
			<point x="83" y="343"/>
			<point x="83" y="310"/>
			<point x="83" y="253" type="curve" smooth="yes"/>
			<point x="83" y="210" type="line" smooth="yes"/>
			<point x="83" y="146"/>
			<point x="83" y="47"/>
		</contour>
	</outline>
	<anchor name="aboveLC" x="158" y="496"/>
	<anchor name="belowLC" x="162" y="-20"/>
	<anchor name="ogonek" x="195" y="0"/>
</glyph>
<glyph name="kgreenlandic" format="2">
	<unicode hex="0138"/>
	<advance width="581"/>
	<outline>
		<contour>
			<point x="25" y="0" type="line"/>
			<point x="282" y="0" type="line"/>
			<point x="282" y="40" type="line"/>
			<point x="191" y="58" type="line"/>
			<point x="116" y="58" type="line"/>
			<point x="25" y="40" type="line"/>
		</contour>
		<contour>
			<point x="77" y="0" type="curve"/>
			<point x="236" y="0" type="line"/>
			<point x="233" y="47"/>
			<point x="232" y="146"/>
			<point x="232" y="224" type="curve" smooth="yes"/>
			<point x="232" y="339" type="line"/>
			<point x="236" y="481" type="line"/>
			<point x="219" y="491" type="line"/>
			<point x="18" y="429" type="line"/>
			<point x="18" y="395" type="line"/>
			<point x="78" y="384" type="line"/>
			<point x="80" y="343"/>
			<point x="81" y="317"/>
			<point x="81" y="260" type="curve" smooth="yes"/>
			<point x="81" y="210" type="line" smooth="yes"/>
			<point x="81" y="146"/>
			<point x="80" y="47"/>
		</contour>
		<contour>
			<point x="154" y="128" type="line"/>
			<point x="517" y="476" type="line"/>
			<point x="449" y="476" type="line"/>
			<point x="303" y="331" type="line"/>
			<point x="157" y="185" type="line"/>
			<point x="154" y="185" type="line"/>
		</contour>
		<contour>
			<point x="378" y="0" type="line"/>
			<point x="575" y="0" type="line"/>
			<point x="575" y="40" type="line"/>
			<point x="456" y="68" type="line"/>
			<point x="535" y="17" type="line"/>
			<point x="367" y="356" type="line"/>
			<point x="260" y="257" type="line"/>
		</contour>
		<contour>
			<point x="424" y="421" type="line"/>
			<point x="446" y="423" type="line"/>
			<point x="551" y="438" type="line"/>
			<point x="551" y="476" type="line"/>
			<point x="326" y="476" type="line"/>
			<point x="326" y="438" type="line"/>
		</contour>
	</outline>
</glyph>
<glyph name="eng" format="2">
	<unicode hex="014B"/>
	<advance width="599"/>
	<outline>
		<contour>
			<point x="27" y="0" type="line"/>
			<point x="284" y="0" type="line"/>
			<point x="284" y="40" type="line"/>
			<point x="193" y="58" type="line"/>
			<point x="117" y="58" type="line"/>
			<point x="27" y="40" type="line"/>
		</contour>
		<contour>
			<point x="79" y="0" type="curve"/>
			<point x="238" y="0" type="line"/>
			<point x="235" y="47"/>
			<point x="234" y="146"/>
			<point x="234" y="210" type="curve" smooth="yes"/>
			<point x="234" y="372" type="line"/>
			<point x="234" y="374" type="line"/>
			<point x="228" y="481" type="line"/>
			<point x="212" y="491" type="line"/>
			<point x="19" y="429" type="line"/>
			<point x="19" y="395" type="line"/>
			<point x="80" y="384" type="line"/>
			<point x="82" y="343"/>
			<point x="82" y="317"/>
			<point x="82" y="260" type="curve" smooth="yes"/>
			<point x="82" y="210" type="line" smooth="yes"/>
			<point x="82" y="146"/>
			<point x="82" y="47"/>
		</contour>
		<contour>
			<point x="310" y="-240" type="curve" smooth="yes"/>
			<point x="358" y="-240"/>
			<point x="417" y="-224"/>
			<point x="466" y="-176" type="curve" smooth="yes"/>
			<point x="513" y="-129"/>
			<point x="530" y="-76"/>
			<point x="530" y="39" type="curve" smooth="yes"/>
			<point x="530" y="324" type="line" smooth="yes"/>
			<point x="530" y="437"/>
			<point x="475" y="491"/>
			<point x="391" y="491" type="curve" smooth="yes"/>
			<point x="320" y="491"/>
			<point x="263" y="457"/>
			<point x="199" y="363" type="curve"/>
			<point x="195" y="363" type="line"/>
			<point x="200" y="330" type="line"/>
			<point x="239" y="375"/>
			<point x="285" y="400"/>
			<point x="321" y="400" type="curve" smooth="yes"/>
			<point x="361" y="400"/>
			<point x="378" y="378"/>
			<point x="378" y="315" type="curve" smooth="yes"/>
			<point x="378" y="79" type="line" smooth="yes"/>
			<point x="378" y="-12"/>
			<point x="387" y="-101"/>
			<point x="376" y="-155" type="curve" smooth="yes"/>
			<point x="372" y="-177"/>
			<point x="367" y="-187"/>
			<point x="358" y="-199" type="curve"/>
			<point x="358" y="-211" type="line"/>
			<point x="377" y="-211" type="line"/>
			<point x="377" y="-200" type="line"/>
			<point x="353" y="-162" type="line" smooth="yes"/>
			<point x="332" y="-122"/>
			<point x="308" y="-106"/>
			<point x="275" y="-106" type="curve" smooth="yes"/>
			<point x="235" y="-106"/>
			<point x="208" y="-128"/>
			<point x="201" y="-170" type="curve"/>
			<point x="212" y="-215"/>
			<point x="248" y="-240"/>
		</contour>
	</outline>
</glyph>
<glyph name="oe" format="2">
	<unicode hex="0153"/>
	<advance width="837"/>
	<outline>
		<contour>
			<point x="276" y="-15" type="curve" smooth="yes"/>
			<point x="373" y="-15"/>
			<point x="441" y="38"/>
			<point x="480" y="124" type="curve"/>
			<point x="397" y="125" type="line"/>
			<point x="433" y="34"/>
			<point x="507" y="-15"/>
			<point x="605" y="-15" type="curve" smooth="yes"/>
			<point x="703" y="-15"/>
			<point x="765" y="24"/>
			<point x="807" y="102" type="curve"/>
			<point x="778" y="126" type="line"/>
			<point x="748" y="92"/>
			<point x="712" y="74"/>
			<point x="662" y="74" type="curve" smooth="yes"/>
			<point x="583" y="74"/>
			<point x="519" y="133"/>
			<point x="519" y="254" type="curve" smooth="yes"/>
			<point x="519" y="400"/>
			<point x="557" y="447"/>
			<point x="601" y="447" type="curve" smooth="yes"/>
			<point x="638" y="447"/>
			<point x="666" y="418"/>
			<point x="666" y="347" type="curve" smooth="yes"/>
			<point x="666" y="300"/>
			<point x="653" y="282"/>
			<point x="602" y="282" type="curve" smooth="yes"/>
			<point x="423" y="282" type="line"/>
			<point x="423" y="237" type="line"/>
			<point x="801" y="237" type="line"/>
			<point x="805" y="254"/>
			<point x="806" y="268"/>
			<point x="806" y="289" type="curve" smooth="yes"/>
			<point x="806" y="405"/>
			<point x="732" y="491"/>
			<point x="608" y="491" type="curve" smooth="yes"/>
			<point x="523" y="491"/>
			<point x="452" y="446"/>
			<point x="411" y="367" type="curve"/>
			<point x="478" y="366" type="line"/>
			<point x="441" y="444"/>
			<point x="365" y="491"/>
			<point x="276" y="491" type="curve" smooth="yes"/>
			<point x="136" y="491"/>
			<point x="30" y="391"/>
			<point x="30" y="239" type="curve" smooth="yes"/>
			<point x="30" y="88"/>
			<point x="124" y="-15"/>
		</contour>
		<contour>
			<point x="276" y="30" type="curve" smooth="yes"/>
			<point x="220" y="30"/>
			<point x="192" y="89"/>
			<point x="192" y="238" type="curve" smooth="yes"/>
			<point x="192" y="387"/>
			<point x="220" y="446"/>
			<point x="276" y="446" type="curve" smooth="yes"/>
			<point x="332" y="446"/>
			<point x="360" y="386"/>
			<point x="360" y="238" type="curve" smooth="yes"/>
			<point x="360" y="89"/>
			<point x="332" y="30"/>
		</contour>
	</outline>
	<anchor name="aboveLC" x="437" y="496"/>
</glyph>
<glyph name="Tbar" format="2">
	<unicode hex="0166"/>
	<advance width="619"/>
	<outline>
		<contour>
			<point x="70" y="296" type="line"/>
			<point x="549" y="296" type="line"/>
			<point x="549" y="345" type="line"/>
			<point x="70" y="345" type="line"/>
		</contour>
		<component base="T"/>
	</outline>
</glyph>
<glyph name="Uogonek" format="2">
	<unicode hex="0172"/>
	<advance width="704"/>
	<outline>
		<contour>
			<point x="164" y="598" type="line"/>
			<point x="204" y="598" type="line"/>
			<point x="340" y="612" type="line"/>
			<point x="340" y="657" type="line"/>
			<point x="29" y="657" type="line"/>
			<point x="29" y="612" type="line"/>
		</contour>
		<contour>
			<point x="419" y="-226" type="curve" smooth="yes"/>
			<point x="464" y="-226"/>
			<point x="506" y="-208"/>
			<point x="535" y="-176" type="curve"/>
			<point x="523" y="-139" type="line"/>
			<point x="507" y="-146"/>
			<point x="492" y="-149"/>
			<point x="473" y="-149" type="curve" smooth="yes"/>
			<point x="440" y="-149"/>
			<point x="419" y="-129"/>
			<point x="419" y="-90" type="curve" smooth="yes"/>
			<point x="419" y="-47"/>
			<point x="439" y="-14"/>
			<point x="482" y="11" type="curve" smooth="yes"/>
			<point x="557" y="53"/>
			<point x="600" y="135"/>
			<point x="600" y="277" type="curve" smooth="yes"/>
			<point x="600" y="657" type="line"/>
			<point x="545" y="657" type="line"/>
			<point x="545" y="272" type="line" smooth="yes"/>
			<point x="545" y="124"/>
			<point x="490" y="67"/>
			<point x="400" y="67" type="curve" smooth="yes"/>
			<point x="308" y="67"/>
			<point x="260" y="120"/>
			<point x="260" y="270" type="curve" smooth="yes"/>
			<point x="260" y="356" type="line" smooth="yes"/>
			<point x="260" y="457"/>
			<point x="261" y="564"/>
			<point x="264" y="657" type="curve"/>
			<point x="97" y="657" type="line"/>
			<point x="100" y="563"/>
			<point x="101" y="456"/>
			<point x="101" y="356" type="curve" smooth="yes"/>
			<point x="101" y="240" type="line" smooth="yes"/>
			<point x="101" y="51"/>
			<point x="206" y="-18"/>
			<point x="350" y="-18" type="curve" smooth="yes"/>
			<point x="377" y="-18"/>
			<point x="401" y="-15"/>
			<point x="424" y="-10" type="curve"/>
			<point x="424" y="-1" type="line"/>
			<point x="363" y="-30"/>
			<point x="320" y="-71"/>
			<point x="320" y="-132" type="curve" smooth="yes"/>
			<point x="320" y="-186"/>
			<point x="354" y="-226"/>
		</contour>
		<contour>
			<point x="560" y="603" type="line"/>
			<point x="585" y="603" type="line"/>
			<point x="678" y="612" type="line"/>
			<point x="678" y="657" type="line"/>
			<point x="460" y="657" type="line"/>
			<point x="460" y="612" type="line"/>
		</contour>
	</outline>
	<anchor name="aboveUC" x="400" y="677"/>
</glyph>
<glyph name="uogonek" format="2">
	<unicode hex="0173"/>
	<advance width="593"/>
	<outline>
		<contour>
			<point x="358" y="-130" type="curve" smooth="yes"/>
			<point x="358" y="-185"/>
			<point x="397" y="-225"/>
			<point x="465" y="-225" type="curve" smooth="yes"/>
			<point x="519" y="-225"/>
			<point x="566" y="-206"/>
			<point x="595" y="-172" type="curve"/>
			<point x="582" y="-137" type="line"/>
			<point x="566" y="-144"/>
			<point x="550" y="-148"/>
			<point x="528" y="-148" type="curve" smooth="yes"/>
			<point x="485" y="-148"/>
			<point x="456" y="-123"/>
			<point x="456" y="-82" type="curve" smooth="yes"/>
			<point x="456" y="-49"/>
			<point x="474" y="-17"/>
			<point x="515" y="7" type="curve"/>
			<point x="482" y="7" type="line"/>
			<point x="410" y="-22"/>
			<point x="358" y="-67"/>
		</contour>
		<component base="u"/>
	</outline>
	<anchor name="aboveLC" x="297" y="496"/>
	<anchor name="belowLC" x="305" y="-20"/>
</glyph>
<glyph name="Uhorn" format="2">
	<unicode hex="01AF"/>
	<advance width="704"/>
	<outline>
		<contour>
			<point x="349" y="-18" type="curve" smooth="yes"/>
			<point x="508" y="-18"/>
			<point x="600" y="68"/>
			<point x="600" y="277" type="curve" smooth="yes"/>
			<point x="600" y="657" type="line"/>
			<point x="545" y="657" type="line"/>
			<point x="545" y="274" type="line" smooth="yes"/>
			<point x="545" y="126"/>
			<point x="490" y="69"/>
			<point x="401" y="69" type="curve" smooth="yes"/>
			<point x="308" y="69"/>
			<point x="260" y="122"/>
			<point x="260" y="272" type="curve" smooth="yes"/>
			<point x="260" y="356" type="line" smooth="yes"/>
			<point x="260" y="457"/>
			<point x="261" y="565"/>
			<point x="264" y="657" type="curve"/>
			<point x="97" y="657" type="line"/>
			<point x="100" y="563"/>
			<point x="101" y="455"/>
			<point x="101" y="356" type="curve" smooth="yes"/>
			<point x="101" y="240" type="line" smooth="yes"/>
			<point x="101" y="51"/>
			<point x="206" y="-18"/>
		</contour>
		<contour>
			<point x="566" y="604" type="line"/>
			<point x="672" y="606"/>
			<point x="737" y="645"/>
			<point x="737" y="744" type="curve" smooth="yes"/>
			<point x="737" y="763"/>
			<point x="734" y="780"/>
			<point x="726" y="797" type="curve"/>
			<point x="713" y="809"/>
			<point x="699" y="813"/>
			<point x="681" y="813" type="curve" smooth="yes"/>
			<point x="652" y="813"/>
			<point x="628" y="790"/>
			<point x="628" y="765" type="curve" smooth="yes"/>
			<point x="628" y="728"/>
			<point x="662" y="709"/>
			<point x="662" y="686" type="curve" smooth="yes"/>
			<point x="662" y="665"/>
			<point x="634" y="657"/>
			<point x="566" y="657" type="curve"/>
		</contour>
		<contour>
			<point x="29" y="612" type="line"/>
			<point x="164" y="598" type="line"/>
			<point x="204" y="598" type="line"/>
			<point x="340" y="612" type="line"/>
			<point x="340" y="657" type="line"/>
			<point x="29" y="657" type="line"/>
		</contour>
		<contour>
			<point x="460" y="612" type="line"/>
			<point x="558" y="603" type="line"/>
			<point x="584" y="603" type="line"/>
			<point x="583" y="657" type="line"/>
			<point x="460" y="657" type="line"/>
		</contour>
	</outline>
	<anchor name="aboveUC" x="394" y="677"/>
	<anchor name="belowLC" x="369" y="-20"/>
</glyph>
<glyph name="dotlessj" format="2">
	<unicode hex="0237"/>
	<advance width="300"/>
	<outline>
		<contour>
			<point x="17" y="-240" type="curve" smooth="yes"/>
			<point x="65" y="-240"/>
			<point x="121" y="-225"/>
			<point x="170" y="-176" type="curve" smooth="yes"/>
			<point x="216" y="-129"/>
			<point x="232" y="-76"/>
			<point x="232" y="39" type="curve" smooth="yes"/>
			<point x="232" y="339" type="line"/>
			<point x="236" y="481" type="line"/>
			<point x="220" y="491" type="line"/>
			<point x="18" y="429" type="line"/>
			<point x="18" y="395" type="line"/>
			<point x="79" y="384" type="line"/>
			<point x="80" y="343"/>
			<point x="81" y="311"/>
			<point x="81" y="253" type="curve" smooth="yes"/>
			<point x="81" y="93" type="line" smooth="yes"/>
			<point x="81" y="-12"/>
			<point x="90" y="-101"/>
			<point x="80" y="-155" type="curve" smooth="yes"/>
			<point x="76" y="-177"/>
			<point x="71" y="-187"/>
			<point x="62" y="-200" type="curve"/>
			<point x="62" y="-220" type="line"/>
			<point x="86" y="-220" type="line"/>
			<point x="86" y="-214" type="line"/>
			<point x="57" y="-162" type="line" smooth="yes"/>
			<point x="36" y="-122"/>
			<point x="14" y="-106"/>
			<point x="-19" y="-106" type="curve" smooth="yes"/>
			<point x="-59" y="-106"/>
			<point x="-85" y="-128"/>
			<point x="-93" y="-170" type="curve"/>
			<point x="-81" y="-215"/>
			<point x="-45" y="-240"/>
		</contour>
	</outline>
	<anchor name="aboveLC" x="152" y="496"/>
</glyph>
<glyph name="h.sups" format="2">
	<unicode hex="02B0"/>
	<advance width="407"/>
	<outline>
		<contour>
			<point x="57" y="412" type="line"/>
			<point x="156" y="412" type="line"/>
			<point x="156" y="658" type="line"/>
			<point x="156" y="659" type="line"/>
			<point x="156" y="873" type="line"/>
			<point x="145" y="879" type="line"/>
			<point x="13" y="849" type="line"/>
			<point x="13" y="826" type="line"/>
			<point x="57" y="818" type="line"/>
		</contour>
		<contour>
			<point x="257" y="412" type="line"/>
			<point x="357" y="412" type="line"/>
			<point x="357" y="622" type="line" smooth="yes"/>
			<point x="357" y="696"/>
			<point x="320" y="731"/>
			<point x="262" y="731" type="curve" smooth="yes"/>
			<point x="218" y="731"/>
			<point x="182" y="712"/>
			<point x="144" y="662" type="curve"/>
			<point x="120" y="662" type="line"/>
			<point x="137" y="625" type="line"/>
			<point x="164" y="656"/>
			<point x="193" y="673"/>
			<point x="219" y="673" type="curve" smooth="yes"/>
			<point x="247" y="673"/>
			<point x="257" y="659"/>
			<point x="257" y="615" type="curve" smooth="yes"/>
		</contour>
		<contour>
			<point x="17" y="412" type="line"/>
			<point x="190" y="412" type="line"/>
			<point x="190" y="438" type="line"/>
			<point x="129" y="450" type="line"/>
			<point x="80" y="450" type="line"/>
			<point x="17" y="438" type="line"/>
		</contour>
		<contour>
			<point x="221" y="412" type="line"/>
			<point x="393" y="412" type="line"/>
			<point x="393" y="438" type="line"/>
			<point x="329" y="450" type="line"/>
			<point x="281" y="450" type="line"/>
			<point x="221" y="438" type="line"/>
		</contour>
	</outline>
</glyph>
<glyph name="r.sups" format="2">
	<unicode hex="02B3"/>
	<advance width="310"/>
	<outline>
		<contour>
			<point x="58" y="418" type="line"/>
			<point x="157" y="418" type="line"/>
			<point x="157" y="647" type="line"/>
			<point x="157" y="648" type="line"/>
			<point x="152" y="730" type="line"/>
			<point x="142" y="737" type="line"/>
			<point x="15" y="697" type="line"/>
			<point x="15" y="675" type="line"/>
			<point x="58" y="668" type="line"/>
		</contour>
		<contour>
			<point x="156" y="600" type="line"/>
			<point x="166" y="639"/>
			<point x="187" y="671"/>
			<point x="213" y="688" type="curve"/>
			<point x="185" y="691" type="line"/>
			<point x="200" y="670" type="line" smooth="yes"/>
			<point x="214" y="650"/>
			<point x="231" y="641"/>
			<point x="252" y="641" type="curve" smooth="yes"/>
			<point x="283" y="641"/>
			<point x="303" y="662"/>
			<point x="303" y="695" type="curve"/>
			<point x="297" y="725"/>
			<point x="276" y="737"/>
			<point x="249" y="737" type="curve" smooth="yes"/>
			<point x="210" y="737"/>
			<point x="167" y="700"/>
			<point x="150" y="628" type="curve"/>
			<point x="121" y="628" type="line"/>
		</contour>
		<contour>
			<point x="20" y="418" type="line"/>
			<point x="208" y="418" type="line"/>
			<point x="208" y="444" type="line"/>
			<point x="143" y="456" type="line"/>
			<point x="84" y="456" type="line"/>
			<point x="20" y="444" type="line"/>
		</contour>
	</outline>
</glyph>
<glyph name="w.sups" format="2">
	<unicode hex="02B7"/>
	<advance width="526"/>
	<outline>
		<contour>
			<point x="136" y="416" type="line"/>
			<point x="183" y="416" type="line"/>
			<point x="265" y="639" type="line"/>
			<point x="272" y="659" type="line"/>
			<point x="247" y="648" type="line"/>
			<point x="337" y="416" type="line"/>
			<point x="382" y="416" type="line"/>
			<point x="495" y="726" type="line"/>
			<point x="456" y="726" type="line"/>
			<point x="384" y="514" type="line"/>
			<point x="381" y="502" type="line"/>
			<point x="398" y="499" type="line"/>
			<point x="319" y="726" type="line"/>
			<point x="262" y="726" type="line"/>
			<point x="186" y="513" type="line"/>
			<point x="182" y="502" type="line"/>
			<point x="198" y="499" type="line"/>
			<point x="124" y="726" type="line"/>
			<point x="20" y="726" type="line"/>
		</contour>
		<contour>
			<point x="-1" y="701" type="line"/>
			<point x="61" y="691" type="line"/>
			<point x="103" y="691" type="line"/>
			<point x="174" y="701" type="line"/>
			<point x="174" y="726" type="line"/>
			<point x="-1" y="726" type="line"/>
		</contour>
		<contour>
			<point x="210" y="701" type="line"/>
			<point x="277" y="692" type="line"/>
			<point x="306" y="692" type="line"/>
			<point x="368" y="701" type="line"/>
			<point x="368" y="726" type="line"/>
			<point x="210" y="726" type="line"/>
		</contour>
		<contour>
			<point x="404" y="701" type="line"/>
			<point x="462" y="692" type="line"/>
			<point x="473" y="692" type="line"/>
			<point x="523" y="701" type="line"/>
			<point x="523" y="726" type="line"/>
			<point x="404" y="726" type="line"/>
		</contour>
	</outline>
</glyph>
<glyph name="y.sups" format="2">
	<unicode hex="02B8"/>
	<advance width="349"/>
	<outline>
		<contour>
			<point x="67" y="265" type="curve" smooth="yes"/>
			<point x="126" y="265"/>
			<point x="156" y="306"/>
			<point x="189" y="388" type="curve" smooth="yes"/>
			<point x="322" y="726" type="line"/>
			<point x="285" y="726" type="line"/>
			<point x="189" y="463" type="line"/>
			<point x="164" y="397" type="line" smooth="yes"/>
			<point x="144" y="344"/>
			<point x="123" y="312"/>
			<point x="88" y="293" type="curve"/>
			<point x="106" y="283" type="line"/>
			<point x="128" y="295" type="line"/>
			<point x="105" y="317" type="line" smooth="yes"/>
			<point x="81" y="338"/>
			<point x="67" y="343"/>
			<point x="47" y="343" type="curve" smooth="yes"/>
			<point x="26" y="343"/>
			<point x="8" y="333"/>
			<point x="1" y="312" type="curve"/>
			<point x="4" y="282"/>
			<point x="35" y="265"/>
		</contour>
		<contour>
			<point x="-4" y="701" type="line"/>
			<point x="57" y="689" type="line"/>
			<point x="122" y="689" type="line"/>
			<point x="184" y="701" type="line"/>
			<point x="184" y="726" type="line"/>
			<point x="-4" y="726" type="line"/>
		</contour>
		<contour>
			<point x="228" y="701" type="line"/>
			<point x="284" y="692" type="line"/>
			<point x="295" y="692" type="line"/>
			<point x="348" y="701" type="line"/>
			<point x="348" y="726" type="line"/>
			<point x="228" y="726" type="line"/>
		</contour>
		<contour>
			<point x="168" y="379" type="line"/>
			<point x="209" y="470" type="line"/>
			<point x="215" y="487" type="line"/>
			<point x="124" y="726" type="line"/>
			<point x="18" y="726" type="line"/>
		</contour>
	</outline>
</glyph>
<glyph name="circumflexcmb" format="2">
	<unicode hex="0302"/>
	<outline>
		<contour>
			<point x="134" y="541" type="line"/>
			<point x="165" y="570" type="line"/>
			<point x="31" y="743" type="line"/>
			<point x="-31" y="743" type="line"/>
			<point x="-165" y="570" type="line"/>
			<point x="-134" y="541" type="line"/>
			<point x="39" y="674" type="line"/>
			<point x="-39" y="674" type="line"/>
		</contour>
	</outline>
	<anchor name="_aboveLC" x="0" y="496"/>
	<anchor name="aboveLC" x="0" y="743"/>
</glyph>
<glyph name="tildecmb" format="2">
	<unicode hex="0303"/>
	<outline>
		<contour>
			<point x="-173" y="578" type="curve"/>
			<point x="-137" y="563" type="line"/>
			<point x="-124" y="599"/>
			<point x="-104" y="623"/>
			<point x="-75" y="623" type="curve" smooth="yes"/>
			<point x="-51" y="623"/>
			<point x="-31" y="605"/>
			<point x="-10" y="591" type="curve" smooth="yes"/>
			<point x="12" y="576"/>
			<point x="37" y="563"/>
			<point x="66" y="563" type="curve" smooth="yes"/>
			<point x="120" y="563"/>
			<point x="161" y="613"/>
			<point x="173" y="700" type="curve"/>
			<point x="137" y="715" type="line"/>
			<point x="124" y="679"/>
			<point x="104" y="655"/>
			<point x="75" y="655" type="curve" smooth="yes"/>
			<point x="51" y="655"/>
			<point x="32" y="671"/>
			<point x="9" y="687" type="curve" smooth="yes"/>
			<point x="-11" y="702"/>
			<point x="-35" y="715"/>
			<point x="-65" y="715" type="curve" smooth="yes"/>
			<point x="-120" y="715"/>
			<point x="-161" y="666"/>
		</contour>
	</outline>
	<anchor name="_aboveLC" x="0" y="496"/>
	<anchor name="aboveLC" x="0" y="716"/>
</glyph>
<glyph name="dieresiscmb" format="2">
	<unicode hex="0308"/>
	<outline>
		<contour>
			<point x="-108" y="570" type="curve" smooth="yes"/>
			<point x="-69" y="570"/>
			<point x="-36" y="596"/>
			<point x="-36" y="639" type="curve" smooth="yes"/>
			<point x="-36" y="682"/>
			<point x="-69" y="708"/>
			<point x="-108" y="708" type="curve" smooth="yes"/>
			<point x="-146" y="708"/>
			<point x="-181" y="682"/>
			<point x="-181" y="639" type="curve" smooth="yes"/>
			<point x="-181" y="596"/>
			<point x="-146" y="570"/>
		</contour>
		<contour>
			<point x="108" y="570" type="curve" smooth="yes"/>
			<point x="147" y="570"/>
			<point x="181" y="596"/>
			<point x="181" y="639" type="curve" smooth="yes"/>
			<point x="181" y="682"/>
			<point x="147" y="708"/>
			<point x="108" y="708" type="curve" smooth="yes"/>
			<point x="70" y="708"/>
			<point x="36" y="682"/>
			<point x="36" y="639" type="curve" smooth="yes"/>
			<point x="36" y="596"/>
			<point x="70" y="570"/>
		</contour>
	</outline>
	<anchor name="_aboveLC" x="0" y="496"/>
	<anchor name="aboveLC" x="0" y="708"/>
</glyph>
<glyph name="horncmb" format="2">
	<unicode hex="031B"/>
	<outline>
		<contour>
			<point x="0" y="476" type="line"/>
			<point x="76" y="482"/>
			<point x="139" y="541"/>
			<point x="139" y="637" type="curve" smooth="yes"/>
			<point x="139" y="661"/>
			<point x="135" y="681"/>
			<point x="124" y="701" type="curve"/>
			<point x="109" y="711"/>
			<point x="95" y="715"/>
			<point x="78" y="715" type="curve" smooth="yes"/>
			<point x="48" y="715"/>
			<point x="27" y="692"/>
			<point x="27" y="664" type="curve" smooth="yes"/>
			<point x="27" y="622"/>
			<point x="60" y="612"/>
			<point x="60" y="568" type="curve" smooth="yes"/>
			<point x="60" y="529"/>
			<point x="37" y="510"/>
			<point x="0" y="506" type="curve"/>
		</contour>
	</outline>
	<anchor name="_hornLC" x="0" y="476"/>
</glyph>
<glyph name="commabelowcmb" format="2">
	<unicode hex="0326"/>
	<outline>
		<contour>
			<point x="63" y="-129" type="curve" smooth="yes"/>
			<point x="63" y="-110"/>
			<point x="61" y="-96"/>
			<point x="55" y="-77" type="curve"/>
			<point x="36" y="-61"/>
			<point x="21" y="-56"/>
			<point x="1" y="-56" type="curve" smooth="yes"/>
			<point x="-37" y="-56"/>
			<point x="-63" y="-84"/>
			<point x="-63" y="-119" type="curve" smooth="yes"/>
			<point x="-63" y="-150"/>
			<point x="-45" y="-176"/>
			<point x="13" y="-193" type="curve"/>
			<point x="11" y="-162" type="line"/>
			<point x="-6" y="-197"/>
			<point x="-25" y="-213"/>
			<point x="-66" y="-229" type="curve"/>
			<point x="-53" y="-263" type="line"/>
			<point x="13" y="-241"/>
			<point x="63" y="-203"/>
		</contour>
	</outline>
	<anchor name="_belowLC" x="0" y="-20"/>
	<anchor name="belowLC" x="-1" y="-263"/>
</glyph>
<glyph name="ogonekcmb" format="2">
	<unicode hex="0328"/>
	<outline>
		<contour>
			<point x="-28" y="-226" type="curve" smooth="yes"/>
			<point x="17" y="-226"/>
			<point x="59" y="-208"/>
			<point x="88" y="-176" type="curve"/>
			<point x="76" y="-139" type="line"/>
			<point x="60" y="-146"/>
			<point x="45" y="-149"/>
			<point x="27" y="-149" type="curve" smooth="yes"/>
			<point x="-7" y="-149"/>
			<point x="-28" y="-128"/>
			<point x="-28" y="-90" type="curve" smooth="yes"/>
			<point x="-28" y="-49"/>
			<point x="-10" y="-16"/>
			<point x="33" y="9" type="curve"/>
			<point x="-1" y="12" type="line"/>
			<point x="-1" y="9" type="line"/>
			<point x="-74" y="-20"/>
			<point x="-127" y="-68"/>
			<point x="-127" y="-132" type="curve" smooth="yes"/>
			<point x="-127" y="-186"/>
			<point x="-93" y="-226"/>
		</contour>
	</outline>
	<anchor name="_ogonek" x="0" y="0"/>
</glyph>
<glyph name="Delta" format="2">
	<unicode hex="0394"/>
	<unicode hex="2206"/>
	<advance width="603"/>
	<outline>
		<contour>
			<point x="38" y="0" type="line"/>
			<point x="63" y="0" type="line"/>
			<point x="255" y="528" type="line"/>
			<point x="259" y="537" type="line"/>
			<point x="243" y="537" type="line"/>
			<point x="434" y="0" type="line"/>
			<point x="580" y="0" type="line"/>
			<point x="580" y="67" type="line"/>
			<point x="355" y="659" type="line"/>
			<point x="259" y="659" type="line"/>
			<point x="38" y="67" type="line"/>
		</contour>
		<contour>
			<point x="59" y="0" type="line"/>
			<point x="468" y="0" type="line"/>
			<point x="468" y="104" type="line"/>
			<point x="66" y="104" type="line"/>
		</contour>
	</outline>
</glyph>
<glyph name="Sigma" format="2">
	<unicode hex="03A3"/>
	<advance width="555"/>
	<outline>
		<contour>
			<point x="449" y="469" type="line"/>
			<point x="512" y="469" type="line"/>
			<point x="502" y="657" type="line"/>
			<point x="105" y="657" type="line"/>
			<point x="105" y="609" type="line"/>
			<point x="464" y="609" type="line"/>
			<point x="400" y="654" type="line"/>
		</contour>
		<contour>
			<point x="521" y="0" type="line"/>
			<point x="531" y="248" type="line"/>
			<point x="467" y="248" type="line"/>
			<point x="418" y="67" type="line"/>
			<point x="485" y="110" type="line"/>
			<point x="106" y="110" type="line"/>
			<point x="123" y="86" type="line"/>
			<point x="345" y="359" type="line"/>
			<point x="172" y="642" type="line"/>
			<point x="172" y="657" type="line"/>
			<point x="35" y="657" type="line"/>
			<point x="35" y="614" type="line"/>
			<point x="243" y="278" type="line"/>
			<point x="253" y="344" type="line"/>
			<point x="29" y="68" type="line"/>
			<point x="29" y="0" type="line"/>
		</contour>
	</outline>
</glyph>
<glyph name="Psi" format="2">
	<unicode hex="03A8"/>
	<advance width="818"/>
	<outline>
		<contour>
			<point x="409" y="219" type="curve" smooth="yes"/>
			<point x="655" y="219"/>
			<point x="714" y="293"/>
			<point x="738" y="479" type="curve" smooth="yes"/>
			<point x="748" y="555" type="line" smooth="yes"/>
			<point x="752" y="589"/>
			<point x="763" y="608"/>
			<point x="796" y="611" type="curve" smooth="yes"/>
			<point x="815" y="612" type="line"/>
			<point x="815" y="657" type="line"/>
			<point x="762" y="657" type="line" smooth="yes"/>
			<point x="655" y="657"/>
			<point x="610" y="624"/>
			<point x="601" y="527" type="curve" smooth="yes"/>
			<point x="594" y="457" type="line" smooth="yes"/>
			<point x="579" y="319"/>
			<point x="558" y="263"/>
			<point x="409" y="263" type="curve" smooth="yes"/>
			<point x="260" y="263"/>
			<point x="239" y="319"/>
			<point x="225" y="457" type="curve" smooth="yes"/>
			<point x="218" y="527" type="line" smooth="yes"/>
			<point x="208" y="624"/>
			<point x="163" y="657"/>
			<point x="57" y="657" type="curve" smooth="yes"/>
			<point x="3" y="657" type="line"/>
			<point x="3" y="612" type="line"/>
			<point x="23" y="611" type="line" smooth="yes"/>
			<point x="55" y="608"/>
			<point x="66" y="589"/>
			<point x="71" y="555" type="curve" smooth="yes"/>
			<point x="80" y="479" type="line" smooth="yes"/>
			<point x="104" y="293"/>
			<point x="163" y="219"/>
		</contour>
		<contour>
			<point x="331" y="0" type="curve"/>
			<point x="487" y="0" type="line"/>
			<point x="483" y="96"/>
			<point x="483" y="207"/>
			<point x="483" y="311" type="curve" smooth="yes"/>
			<point x="483" y="349" type="line" smooth="yes"/>
			<point x="483" y="453"/>
			<point x="484" y="563"/>
			<point x="487" y="657" type="curve"/>
			<point x="331" y="657" type="line"/>
			<point x="335" y="561"/>
			<point x="335" y="451"/>
			<point x="335" y="349" type="curve" smooth="yes"/>
			<point x="335" y="310" type="line" smooth="yes"/>
			<point x="335" y="205"/>
			<point x="335" y="95"/>
		</contour>
		<contour>
			<point x="260" y="0" type="line"/>
			<point x="559" y="0" type="line"/>
			<point x="559" y="45" type="line"/>
			<point x="428" y="60" type="line"/>
			<point x="389" y="60" type="line"/>
			<point x="260" y="45" type="line"/>
		</contour>
		<contour>
			<point x="270" y="612" type="line"/>
			<point x="389" y="598" type="line"/>
			<point x="428" y="598" type="line"/>
			<point x="548" y="612" type="line"/>
			<point x="548" y="657" type="line"/>
			<point x="270" y="657" type="line"/>
		</contour>
	</outline>
</glyph>
<glyph name="delta" format="2">
	<unicode hex="03B4"/>
	<advance width="538"/>
	<outline>
		<contour>
			<point x="263" y="-15" type="curve" smooth="yes"/>
			<point x="392" y="-15"/>
			<point x="506" y="77"/>
			<point x="506" y="223" type="curve" smooth="yes"/>
			<point x="506" y="335"/>
			<point x="449" y="406"/>
			<point x="335" y="486" type="curve" smooth="yes"/>
			<point x="231" y="560"/>
			<point x="194" y="582"/>
			<point x="194" y="626" type="curve" smooth="yes"/>
			<point x="194" y="665"/>
			<point x="227" y="689"/>
			<point x="277" y="689" type="curve" smooth="yes"/>
			<point x="303" y="689"/>
			<point x="324" y="680"/>
			<point x="336" y="673" type="curve"/>
			<point x="334" y="696" type="line"/>
			<point x="274" y="700" type="line"/>
			<point x="337" y="618" type="line" smooth="yes"/>
			<point x="369" y="576"/>
			<point x="393" y="566"/>
			<point x="422" y="566" type="curve" smooth="yes"/>
			<point x="463" y="566"/>
			<point x="484" y="592"/>
			<point x="486" y="624" type="curve"/>
			<point x="467" y="678"/>
			<point x="389" y="726"/>
			<point x="281" y="726" type="curve" smooth="yes"/>
			<point x="158" y="726"/>
			<point x="83" y="667"/>
			<point x="83" y="577" type="curve" smooth="yes"/>
			<point x="83" y="507"/>
			<point x="124" y="467"/>
			<point x="238" y="391" type="curve" smooth="yes"/>
			<point x="320" y="336"/>
			<point x="361" y="273"/>
			<point x="361" y="184" type="curve" smooth="yes"/>
			<point x="361" y="86"/>
			<point x="330" y="29"/>
			<point x="273" y="29" type="curve" smooth="yes"/>
			<point x="218" y="29"/>
			<point x="179" y="81"/>
			<point x="179" y="192" type="curve" smooth="yes"/>
			<point x="179" y="299"/>
			<point x="216" y="359"/>
			<point x="294" y="392" type="curve"/>
			<point x="259" y="430" type="line"/>
			<point x="259" y="417" type="line"/>
			<point x="133" y="401"/>
			<point x="24" y="336"/>
			<point x="24" y="192" type="curve" smooth="yes"/>
			<point x="24" y="76"/>
			<point x="109" y="-15"/>
		</contour>
	</outline>
</glyph>
<glyph name="epsilon" format="2">
	<unicode hex="03B5"/>
	<advance width="480"/>
	<outline>
		<contour>
			<point x="238" y="-15" type="curve" smooth="yes"/>
			<point x="336" y="-15"/>
			<point x="420" y="28"/>
			<point x="464" y="98" type="curve"/>
			<point x="437" y="127" type="line"/>
			<point x="384" y="84"/>
			<point x="331" y="73"/>
			<point x="280" y="73" type="curve" smooth="yes"/>
			<point x="212" y="73"/>
			<point x="181" y="107"/>
			<point x="181" y="144" type="curve" smooth="yes"/>
			<point x="181" y="184"/>
			<point x="214" y="214"/>
			<point x="286" y="214" type="curve" smooth="yes"/>
			<point x="302" y="214"/>
			<point x="314" y="214"/>
			<point x="346" y="212" type="curve"/>
			<point x="346" y="291" type="line"/>
			<point x="316" y="289"/>
			<point x="305" y="288"/>
			<point x="285" y="288" type="curve" smooth="yes"/>
			<point x="213" y="288"/>
			<point x="181" y="323"/>
			<point x="181" y="368" type="curve" smooth="yes"/>
			<point x="181" y="417"/>
			<point x="217" y="444"/>
			<point x="265" y="444" type="curve" smooth="yes"/>
			<point x="282" y="444"/>
			<point x="304" y="447"/>
			<point x="332" y="440" type="curve"/>
			<point x="312" y="464" type="line"/>
			<point x="256" y="458" type="line"/>
			<point x="303" y="409" type="line" smooth="yes"/>
			<point x="340" y="371"/>
			<point x="361" y="360"/>
			<point x="391" y="360" type="curve" smooth="yes"/>
			<point x="427" y="360"/>
			<point x="447" y="382"/>
			<point x="447" y="420" type="curve"/>
			<point x="430" y="463"/>
			<point x="357" y="491"/>
			<point x="265" y="491" type="curve" smooth="yes"/>
			<point x="121" y="491"/>
			<point x="52" y="436"/>
			<point x="52" y="359" type="curve" smooth="yes"/>
			<point x="52" y="292"/>
			<point x="110" y="240"/>
			<point x="224" y="237" type="curve"/>
			<point x="226" y="253" type="line"/>
			<point x="86" y="245"/>
			<point x="34" y="183"/>
			<point x="34" y="116" type="curve" smooth="yes"/>
			<point x="34" y="30"/>
			<point x="125" y="-15"/>
		</contour>
	</outline>
	<anchor name="aboveLC" x="267" y="496"/>
	<anchor name="belowLC" x="248" y="-20"/>
</glyph>
<glyph name="zeta" format="2">
	<unicode hex="03B6"/>
	<advance width="434"/>
	<outline>
		<contour>
			<point x="276" y="-205" type="curve"/>
			<point x="330" y="-205" type="line"/>
			<point x="381" y="-142"/>
			<point x="410" y="-86"/>
			<point x="410" y="-31" type="curve" smooth="yes"/>
			<point x="410" y="40"/>
			<point x="373" y="75"/>
			<point x="274" y="108" type="curve" smooth="yes"/>
			<point x="185" y="137"/>
			<point x="157" y="163"/>
			<point x="157" y="218" type="curve" smooth="yes"/>
			<point x="157" y="329"/>
			<point x="274" y="476"/>
			<point x="422" y="645" type="curve"/>
			<point x="414" y="718" type="line"/>
			<point x="52" y="737" type="line"/>
			<point x="52" y="615" type="line"/>
			<point x="352" y="618" type="line"/>
			<point x="341" y="645" type="line"/>
			<point x="123" y="435"/>
			<point x="26" y="308"/>
			<point x="26" y="182" type="curve" smooth="yes"/>
			<point x="26" y="83"/>
			<point x="89" y="31"/>
			<point x="209" y="-6" type="curve" smooth="yes"/>
			<point x="288" y="-31"/>
			<point x="309" y="-45"/>
			<point x="309" y="-84" type="curve" smooth="yes"/>
			<point x="309" y="-119"/>
			<point x="295" y="-161"/>
		</contour>
	</outline>
</glyph>
<glyph name="theta" format="2">
	<unicode hex="03B8"/>
	<advance width="526"/>
	<outline>
		<contour>
			<point x="259" y="-15" type="curve" smooth="yes"/>
			<point x="122" y="-15"/>
			<point x="35" y="91"/>
			<point x="35" y="338" type="curve" smooth="yes"/>
			<point x="35" y="616"/>
			<point x="139" y="727"/>
			<point x="269" y="727" type="curve" smooth="yes"/>
			<point x="407" y="727"/>
			<point x="491" y="615"/>
			<point x="491" y="367" type="curve" smooth="yes"/>
			<point x="491" y="93"/>
			<point x="392" y="-15"/>
		</contour>
		<contour>
			<point x="269" y="32" type="curve" smooth="yes"/>
			<point x="321" y="32"/>
			<point x="350" y="83"/>
			<point x="350" y="336" type="curve" smooth="yes"/>
			<point x="350" y="584"/>
			<point x="310" y="679"/>
			<point x="259" y="679" type="curve" smooth="yes"/>
			<point x="205" y="679"/>
			<point x="176" y="627"/>
			<point x="176" y="383" type="curve" smooth="yes"/>
			<point x="176" y="126"/>
			<point x="215" y="32"/>
		</contour>
		<contour>
			<point x="90" y="328" type="line"/>
			<point x="90" y="395" type="line"/>
			<point x="438" y="395" type="line"/>
			<point x="438" y="328" type="line"/>
		</contour>
	</outline>
</glyph>
<glyph name="kappa" format="2">
	<unicode hex="03BA"/>
	<advance width="554"/>
	<outline>
		<contour>
			<point x="85" y="-14" type="line"/>
			<point x="219" y="2" type="line"/>
			<point x="221" y="62"/>
			<point x="222" y="143"/>
			<point x="224" y="212" type="curve"/>
			<point x="221" y="215" type="line"/>
			<point x="223" y="264"/>
			<point x="225" y="315"/>
			<point x="225" y="361" type="curve" smooth="yes"/>
			<point x="226" y="449"/>
			<point x="191" y="487"/>
			<point x="125" y="487" type="curve" smooth="yes"/>
			<point x="75" y="487"/>
			<point x="33" y="460"/>
			<point x="9" y="421" type="curve"/>
			<point x="22" y="392" type="line"/>
			<point x="31" y="395"/>
			<point x="42" y="396"/>
			<point x="51" y="396" type="curve" smooth="yes"/>
			<point x="81" y="396"/>
			<point x="92" y="377"/>
			<point x="91" y="328" type="curve" smooth="yes"/>
			<point x="89" y="194" type="line"/>
			<point x="69" y="1" type="line"/>
		</contour>
		<contour>
			<point x="191" y="117" type="line"/>
			<point x="220" y="173"/>
			<point x="247" y="217"/>
			<point x="275" y="261" type="curve"/>
			<point x="283" y="272" type="line"/>
			<point x="319" y="319"/>
			<point x="359" y="361"/>
			<point x="406" y="396" type="curve"/>
			<point x="319" y="344" type="line"/>
			<point x="418" y="351" type="line" smooth="yes"/>
			<point x="486" y="356"/>
			<point x="528" y="378"/>
			<point x="528" y="427" type="curve" smooth="yes"/>
			<point x="528" y="468"/>
			<point x="506" y="487"/>
			<point x="479" y="492" type="curve"/>
			<point x="442" y="487"/>
			<point x="408" y="471"/>
			<point x="367" y="438" type="curve" smooth="yes"/>
			<point x="308" y="387"/>
			<point x="232" y="278"/>
			<point x="181" y="180" type="curve"/>
			<point x="165" y="152" type="line"/>
			<point x="150" y="152" type="line"/>
		</contour>
		<contour>
			<point x="432" y="-15" type="curve" smooth="yes"/>
			<point x="485" y="-15"/>
			<point x="524" y="37"/>
			<point x="538" y="88" type="curve"/>
			<point x="525" y="114" type="line"/>
			<point x="513" y="108"/>
			<point x="497" y="104"/>
			<point x="476" y="104" type="curve" smooth="yes"/>
			<point x="429" y="104"/>
			<point x="384" y="143"/>
			<point x="287" y="304" type="curve"/>
			<point x="257" y="275" type="line"/>
			<point x="342" y="19"/>
			<point x="379" y="-15"/>
		</contour>
	</outline>
</glyph>
<glyph name="lambda" format="2">
	<unicode hex="03BB"/>
	<advance width="580"/>
	<outline>
		<contour>
			<point x="22" y="-2" type="line"/>
			<point x="181" y="-11" type="line"/>
			<point x="327" y="365" type="line"/>
			<point x="276" y="529" type="line"/>
			<point x="15" y="11" type="line"/>
		</contour>
		<contour>
			<point x="490" y="-15" type="curve" smooth="yes"/>
			<point x="542" y="-15"/>
			<point x="577" y="40"/>
			<point x="588" y="87" type="curve"/>
			<point x="576" y="113" type="line"/>
			<point x="562" y="107"/>
			<point x="544" y="104"/>
			<point x="527" y="104" type="curve" smooth="yes"/>
			<point x="478" y="104"/>
			<point x="439" y="126"/>
			<point x="410" y="215" type="curve" smooth="yes"/>
			<point x="291" y="584" type="line" smooth="yes"/>
			<point x="258" y="687"/>
			<point x="219" y="727"/>
			<point x="151" y="727" type="curve" smooth="yes"/>
			<point x="89" y="727"/>
			<point x="39" y="683"/>
			<point x="18" y="618" type="curve"/>
			<point x="44" y="581" type="line"/>
			<point x="72" y="599"/>
			<point x="108" y="613"/>
			<point x="150" y="613" type="curve" smooth="yes"/>
			<point x="208" y="613"/>
			<point x="243" y="587"/>
			<point x="267" y="507" type="curve" smooth="yes"/>
			<point x="298" y="397" type="line"/>
			<point x="301" y="393" type="line"/>
			<point x="363" y="146" type="line" smooth="yes"/>
			<point x="396" y="17"/>
			<point x="432" y="-15"/>
		</contour>
	</outline>
</glyph>
<glyph name="nu" format="2">
	<unicode hex="03BD"/>
	<advance width="528"/>
	<outline>
		<contour>
			<point x="209" y="-2" type="curve"/>
			<point x="321" y="-2" type="line"/>
			<point x="399" y="133"/>
			<point x="494" y="299"/>
			<point x="494" y="411" type="curve" smooth="yes"/>
			<point x="494" y="437"/>
			<point x="491" y="451"/>
			<point x="485" y="471" type="curve"/>
			<point x="470" y="486"/>
			<point x="457" y="492"/>
			<point x="426" y="492" type="curve" smooth="yes"/>
			<point x="387" y="492"/>
			<point x="357" y="461"/>
			<point x="357" y="407" type="curve" smooth="yes"/>
			<point x="357" y="364"/>
			<point x="371" y="307"/>
			<point x="414" y="209" type="curve"/>
			<point x="416" y="344" type="line"/>
			<point x="390" y="231"/>
			<point x="346" y="132"/>
			<point x="302" y="53" type="curve"/>
			<point x="294" y="38" type="line"/>
			<point x="314" y="38" type="line"/>
			<point x="304" y="127"/>
			<point x="287" y="209"/>
			<point x="266" y="300" type="curve" smooth="yes"/>
			<point x="235" y="440"/>
			<point x="195" y="488"/>
			<point x="128" y="488" type="curve" smooth="yes"/>
			<point x="79" y="488"/>
			<point x="33" y="463"/>
			<point x="2" y="416" type="curve"/>
			<point x="16" y="387" type="line"/>
			<point x="26" y="392"/>
			<point x="36" y="394"/>
			<point x="49" y="394" type="curve" smooth="yes"/>
			<point x="77" y="394"/>
			<point x="98" y="363"/>
			<point x="129" y="263" type="curve" smooth="yes"/>
			<point x="158" y="174"/>
			<point x="185" y="90"/>
		</contour>
	</outline>
</glyph>
<glyph name="omicron" format="2">
	<unicode hex="03BF"/>
	<advance width="542"/>
	<outline>
		<contour>
			<point x="265" y="-15" type="curve" smooth="yes"/>
			<point x="403" y="-15"/>
			<point x="511" y="82"/>
			<point x="511" y="246" type="curve" smooth="yes"/>
			<point x="511" y="407"/>
			<point x="413" y="491"/>
			<point x="277" y="491" type="curve" smooth="yes"/>
			<point x="137" y="491"/>
			<point x="31" y="397"/>
			<point x="31" y="235" type="curve" smooth="yes"/>
			<point x="31" y="71"/>
			<point x="133" y="-15"/>
		</contour>
		<contour>
			<point x="281" y="35" type="curve" smooth="yes"/>
			<point x="226" y="35"/>
			<point x="178" y="109"/>
			<point x="178" y="282" type="curve" smooth="yes"/>
			<point x="178" y="384"/>
			<point x="204" y="442"/>
			<point x="259" y="442" type="curve" smooth="yes"/>
			<point x="316" y="442"/>
			<point x="364" y="365"/>
			<point x="364" y="191" type="curve" smooth="yes"/>
			<point x="364" y="93"/>
			<point x="338" y="35"/>
		</contour>
	</outline>
	<anchor name="aboveLC" x="271" y="496"/>
</glyph>
<glyph name="rho" format="2">
	<unicode hex="03C1"/>
	<advance width="573"/>
	<outline>
		<contour>
			<point x="53" y="-183" type="line"/>
			<point x="69" y="-199" type="line"/>
			<point x="226" y="-170" type="line"/>
			<point x="198" y="62" type="line"/>
			<point x="200" y="74" type="line"/>
			<point x="200" y="281" type="line" smooth="yes"/>
			<point x="201" y="395"/>
			<point x="230" y="442"/>
			<point x="286" y="442" type="curve" smooth="yes"/>
			<point x="348" y="442"/>
			<point x="380" y="347"/>
			<point x="380" y="238" type="curve" smooth="yes"/>
			<point x="380" y="102"/>
			<point x="343" y="54"/>
			<point x="282" y="54" type="curve" smooth="yes"/>
			<point x="240" y="54"/>
			<point x="209" y="69"/>
			<point x="171" y="133" type="curve"/>
			<point x="164" y="122" type="line"/>
			<point x="165" y="119" type="line"/>
			<point x="190" y="36"/>
			<point x="241" y="-15"/>
			<point x="319" y="-15" type="curve" smooth="yes"/>
			<point x="432" y="-15"/>
			<point x="527" y="77"/>
			<point x="527" y="247" type="curve" smooth="yes"/>
			<point x="527" y="398"/>
			<point x="446" y="491"/>
			<point x="298" y="491" type="curve" smooth="yes"/>
			<point x="147" y="491"/>
			<point x="63" y="398"/>
			<point x="62" y="216" type="curve" smooth="yes"/>
			<point x="60" y="49" type="line"/>
		</contour>
	</outline>
	<anchor name="aboveLC" x="298" y="496"/>
</glyph>
<glyph name="sigma" format="2">
	<unicode hex="03C3"/>
	<advance width="615"/>
	<outline>
		<contour>
			<point x="265" y="-15" type="curve" smooth="yes"/>
			<point x="414" y="-15"/>
			<point x="506" y="94"/>
			<point x="506" y="217" type="curve" smooth="yes"/>
			<point x="506" y="329"/>
			<point x="423" y="416"/>
			<point x="284" y="434" type="curve"/>
			<point x="267" y="428" type="line"/>
			<point x="332" y="403"/>
			<point x="365" y="307"/>
			<point x="365" y="201" type="curve" smooth="yes"/>
			<point x="365" y="107"/>
			<point x="339" y="35"/>
			<point x="282" y="35" type="curve" smooth="yes"/>
			<point x="217" y="35"/>
			<point x="178" y="124"/>
			<point x="178" y="256" type="curve" smooth="yes"/>
			<point x="178" y="353"/>
			<point x="220" y="417"/>
			<point x="293" y="426" type="curve"/>
			<point x="341" y="397" type="line"/>
			<point x="595" y="373" type="line"/>
			<point x="589" y="489" type="line"/>
			<point x="335" y="482" type="line" smooth="yes"/>
			<point x="129" y="475"/>
			<point x="31" y="389"/>
			<point x="31" y="230" type="curve" smooth="yes"/>
			<point x="31" y="74"/>
			<point x="132" y="-15"/>
		</contour>
	</outline>
</glyph>
<glyph name="koppa" format="2">
	<unicode hex="03D9"/>
	<advance width="539"/>
	<outline>
		<contour>
			<point x="223" y="-199" type="line"/>
			<point x="361" y="-174" type="line"/>
			<point x="335" y="24" type="line"/>
			<point x="223" y="24" type="line"/>
			<point x="205" y="-185" type="line"/>
		</contour>
		<component base="omicron"/>
	</outline>
	<anchor name="aboveLC" x="273" y="496"/>
</glyph>
<glyph name="stigma" format="2">
	<unicode hex="03DB"/>
	<advance width="475"/>
	<outline>
		<contour>
			<point x="287" y="-205" type="curve"/>
			<point x="345" y="-205" type="line"/>
			<point x="396" y="-142"/>
			<point x="424" y="-91"/>
			<point x="424" y="-36" type="curve" smooth="yes"/>
			<point x="424" y="37"/>
			<point x="391" y="73"/>
			<point x="275" y="112" type="curve" smooth="yes"/>
			<point x="160" y="149"/>
			<point x="109" y="172"/>
			<point x="109" y="237" type="curve" smooth="yes"/>
			<point x="109" y="293"/>
			<point x="139" y="327"/>
			<point x="231" y="334" type="curve" smooth="yes"/>
			<point x="292" y="339" type="line" smooth="yes"/>
			<point x="391" y="346"/>
			<point x="422" y="372"/>
			<point x="457" y="516" type="curve" smooth="yes"/>
			<point x="471" y="573" type="line"/>
			<point x="419" y="582" type="line"/>
			<point x="404" y="542" type="line" smooth="yes"/>
			<point x="390" y="505"/>
			<point x="378" y="483"/>
			<point x="322" y="477" type="curve" smooth="yes"/>
			<point x="239" y="468" type="line" smooth="yes"/>
			<point x="128" y="457"/>
			<point x="34" y="392"/>
			<point x="34" y="224" type="curve" smooth="yes"/>
			<point x="34" y="88"/>
			<point x="94" y="31"/>
			<point x="208" y="-7" type="curve" smooth="yes"/>
			<point x="298" y="-37"/>
			<point x="321" y="-48"/>
			<point x="321" y="-91" type="curve" smooth="yes"/>
			<point x="321" y="-123"/>
			<point x="307" y="-161"/>
		</contour>
	</outline>
</glyph>
<glyph name="digamma" format="2">
	<unicode hex="03DD"/>
	<advance width="454"/>
	<outline>
		<contour>
			<point x="60" y="-185" type="line"/>
			<point x="77" y="-199" type="line"/>
			<point x="219" y="-174" type="line"/>
			<point x="207" y="101" type="line"/>
			<point x="209" y="198"/>
			<point x="213" y="290"/>
			<point x="220" y="455" type="curve"/>
			<point x="177" y="422" type="line"/>
			<point x="437" y="405" type="line"/>
			<point x="437" y="483" type="line"/>
			<point x="65" y="467" type="line"/>
			<point x="88" y="115" type="line"/>
		</contour>
		<contour>
			<point x="122" y="153" type="line"/>
			<point x="409" y="130" type="line"/>
			<point x="409" y="208" type="line"/>
			<point x="122" y="203" type="line"/>
		</contour>
	</outline>
	<anchor name="aboveLC" x="265" y="496"/>
</glyph>
<glyph name="De" format="2">
	<unicode hex="0414"/>
	<advance width="693"/>
	<outline>
		<contour>
			<point x="12" y="-185" type="line"/>
			<point x="74" y="-185" type="line"/>
			<point x="113" y="46" type="line"/>
			<point x="56" y="0" type="line"/>
			<point x="624" y="0" type="line"/>
			<point x="571" y="46" type="line"/>
			<point x="609" y="-185" type="line"/>
			<point x="671" y="-185" type="line"/>
			<point x="676" y="50" type="line"/>
			<point x="6" y="50" type="line"/>
		</contour>
		<contour>
			<point x="154" y="612" type="line"/>
			<point x="261" y="598" type="line"/>
			<point x="271" y="598" type="line"/>
			<point x="272" y="657" type="line"/>
			<point x="154" y="657" type="line"/>
		</contour>
		<contour>
			<point x="267" y="607" type="line"/>
			<point x="485" y="607" type="line"/>
			<point x="485" y="657" type="line"/>
			<point x="267" y="657" type="line"/>
		</contour>
		<contour>
			<point x="413" y="0" type="curve"/>
			<point x="580" y="0" type="line"/>
			<point x="577" y="95"/>
			<point x="577" y="205"/>
			<point x="577" y="310" type="curve" smooth="yes"/>
			<point x="577" y="349" type="line" smooth="yes"/>
			<point x="577" y="451"/>
			<point x="577" y="561"/>
			<point x="581" y="657" type="curve"/>
			<point x="413" y="657" type="line"/>
			<point x="417" y="563"/>
			<point x="417" y="453"/>
			<point x="417" y="348" type="curve" smooth="yes"/>
			<point x="417" y="310" type="line" smooth="yes"/>
			<point x="417" y="207"/>
			<point x="417" y="96"/>
		</contour>
		<contour>
			<point x="487" y="598" type="line"/>
			<point x="517" y="598" type="line"/>
			<point x="651" y="612" type="line"/>
			<point x="651" y="657" type="line"/>
			<point x="486" y="657" type="line"/>
		</contour>
		<contour>
			<point x="70" y="50" type="curve"/>
			<point x="136" y="26" type="line"/>
			<point x="136" y="37" type="line"/>
			<point x="169" y="82"/>
			<point x="199" y="140"/>
			<point x="222" y="212" type="curve" smooth="yes"/>
			<point x="261" y="330"/>
			<point x="287" y="481"/>
			<point x="296" y="657" type="curve"/>
			<point x="241" y="657" type="line"/>
			<point x="227" y="373"/>
			<point x="170" y="162"/>
		</contour>
	</outline>
</glyph>
<glyph name="Ze" format="2">
	<unicode hex="0417"/>
	<advance width="549"/>
	<outline>
		<contour>
			<point x="250" y="-18" type="curve" smooth="yes"/>
			<point x="422" y="-18"/>
			<point x="520" y="65"/>
			<point x="520" y="178" type="curve" smooth="yes"/>
			<point x="520" y="276"/>
			<point x="458" y="343"/>
			<point x="293" y="355" type="curve"/>
			<point x="293" y="343" type="line"/>
			<point x="453" y="362"/>
			<point x="499" y="434"/>
			<point x="499" y="506" type="curve" smooth="yes"/>
			<point x="499" y="606"/>
			<point x="410" y="675"/>
			<point x="265" y="675" type="curve" smooth="yes"/>
			<point x="178" y="675"/>
			<point x="111" y="662"/>
			<point x="64" y="638" type="curve"/>
			<point x="66" y="485" type="line"/>
			<point x="139" y="485" type="line"/>
			<point x="179" y="648" type="line"/>
			<point x="134" y="633" type="line"/>
			<point x="129" y="609" type="line"/>
			<point x="160" y="622"/>
			<point x="186" y="627"/>
			<point x="217" y="627" type="curve" smooth="yes"/>
			<point x="292" y="627"/>
			<point x="348" y="586"/>
			<point x="348" y="493" type="curve" smooth="yes"/>
			<point x="348" y="412"/>
			<point x="301" y="365"/>
			<point x="206" y="365" type="curve" smooth="yes"/>
			<point x="179" y="365" type="line"/>
			<point x="179" y="315" type="line"/>
			<point x="220" y="315" type="line" smooth="yes"/>
			<point x="310" y="315"/>
			<point x="354" y="266"/>
			<point x="354" y="178" type="curve" smooth="yes"/>
			<point x="354" y="78"/>
			<point x="303" y="30"/>
			<point x="212" y="30" type="curve" smooth="yes"/>
			<point x="181" y="30"/>
			<point x="152" y="35"/>
			<point x="119" y="48" type="curve"/>
			<point x="171" y="9" type="line"/>
			<point x="157" y="102" type="line" smooth="yes"/>
			<point x="146" y="168"/>
			<point x="123" y="188"/>
			<point x="85" y="188" type="curve" smooth="yes"/>
			<point x="60" y="188"/>
			<point x="37" y="175"/>
			<point x="25" y="145" type="curve"/>
			<point x="31" y="41"/>
			<point x="106" y="-18"/>
		</contour>
	</outline>
	<anchor name="aboveUC" x="271" y="677"/>
</glyph>
<glyph name="Icyr" format="2">
	<unicode hex="0418"/>
	<advance width="756"/>
	<outline>
		<contour>
			<point x="102" y="0" type="curve"/>
			<point x="257" y="0" type="line"/>
			<point x="262" y="337" type="line" smooth="yes"/>
			<point x="262" y="445"/>
			<point x="262" y="552"/>
			<point x="264" y="657" type="curve"/>
			<point x="102" y="657" type="line"/>
			<point x="105" y="561"/>
			<point x="105" y="451"/>
			<point x="105" y="349" type="curve" smooth="yes"/>
			<point x="105" y="310" type="line" smooth="yes"/>
			<point x="105" y="205"/>
			<point x="105" y="95"/>
		</contour>
		<contour>
			<point x="492" y="0" type="curve"/>
			<point x="655" y="0" type="line"/>
			<point x="651" y="96"/>
			<point x="651" y="207"/>
			<point x="651" y="310" type="curve" smooth="yes"/>
			<point x="651" y="349" type="line" smooth="yes"/>
			<point x="651" y="453"/>
			<point x="651" y="563"/>
			<point x="655" y="657" type="curve"/>
			<point x="499" y="657" type="line"/>
			<point x="494" y="327" type="line" smooth="yes"/>
			<point x="494" y="214"/>
			<point x="494" y="106"/>
		</contour>
		<contour>
			<point x="31" y="0" type="line"/>
			<point x="337" y="0" type="line"/>
			<point x="337" y="45" type="line"/>
			<point x="202" y="60" type="line"/>
			<point x="162" y="60" type="line"/>
			<point x="31" y="45" type="line"/>
		</contour>
		<contour>
			<point x="31" y="612" type="line"/>
			<point x="162" y="598" type="line"/>
			<point x="202" y="598" type="line"/>
			<point x="337" y="612" type="line"/>
			<point x="337" y="657" type="line"/>
			<point x="31" y="657" type="line"/>
		</contour>
		<contour>
			<point x="420" y="0" type="line"/>
			<point x="725" y="0" type="line"/>
			<point x="725" y="45" type="line"/>
			<point x="592" y="60" type="line"/>
			<point x="552" y="60" type="line"/>
			<point x="420" y="45" type="line"/>
		</contour>
		<contour>
			<point x="420" y="612" type="line"/>
			<point x="552" y="598" type="line"/>
			<point x="592" y="598" type="line"/>
			<point x="725" y="612" type="line"/>
			<point x="725" y="657" type="line"/>
			<point x="420" y="657" type="line"/>
		</contour>
		<contour>
			<point x="222" y="57" type="line"/>
			<point x="383" y="292" type="line"/>
			<point x="543" y="525" type="line"/>
			<point x="564" y="525" type="line"/>
			<point x="535" y="601" type="line"/>
			<point x="371" y="362" type="line"/>
			<point x="206" y="122" type="line"/>
			<point x="187" y="122" type="line"/>
		</contour>
	</outline>
	<anchor name="aboveUC" x="378" y="677"/>
</glyph>
<glyph name="Ucyr" format="2">
	<unicode hex="0423"/>
	<advance width="648"/>
	<outline>
		<contour>
			<point x="81" y="1" type="curve"/>
			<point x="89" y="-50"/>
			<point x="127" y="-76"/>
			<point x="181" y="-76" type="curve" smooth="yes"/>
			<point x="271" y="-76"/>
			<point x="320" y="2"/>
			<point x="371" y="120" type="curve" smooth="yes"/>
			<point x="602" y="657" type="line"/>
			<point x="540" y="657" type="line"/>
			<point x="435" y="398" type="line"/>
			<point x="338" y="159" type="line"/>
			<point x="337" y="156" type="line" smooth="yes"/>
			<point x="299" y="65"/>
			<point x="271" y="14"/>
			<point x="214" y="-20" type="curve"/>
			<point x="218" y="-46" type="line"/>
			<point x="270" y="-1" type="line"/>
			<point x="232" y="46"/>
			<point x="199" y="68"/>
			<point x="161" y="68" type="curve" smooth="yes"/>
			<point x="123" y="68"/>
			<point x="91" y="48"/>
		</contour>
		<contour>
			<point x="8" y="612" type="line"/>
			<point x="133" y="598" type="line"/>
			<point x="189" y="598" type="line"/>
			<point x="314" y="612" type="line"/>
			<point x="314" y="657" type="line"/>
			<point x="8" y="657" type="line"/>
		</contour>
		<contour>
			<point x="449" y="612" type="line"/>
			<point x="536" y="600" type="line"/>
			<point x="558" y="600" type="line"/>
			<point x="642" y="612" type="line"/>
			<point x="642" y="657" type="line"/>
			<point x="449" y="657" type="line"/>
		</contour>
		<contour>
			<point x="311" y="54" type="line"/>
			<point x="390" y="224" type="line"/>
			<point x="220" y="657" type="line"/>
			<point x="41" y="657" type="line"/>
		</contour>
	</outline>
	<anchor name="aboveUC" x="380" y="677"/>
</glyph>
<glyph name="Ef" format="2">
	<unicode hex="0424"/>
	<advance width="755"/>
	<outline>
		<contour>
			<point x="321" y="102" type="curve" smooth="yes"/>
			<point x="375" y="102" type="line"/>
			<point x="375" y="151" type="line"/>
			<point x="318" y="151" type="line" smooth="yes"/>
			<point x="230" y="151"/>
			<point x="176" y="225"/>
			<point x="176" y="332" type="curve" smooth="yes"/>
			<point x="176" y="444"/>
			<point x="222" y="516"/>
			<point x="317" y="516" type="curve" smooth="yes"/>
			<point x="375" y="516" type="line"/>
			<point x="375" y="564" type="line"/>
			<point x="317" y="564" type="line"/>
			<point x="125" y="564"/>
			<point x="29" y="469"/>
			<point x="29" y="335" type="curve" smooth="yes"/>
			<point x="29" y="190"/>
			<point x="128" y="102"/>
		</contour>
		<contour>
			<point x="380" y="102" type="line"/>
			<point x="435" y="102" type="line" smooth="yes"/>
			<point x="627" y="102"/>
			<point x="726" y="191"/>
			<point x="726" y="335" type="curve" smooth="yes"/>
			<point x="726" y="469"/>
			<point x="631" y="564"/>
			<point x="438" y="564" type="curve"/>
			<point x="380" y="564" type="line"/>
			<point x="380" y="516" type="line"/>
			<point x="438" y="516" type="line" smooth="yes"/>
			<point x="533" y="516"/>
			<point x="579" y="444"/>
			<point x="579" y="332" type="curve" smooth="yes"/>
			<point x="579" y="225"/>
			<point x="525" y="151"/>
			<point x="437" y="151" type="curve" smooth="yes"/>
			<point x="380" y="151" type="line"/>
		</contour>
		<contour>
			<point x="230" y="-16" type="line"/>
			<point x="525" y="-16" type="line"/>
			<point x="525" y="28" type="line"/>
			<point x="408" y="43" type="line"/>
			<point x="359" y="43" type="line"/>
			<point x="230" y="28" type="line"/>
		</contour>
		<contour>
			<point x="355" y="612" type="line"/>
			<point x="401" y="612" type="line"/>
			<point x="525" y="627" type="line"/>
			<point x="525" y="672" type="line"/>
			<point x="230" y="672" type="line"/>
			<point x="230" y="627" type="line"/>
		</contour>
		<contour>
			<point x="306" y="-16" type="line"/>
			<point x="449" y="-16" type="line"/>
			<point x="449" y="672" type="line"/>
			<point x="306" y="672" type="line"/>
		</contour>
	</outline>
</glyph>
<glyph name="Tse" format="2">
	<unicode hex="0426"/>
	<advance width="740"/>
	<outline>
		<contour>
			<point x="101" y="0" type="curve"/>
			<point x="268" y="0" type="line"/>
			<point x="265" y="95"/>
			<point x="265" y="205"/>
			<point x="265" y="310" type="curve" smooth="yes"/>
			<point x="265" y="348" type="line" smooth="yes"/>
			<point x="265" y="451"/>
			<point x="265" y="561"/>
			<point x="268" y="657" type="curve"/>
			<point x="101" y="657" type="line"/>
			<point x="104" y="563"/>
			<point x="105" y="453"/>
			<point x="105" y="349" type="curve" smooth="yes"/>
			<point x="105" y="310" type="line" smooth="yes"/>
			<point x="105" y="207"/>
			<point x="104" y="96"/>
		</contour>
		<contour>
			<point x="460" y="0" type="curve"/>
			<point x="627" y="0" type="line"/>
			<point x="624" y="95"/>
			<point x="624" y="205"/>
			<point x="624" y="310" type="curve" smooth="yes"/>
			<point x="624" y="349" type="line" smooth="yes"/>
			<point x="624" y="451"/>
			<point x="624" y="561"/>
			<point x="627" y="657" type="curve"/>
			<point x="460" y="657" type="line"/>
			<point x="463" y="563"/>
			<point x="464" y="453"/>
			<point x="464" y="348" type="curve" smooth="yes"/>
			<point x="464" y="310" type="line" smooth="yes"/>
			<point x="464" y="207"/>
			<point x="463" y="96"/>
		</contour>
		<contour>
			<point x="185" y="0" type="line"/>
			<point x="673" y="0" type="line"/>
			<point x="618" y="46" type="line"/>
			<point x="655" y="-185" type="line"/>
			<point x="717" y="-185" type="line"/>
			<point x="723" y="50" type="line"/>
			<point x="185" y="50" type="line"/>
		</contour>
		<contour>
			<point x="31" y="612" type="line"/>
			<point x="161" y="598" type="line"/>
			<point x="202" y="598" type="line"/>
			<point x="333" y="612" type="line"/>
			<point x="333" y="657" type="line"/>
			<point x="31" y="657" type="line"/>
		</contour>
		<contour>
			<point x="395" y="612" type="line"/>
			<point x="525" y="598" type="line"/>
			<point x="565" y="598" type="line"/>
			<point x="698" y="612" type="line"/>
			<point x="698" y="657" type="line"/>
			<point x="395" y="657" type="line"/>
		</contour>
		<contour>
			<point x="31" y="0" type="line"/>
			<point x="196" y="0" type="line"/>
			<point x="194" y="60" type="line"/>
			<point x="164" y="60" type="line"/>
			<point x="31" y="45" type="line"/>
		</contour>
	</outline>
	<anchor name="aboveUC" x="365" y="677"/>
</glyph>
<glyph name="Che" format="2">
	<unicode hex="0427"/>
	<advance width="694"/>
	<outline>
		<contour>
			<point x="136" y="598" type="line"/>
			<point x="175" y="598" type="line"/>
			<point x="312" y="612" type="line"/>
			<point x="312" y="657" type="line"/>
			<point x="16" y="657" type="line"/>
			<point x="16" y="612" type="line"/>
		</contour>
		<contour>
			<point x="293" y="259" type="curve" smooth="yes"/>
			<point x="378" y="259"/>
			<point x="447" y="276"/>
			<point x="513" y="298" type="curve"/>
			<point x="513" y="337" type="line"/>
			<point x="447" y="321"/>
			<point x="402" y="316"/>
			<point x="351" y="316" type="curve" smooth="yes"/>
			<point x="271" y="316"/>
			<point x="238" y="340"/>
			<point x="238" y="440" type="curve" smooth="yes"/>
			<point x="238" y="496"/>
			<point x="239" y="588"/>
			<point x="241" y="657" type="curve"/>
			<point x="84" y="657" type="line"/>
			<point x="81" y="587"/>
			<point x="80" y="515"/>
			<point x="80" y="447" type="curve" smooth="yes"/>
			<point x="80" y="295"/>
			<point x="157" y="259"/>
		</contour>
		<contour>
			<point x="345" y="0" type="line"/>
			<point x="662" y="0" type="line"/>
			<point x="662" y="45" type="line"/>
			<point x="527" y="60" type="line"/>
			<point x="486" y="60" type="line"/>
			<point x="345" y="45" type="line"/>
		</contour>
		<contour>
			<point x="423" y="0" type="curve"/>
			<point x="591" y="0" type="line"/>
			<point x="587" y="96"/>
			<point x="587" y="207"/>
			<point x="587" y="311" type="curve" smooth="yes"/>
			<point x="587" y="349" type="line" smooth="yes"/>
			<point x="587" y="453"/>
			<point x="587" y="563"/>
			<point x="591" y="657" type="curve"/>
			<point x="423" y="657" type="line"/>
			<point x="427" y="561"/>
			<point x="427" y="451"/>
			<point x="427" y="349" type="curve" smooth="yes"/>
			<point x="427" y="303" type="line" smooth="yes"/>
			<point x="427" y="205"/>
			<point x="427" y="95"/>
		</contour>
		<contour>
			<point x="486" y="598" type="line"/>
			<point x="527" y="598" type="line"/>
			<point x="662" y="612" type="line"/>
			<point x="662" y="657" type="line"/>
			<point x="360" y="657" type="line"/>
			<point x="360" y="612" type="line"/>
		</contour>
	</outline>
	<anchor name="aboveUC" x="336" y="677"/>
</glyph>
<glyph name="Hard" format="2">
	<unicode hex="042A"/>
	<advance width="713"/>
	<outline>
		<contour>
			<point x="297" y="0" type="line"/>
			<point x="409" y="0" type="line" smooth="yes"/>
			<point x="635" y="0"/>
			<point x="696" y="102"/>
			<point x="696" y="205" type="curve" smooth="yes"/>
			<point x="696" y="312"/>
			<point x="621" y="398"/>
			<point x="449" y="398" type="curve" smooth="yes"/>
			<point x="395" y="398"/>
			<point x="346" y="393"/>
			<point x="297" y="386" type="curve"/>
			<point x="297" y="337" type="line"/>
			<point x="331" y="344"/>
			<point x="366" y="348"/>
			<point x="404" y="348" type="curve" smooth="yes"/>
			<point x="494" y="348"/>
			<point x="538" y="299"/>
			<point x="538" y="202" type="curve" smooth="yes"/>
			<point x="538" y="104"/>
			<point x="488" y="49"/>
			<point x="406" y="49" type="curve" smooth="yes"/>
			<point x="297" y="49" type="line"/>
		</contour>
		<contour>
			<point x="214" y="0" type="curve"/>
			<point x="381" y="0" type="line"/>
			<point x="377" y="96"/>
			<point x="377" y="207"/>
			<point x="377" y="311" type="curve" smooth="yes"/>
			<point x="377" y="365" type="line" smooth="yes"/>
			<point x="377" y="453"/>
			<point x="378" y="563"/>
			<point x="381" y="657" type="curve"/>
			<point x="214" y="657" type="line"/>
			<point x="217" y="561"/>
			<point x="217" y="451"/>
			<point x="217" y="349" type="curve" smooth="yes"/>
			<point x="217" y="310" type="line" smooth="yes"/>
			<point x="217" y="205"/>
			<point x="217" y="95"/>
		</contour>
		<contour>
			<point x="20" y="469" type="line"/>
			<point x="86" y="469" type="line"/>
			<point x="126" y="654" type="line"/>
			<point x="64" y="609" type="line"/>
			<point x="278" y="609" type="line"/>
			<point x="278" y="657" type="line"/>
			<point x="26" y="657" type="line"/>
		</contour>
		<contour>
			<point x="143" y="0" type="line"/>
			<point x="309" y="0" type="line"/>
			<point x="308" y="60" type="line"/>
			<point x="277" y="60" type="line"/>
			<point x="143" y="45" type="line"/>
		</contour>
		<contour>
			<point x="287" y="597" type="line"/>
			<point x="314" y="598" type="line"/>
			<point x="454" y="612" type="line"/>
			<point x="454" y="657" type="line"/>
			<point x="287" y="657" type="line"/>
		</contour>
	</outline>
	<anchor name="aboveUC" x="296" y="677"/>
</glyph>
<glyph name="Ecyr" format="2">
	<unicode hex="042D"/>
	<advance width="595"/>
	<outline>
		<contour>
			<point x="40" y="29" type="line"/>
			<point x="95" y="-1"/>
			<point x="156" y="-18"/>
			<point x="230" y="-18" type="curve" smooth="yes"/>
			<point x="412" y="-18"/>
			<point x="560" y="89"/>
			<point x="560" y="328" type="curve" smooth="yes"/>
			<point x="560" y="565"/>
			<point x="416" y="675"/>
			<point x="230" y="675" type="curve" smooth="yes"/>
			<point x="156" y="675"/>
			<point x="94" y="658"/>
			<point x="40" y="627" type="curve"/>
			<point x="35" y="472" type="line"/>
			<point x="96" y="472" type="line"/>
			<point x="143" y="633" type="line"/>
			<point x="77" y="615" type="line"/>
			<point x="76" y="577" type="line"/>
			<point x="121" y="612"/>
			<point x="167" y="627"/>
			<point x="218" y="627" type="curve" smooth="yes"/>
			<point x="328" y="627"/>
			<point x="397" y="560"/>
			<point x="397" y="329" type="curve" smooth="yes"/>
			<point x="397" y="96"/>
			<point x="329" y="30"/>
			<point x="216" y="30" type="curve" smooth="yes"/>
			<point x="167" y="30"/>
			<point x="123" y="44"/>
			<point x="78" y="83" type="curve"/>
			<point x="79" y="42" type="line"/>
			<point x="141" y="23" type="line"/>
			<point x="94" y="188" type="line"/>
			<point x="34" y="188" type="line"/>
		</contour>
		<contour>
			<point x="176" y="224" type="line"/>
			<point x="223" y="224" type="line"/>
			<point x="244" y="329" type="line"/>
			<point x="244" y="347" type="line"/>
			<point x="223" y="445" type="line"/>
			<point x="176" y="445" type="line"/>
		</contour>
		<contour>
			<point x="218" y="310" type="line"/>
			<point x="468" y="310" type="line"/>
			<point x="468" y="361" type="line"/>
			<point x="218" y="361" type="line"/>
		</contour>
	</outline>
	<anchor name="aboveUC" x="252" y="677"/>
</glyph>
<glyph name="ghe" format="2">
	<unicode hex="0433"/>
	<advance width="447"/>
	<outline>
		<contour>
			<point x="79" y="0" type="curve"/>
			<point x="238" y="0" type="line"/>
			<point x="235" y="47"/>
			<point x="234" y="146"/>
			<point x="234" y="209" type="curve" smooth="yes"/>
			<point x="234" y="267" type="line" smooth="yes"/>
			<point x="234" y="330"/>
			<point x="235" y="430"/>
			<point x="238" y="476" type="curve"/>
			<point x="79" y="476" type="line"/>
			<point x="82" y="430"/>
			<point x="82" y="330"/>
			<point x="82" y="267" type="curve" smooth="yes"/>
			<point x="82" y="209" type="line" smooth="yes"/>
			<point x="82" y="146"/>
			<point x="82" y="47"/>
		</contour>
		<contour>
			<point x="143" y="431" type="line"/>
			<point x="386" y="431" type="line"/>
			<point x="328" y="473" type="line"/>
			<point x="373" y="293" type="line"/>
			<point x="429" y="293" type="line"/>
			<point x="423" y="476" type="line"/>
			<point x="143" y="476" type="line"/>
		</contour>
		<contour>
			<point x="28" y="0" type="line"/>
			<point x="299" y="0" type="line"/>
			<point x="299" y="40" type="line"/>
			<point x="200" y="58" type="line"/>
			<point x="120" y="58" type="line"/>
			<point x="28" y="40" type="line"/>
		</contour>
		<contour>
			<point x="28" y="437" type="line"/>
			<point x="122" y="418" type="line"/>
			<point x="168" y="418" type="line"/>
			<point x="168" y="476" type="line"/>
			<point x="28" y="476" type="line"/>
		</contour>
	</outline>
	<anchor name="aboveLC" x="253" y="496"/>
</glyph>
<glyph name="de" format="2">
	<unicode hex="0434"/>
	<advance width="598"/>
	<outline>
		<contour>
			<point x="526" y="0" type="line"/>
			<point x="470" y="43" type="line"/>
			<point x="512" y="-159" type="line"/>
			<point x="568" y="-159" type="line"/>
			<point x="574" y="45" type="line"/>
			<point x="11" y="45" type="line"/>
			<point x="18" y="-159" type="line"/>
			<point x="74" y="-159" type="line"/>
			<point x="116" y="43" type="line"/>
			<point x="59" y="0" type="line"/>
		</contour>
		<contour>
			<point x="333" y="0" type="curve"/>
			<point x="492" y="0" type="line"/>
			<point x="489" y="47"/>
			<point x="488" y="146"/>
			<point x="488" y="209" type="curve" smooth="yes"/>
			<point x="488" y="267" type="line" smooth="yes"/>
			<point x="488" y="330"/>
			<point x="489" y="430"/>
			<point x="492" y="476" type="curve"/>
			<point x="333" y="476" type="line"/>
			<point x="336" y="430"/>
			<point x="336" y="330"/>
			<point x="336" y="267" type="curve" smooth="yes"/>
			<point x="336" y="209" type="line" smooth="yes"/>
			<point x="336" y="146"/>
			<point x="336" y="47"/>
		</contour>
		<contour>
			<point x="116" y="437" type="line"/>
			<point x="204" y="418" type="line"/>
			<point x="227" y="418" type="line"/>
			<point x="227" y="476" type="line"/>
			<point x="116" y="476" type="line"/>
		</contour>
		<contour>
			<point x="407" y="418" type="line"/>
			<point x="466" y="418" type="line"/>
			<point x="558" y="437" type="line"/>
			<point x="558" y="476" type="line"/>
			<point x="407" y="476" type="line"/>
		</contour>
		<contour>
			<point x="63" y="41" type="curve"/>
			<point x="119" y="11" type="line"/>
			<point x="194" y="117"/>
			<point x="241" y="287"/>
			<point x="251" y="476" type="curve"/>
			<point x="198" y="476" type="line"/>
			<point x="186" y="290"/>
			<point x="140" y="139"/>
		</contour>
		<contour>
			<point x="223" y="431" type="line"/>
			<point x="388" y="431" type="line"/>
			<point x="388" y="476" type="line"/>
			<point x="223" y="476" type="line"/>
		</contour>
	</outline>
</glyph>
<glyph name="icyr" format="2">
	<unicode hex="0438"/>
	<advance width="636"/>
	<outline>
		<contour>
			<point x="28" y="0" type="line"/>
			<point x="288" y="0" type="line"/>
			<point x="288" y="40" type="line"/>
			<point x="201" y="58" type="line"/>
			<point x="121" y="58" type="line"/>
			<point x="28" y="40" type="line"/>
		</contour>
		<contour>
			<point x="354" y="0" type="line"/>
			<point x="608" y="0" type="line"/>
			<point x="608" y="40" type="line"/>
			<point x="515" y="58" type="line"/>
			<point x="435" y="58" type="line"/>
			<point x="354" y="40" type="line"/>
		</contour>
		<contour>
			<point x="79" y="0" type="curve"/>
			<point x="229" y="0" type="line"/>
			<point x="229" y="476" type="line"/>
			<point x="79" y="476" type="line"/>
			<point x="82" y="430"/>
			<point x="82" y="330"/>
			<point x="82" y="267" type="curve" smooth="yes"/>
			<point x="82" y="209" type="line" smooth="yes"/>
			<point x="82" y="146"/>
			<point x="82" y="47"/>
		</contour>
		<contour>
			<point x="190" y="52" type="line"/>
			<point x="466" y="377" type="line"/>
			<point x="483" y="377" type="line"/>
			<point x="448" y="425" type="line"/>
			<point x="171" y="98" type="line"/>
			<point x="151" y="98" type="line"/>
		</contour>
		<contour>
			<point x="412" y="0" type="line"/>
			<point x="557" y="0" type="line"/>
			<point x="554" y="47"/>
			<point x="554" y="146"/>
			<point x="554" y="209" type="curve" smooth="yes"/>
			<point x="554" y="267" type="line" smooth="yes"/>
			<point x="554" y="330"/>
			<point x="554" y="430"/>
			<point x="557" y="476" type="curve"/>
			<point x="412" y="476" type="line"/>
		</contour>
		<contour>
			<point x="28" y="437" type="line"/>
			<point x="122" y="418" type="line"/>
			<point x="201" y="418" type="line"/>
			<point x="288" y="437" type="line"/>
			<point x="288" y="476" type="line"/>
			<point x="28" y="476" type="line"/>
		</contour>
		<contour>
			<point x="354" y="437" type="line"/>
			<point x="436" y="418" type="line"/>
			<point x="516" y="418" type="line"/>
			<point x="608" y="437" type="line"/>
			<point x="608" y="476" type="line"/>
			<point x="354" y="476" type="line"/>
		</contour>
	</outline>
	<anchor name="aboveLC" x="324" y="496"/>
</glyph>
<glyph name="soft" format="2">
	<unicode hex="044C"/>
	<advance width="517"/>
	<outline>
		<contour>
			<point x="164" y="0" type="line"/>
			<point x="267" y="0" type="line" smooth="yes"/>
			<point x="451" y="0"/>
			<point x="500" y="70"/>
			<point x="500" y="156" type="curve" smooth="yes"/>
			<point x="500" y="233"/>
			<point x="447" y="300"/>
			<point x="309" y="300" type="curve" smooth="yes"/>
			<point x="264" y="300"/>
			<point x="211" y="294"/>
			<point x="168" y="282" type="curve"/>
			<point x="164" y="245" type="line"/>
			<point x="195" y="252"/>
			<point x="227" y="256"/>
			<point x="260" y="256" type="curve" smooth="yes"/>
			<point x="327" y="256"/>
			<point x="359" y="227"/>
			<point x="359" y="152" type="curve" smooth="yes"/>
			<point x="359" y="79"/>
			<point x="325" y="43"/>
			<point x="259" y="43" type="curve" smooth="yes"/>
			<point x="165" y="43" type="line"/>
		</contour>
		<contour>
			<point x="79" y="0" type="curve"/>
			<point x="238" y="0" type="line"/>
			<point x="235" y="47"/>
			<point x="234" y="146"/>
			<point x="234" y="209" type="curve" smooth="yes"/>
			<point x="234" y="267" type="line" smooth="yes"/>
			<point x="234" y="330"/>
			<point x="235" y="430"/>
			<point x="238" y="476" type="curve"/>
			<point x="79" y="476" type="line"/>
			<point x="82" y="430"/>
			<point x="82" y="330"/>
			<point x="82" y="267" type="curve" smooth="yes"/>
			<point x="82" y="209" type="line" smooth="yes"/>
			<point x="82" y="146"/>
			<point x="82" y="47"/>
		</contour>
		<contour>
			<point x="28" y="437" type="line"/>
			<point x="122" y="418" type="line"/>
			<point x="196" y="418" type="line"/>
			<point x="289" y="437" type="line"/>
			<point x="289" y="476" type="line"/>
			<point x="28" y="476" type="line"/>
		</contour>
		<contour>
			<point x="28" y="0" type="line"/>
			<point x="169" y="0" type="line"/>
			<point x="169" y="58" type="line"/>
			<point x="122" y="58" type="line"/>
			<point x="28" y="40" type="line"/>
		</contour>
	</outline>
</glyph>
<glyph name="ecyr" format="2">
	<unicode hex="044D"/>
	<advance width="488"/>
	<outline>
		<contour>
			<point x="203" y="-15" type="curve" smooth="yes"/>
			<point x="364" y="-15"/>
			<point x="458" y="76"/>
			<point x="458" y="243" type="curve" smooth="yes"/>
			<point x="458" y="404"/>
			<point x="357" y="491"/>
			<point x="215" y="491" type="curve" smooth="yes"/>
			<point x="155" y="491"/>
			<point x="99" y="478"/>
			<point x="48" y="451" type="curve"/>
			<point x="55" y="332" type="line"/>
			<point x="119" y="332" type="line"/>
			<point x="156" y="466" type="line"/>
			<point x="105" y="422" type="line"/>
			<point x="126" y="437"/>
			<point x="146" y="443"/>
			<point x="173" y="443" type="curve" smooth="yes"/>
			<point x="255" y="443"/>
			<point x="304" y="392"/>
			<point x="304" y="238" type="curve" smooth="yes"/>
			<point x="304" y="74"/>
			<point x="253" y="30"/>
			<point x="179" y="30" type="curve" smooth="yes"/>
			<point x="158" y="30"/>
			<point x="143" y="34"/>
			<point x="115" y="49" type="curve"/>
			<point x="161" y="14" type="line"/>
			<point x="151" y="84" type="line" smooth="yes"/>
			<point x="144" y="136"/>
			<point x="120" y="153"/>
			<point x="89" y="153" type="curve" smooth="yes"/>
			<point x="63" y="153"/>
			<point x="41" y="138"/>
			<point x="33" y="110" type="curve"/>
			<point x="37" y="38"/>
			<point x="102" y="-15"/>
		</contour>
		<contour>
			<point x="131" y="215" type="line"/>
			<point x="378" y="222" type="line"/>
			<point x="378" y="266" type="line"/>
			<point x="131" y="271" type="line"/>
		</contour>
	</outline>
	<anchor name="aboveLC" x="226" y="496"/>
</glyph>
<glyph name="yu" format="2">
	<unicode hex="044E"/>
	<advance width="810"/>
	<outline>
		<contour>
			<point x="28" y="0" type="line"/>
			<point x="289" y="0" type="line"/>
			<point x="289" y="40" type="line"/>
			<point x="196" y="58" type="line"/>
			<point x="122" y="58" type="line"/>
			<point x="28" y="40" type="line"/>
		</contour>
		<contour>
			<point x="28" y="437" type="line"/>
			<point x="122" y="418" type="line"/>
			<point x="196" y="418" type="line"/>
			<point x="289" y="437" type="line"/>
			<point x="289" y="476" type="line"/>
			<point x="28" y="476" type="line"/>
		</contour>
		<contour>
			<point x="79" y="0" type="curve"/>
			<point x="238" y="0" type="line"/>
			<point x="235" y="47"/>
			<point x="234" y="146"/>
			<point x="234" y="230" type="curve" smooth="yes"/>
			<point x="234" y="267" type="line" smooth="yes"/>
			<point x="234" y="330"/>
			<point x="235" y="430"/>
			<point x="238" y="476" type="curve"/>
			<point x="79" y="476" type="line"/>
			<point x="82" y="430"/>
			<point x="82" y="330"/>
			<point x="82" y="267" type="curve" smooth="yes"/>
			<point x="82" y="209" type="line" smooth="yes"/>
			<point x="82" y="146"/>
			<point x="82" y="47"/>
		</contour>
		<contour>
			<point x="165" y="226" type="line"/>
			<point x="384" y="226" type="line"/>
			<point x="384" y="272" type="line"/>
			<point x="165" y="272" type="line"/>
		</contour>
		<contour>
			<point x="540" y="-15" type="curve" smooth="yes"/>
			<point x="685" y="-15"/>
			<point x="780" y="87"/>
			<point x="780" y="240" type="curve" smooth="yes"/>
			<point x="780" y="393"/>
			<point x="680" y="491"/>
			<point x="540" y="491" type="curve" smooth="yes"/>
			<point x="403" y="491"/>
			<point x="301" y="391"/>
			<point x="301" y="239" type="curve" smooth="yes"/>
			<point x="301" y="88"/>
			<point x="392" y="-15"/>
		</contour>
		<contour>
			<point x="540" y="30" type="curve" smooth="yes"/>
			<point x="484" y="30"/>
			<point x="456" y="89"/>
			<point x="456" y="238" type="curve" smooth="yes"/>
			<point x="456" y="386"/>
			<point x="484" y="446"/>
			<point x="540" y="446" type="curve" smooth="yes"/>
			<point x="595" y="446"/>
			<point x="624" y="387"/>
			<point x="624" y="238" type="curve" smooth="yes"/>
			<point x="624" y="89"/>
			<point x="595" y="30"/>
		</contour>
	</outline>
	<anchor name="aboveLC" x="366" y="496"/>
</glyph>
<glyph name="yat" format="2">
	<unicode hex="0463"/>
	<advance width="616"/>
	<outline>
		<contour>
			<point x="17" y="320" type="line"/>
			<point x="68" y="320" type="line"/>
			<point x="111" y="488" type="line"/>
			<point x="58" y="446" type="line"/>
			<point x="490" y="446" type="line"/>
			<point x="437" y="488" type="line"/>
			<point x="479" y="336" type="line"/>
			<point x="530" y="336" type="line"/>
			<point x="525" y="491" type="line"/>
			<point x="23" y="491" type="line"/>
		</contour>
		<contour>
			<point x="126" y="0" type="line"/>
			<point x="274" y="0" type="line"/>
			<point x="274" y="58" type="line"/>
			<point x="227" y="58" type="line"/>
			<point x="126" y="40" type="line"/>
		</contour>
		<contour>
			<point x="184" y="0" type="curve"/>
			<point x="343" y="0" type="line"/>
			<point x="340" y="40"/>
			<point x="340" y="150"/>
			<point x="340" y="215" type="curve" smooth="yes"/>
			<point x="340" y="267" type="line"/>
			<point x="338" y="275" type="line"/>
			<point x="338" y="480" type="line"/>
			<point x="343" y="630" type="line"/>
			<point x="328" y="640" type="line"/>
			<point x="127" y="594" type="line"/>
			<point x="127" y="559" type="line"/>
			<point x="188" y="547" type="line"/>
			<point x="188" y="210" type="line" smooth="yes"/>
			<point x="188" y="150"/>
			<point x="187" y="40"/>
		</contour>
		<contour>
			<point x="270" y="0" type="line"/>
			<point x="372" y="0" type="line" smooth="yes"/>
			<point x="555" y="0"/>
			<point x="598" y="68"/>
			<point x="598" y="149" type="curve" smooth="yes"/>
			<point x="598" y="227"/>
			<point x="550" y="292"/>
			<point x="414" y="292" type="curve" smooth="yes"/>
			<point x="369" y="292"/>
			<point x="317" y="286"/>
			<point x="274" y="274" type="curve"/>
			<point x="270" y="237" type="line"/>
			<point x="301" y="244"/>
			<point x="332" y="248"/>
			<point x="364" y="248" type="curve" smooth="yes"/>
			<point x="425" y="248"/>
			<point x="456" y="218"/>
			<point x="456" y="147" type="curve" smooth="yes"/>
			<point x="456" y="77"/>
			<point x="431" y="43"/>
			<point x="362" y="43" type="curve" smooth="yes"/>
			<point x="270" y="43" type="line"/>
		</contour>
	</outline>
	<anchor name="aboveLC" x="263" y="640"/>
</glyph>
<glyph name="Ghestroke" format="2">
	<unicode hex="0492"/>
	<advance width="556"/>
	<outline>
		<contour>
			<point x="33" y="313" type="line"/>
			<point x="383" y="313" type="line"/>
			<point x="383" y="362" type="line"/>
			<point x="33" y="362" type="line"/>
		</contour>
		<component base="Ghe"/>
	</outline>
</glyph>
<glyph name="Zhedescender" format="2">
	<unicode hex="0496"/>
	<advance width="959"/>
	<outline>
		<contour>
			<point x="824" y="0" type="line"/>
			<point x="929" y="0" type="line"/>
			<point x="872" y="44" type="line"/>
			<point x="906" y="-185" type="line"/>
			<point x="968" y="-185" type="line"/>
			<point x="973" y="44" type="line"/>
			<point x="824" y="59" type="line"/>
		</contour>
		<component base="Zhe"/>
	</outline>
</glyph>
<glyph name="zhedescender" format="2">
	<unicode hex="0497"/>
	<advance width="845"/>
	<outline>
		<contour>
			<point x="782" y="0" type="line"/>
			<point x="725" y="43" type="line"/>
			<point x="767" y="-159" type="line"/>
			<point x="823" y="-159" type="line"/>
			<point x="829" y="40" type="line"/>
			<point x="701" y="54" type="line"/>
			<point x="703" y="0" type="line"/>
		</contour>
		<component base="zhe"/>
	</outline>
</glyph>
<glyph name="Kadescender" format="2">
	<unicode hex="049A"/>
	<advance width="680"/>
	<outline>
		<contour>
			<point x="547" y="0" type="line"/>
			<point x="651" y="0" type="line"/>
			<point x="595" y="44" type="line"/>
			<point x="629" y="-185" type="line"/>
			<point x="690" y="-185" type="line"/>
			<point x="696" y="44" type="line"/>
			<point x="547" y="59" type="line"/>
		</contour>
		<component base="Ka"/>
	</outline>
</glyph>
<glyph name="kadescender" format="2">
	<unicode hex="049B"/>
	<advance width="573"/>
	<outline>
		<contour>
			<point x="543" y="0" type="line"/>
			<point x="487" y="43" type="line"/>
			<point x="529" y="-159" type="line"/>
			<point x="584" y="-159" type="line"/>
			<point x="591" y="40" type="line"/>
			<point x="462" y="54" type="line"/>
			<point x="464" y="0" type="line"/>
		</contour>
		<component base="ka"/>
	</outline>
</glyph>
<glyph name="Endescender" format="2">
	<unicode hex="04A2"/>
	<advance width="745"/>
	<outline>
		<contour>
			<point x="590" y="0" type="line"/>
			<point x="689" y="0" type="line"/>
			<point x="633" y="44" type="line"/>
			<point x="667" y="-185" type="line"/>
			<point x="728" y="-185" type="line"/>
			<point x="734" y="44" type="line"/>
			<point x="590" y="59" type="line"/>
		</contour>
		<component base="En"/>
	</outline>
</glyph>
<glyph name="endescender" format="2">
	<unicode hex="04A3"/>
	<advance width="627"/>
	<outline>
		<contour>
			<point x="576" y="0" type="line"/>
			<point x="520" y="43" type="line"/>
			<point x="562" y="-159" type="line"/>
			<point x="617" y="-159" type="line"/>
			<point x="624" y="41" type="line"/>
			<point x="495" y="57" type="line"/>
			<point x="495" y="0" type="line"/>
		</contour>
		<component base="en"/>
	</outline>
</glyph>
<glyph name="Hadescender" format="2">
	<unicode hex="04B2"/>
	<advance width="644"/>
	<outline>
		<contour>
			<point x="509" y="0" type="line"/>
			<point x="611" y="0" type="line"/>
			<point x="555" y="44" type="line"/>
			<point x="588" y="-185" type="line"/>
			<point x="650" y="-185" type="line"/>
			<point x="656" y="44" type="line"/>
			<point x="509" y="59" type="line"/>
		</contour>
		<component base="Ha"/>
	</outline>
</glyph>
<glyph name="hadescender" format="2">
	<unicode hex="04B3"/>
	<advance width="537"/>
	<outline>
		<contour>
			<point x="496" y="0" type="line"/>
			<point x="439" y="43" type="line"/>
			<point x="482" y="-159" type="line"/>
			<point x="537" y="-159" type="line"/>
			<point x="544" y="37" type="line"/>
			<point x="415" y="61" type="line"/>
			<point x="415" y="0" type="line"/>
		</contour>
		<component base="ha"/>
	</outline>
</glyph>
<glyph name="Chedescender" format="2">
	<unicode hex="04B6"/>
	<advance width="705"/>
	<outline>
		<contour>
			<point x="544" y="0" type="line"/>
			<point x="643" y="0" type="line"/>
			<point x="583" y="44" type="line"/>
			<point x="620" y="-185" type="line"/>
			<point x="682" y="-185" type="line"/>
			<point x="688" y="44" type="line"/>
			<point x="544" y="60" type="line"/>
		</contour>
		<component base="Che"/>
	</outline>
</glyph>
<glyph name="chedescender" format="2">
	<unicode hex="04B7"/>
	<advance width="601"/>
	<outline>
		<contour>
			<point x="530" y="0" type="line"/>
			<point x="474" y="43" type="line"/>
			<point x="516" y="-159" type="line"/>
			<point x="571" y="-159" type="line"/>
			<point x="578" y="35" type="line"/>
			<point x="448" y="62" type="line"/>
			<point x="448" y="0" type="line"/>
		</contour>
		<component base="che"/>
	</outline>
</glyph>
<glyph name="d.sups" format="2">
	<unicode hex="1D48"/>
	<advance width="386"/>
	<outline>
		<contour>
			<point x="150" y="408" type="curve" smooth="yes"/>
			<point x="206" y="408"/>
			<point x="243" y="439"/>
			<point x="275" y="497" type="curve"/>
			<point x="273" y="506" type="line"/>
			<point x="270" y="509" type="line"/>
			<point x="247" y="479"/>
			<point x="225" y="459"/>
			<point x="195" y="459" type="curve" smooth="yes"/>
			<point x="155" y="459"/>
			<point x="126" y="491"/>
			<point x="126" y="571" type="curve" smooth="yes"/>
			<point x="126" y="653"/>
			<point x="156" y="687"/>
			<point x="196" y="687" type="curve" smooth="yes"/>
			<point x="223" y="687"/>
			<point x="242" y="673"/>
			<point x="268" y="643" type="curve"/>
			<point x="277" y="656" type="line"/>
			<point x="273" y="656" type="line"/>
			<point x="244" y="710"/>
			<point x="215" y="737"/>
			<point x="163" y="737" type="curve" smooth="yes"/>
			<point x="88" y="737"/>
			<point x="21" y="675"/>
			<point x="21" y="569" type="curve" smooth="yes"/>
			<point x="21" y="464"/>
			<point x="77" y="408"/>
		</contour>
		<contour>
			<point x="248" y="412" type="line"/>
			<point x="377" y="418" type="line"/>
			<point x="377" y="444" type="line"/>
			<point x="342" y="450" type="line"/>
			<point x="342" y="879" type="line"/>
			<point x="331" y="885" type="line"/>
			<point x="197" y="855" type="line"/>
			<point x="197" y="832" type="line"/>
			<point x="243" y="825" type="line"/>
			<point x="243" y="683" type="line"/>
			<point x="242" y="680" type="line"/>
			<point x="242" y="472" type="line"/>
			<point x="242" y="470" type="line"/>
		</contour>
	</outline>
</glyph>
<glyph name="k.sups" format="2">
	<unicode hex="1D4F"/>
	<advance width="391"/>
	<outline>
		<contour>
			<point x="57" y="418" type="line"/>
			<point x="156" y="418" type="line"/>
			<point x="156" y="879" type="line"/>
			<point x="145" y="885" type="line"/>
			<point x="13" y="855" type="line"/>
			<point x="13" y="832" type="line"/>
			<point x="57" y="825" type="line"/>
		</contour>
		<contour>
			<point x="18" y="418" type="line"/>
			<point x="191" y="418" type="line"/>
			<point x="191" y="444" type="line"/>
			<point x="129" y="456" type="line"/>
			<point x="80" y="456" type="line"/>
			<point x="18" y="444" type="line"/>
		</contour>
		<contour>
			<point x="257" y="418" type="line"/>
			<point x="385" y="418" type="line"/>
			<point x="385" y="444" type="line"/>
			<point x="345" y="453" type="line"/>
			<point x="244" y="645" type="line"/>
			<point x="175" y="584" type="line"/>
		</contour>
		<contour>
			<point x="219" y="701" type="line"/>
			<point x="284" y="691" type="line"/>
			<point x="299" y="691" type="line"/>
			<point x="371" y="701" type="line"/>
			<point x="371" y="726" type="line"/>
			<point x="219" y="726" type="line"/>
		</contour>
		<contour>
			<point x="104" y="500" type="line"/>
			<point x="346" y="726" type="line"/>
			<point x="302" y="726" type="line"/>
			<point x="105" y="535" type="line"/>
			<point x="99" y="535" type="line"/>
		</contour>
	</outline>
</glyph>
<glyph name="m.sups" format="2">
	<unicode hex="1D50"/>
	<advance width="604"/>
	<outline>
		<contour>
			<point x="58" y="418" type="line"/>
			<point x="158" y="418" type="line"/>
			<point x="158" y="660" type="line"/>
			<point x="158" y="661" type="line"/>
			<point x="152" y="730" type="line"/>
			<point x="141" y="737" type="line"/>
			<point x="15" y="697" type="line"/>
			<point x="15" y="675" type="line"/>
			<point x="58" y="668" type="line"/>
		</contour>
		<contour>
			<point x="258" y="418" type="line"/>
			<point x="356" y="418" type="line"/>
			<point x="356" y="629" type="line" smooth="yes"/>
			<point x="356" y="703"/>
			<point x="321" y="737"/>
			<point x="262" y="737" type="curve" smooth="yes"/>
			<point x="217" y="737"/>
			<point x="181" y="715"/>
			<point x="146" y="668" type="curve"/>
			<point x="120" y="668" type="line"/>
			<point x="136" y="634" type="line"/>
			<point x="160" y="660"/>
			<point x="192" y="680"/>
			<point x="220" y="680" type="curve" smooth="yes"/>
			<point x="247" y="680"/>
			<point x="258" y="664"/>
			<point x="258" y="618" type="curve" smooth="yes"/>
		</contour>
		<contour>
			<point x="455" y="418" type="line"/>
			<point x="554" y="418" type="line"/>
			<point x="554" y="627" type="line" smooth="yes"/>
			<point x="554" y="702"/>
			<point x="522" y="737"/>
			<point x="459" y="737" type="curve" smooth="yes"/>
			<point x="416" y="737"/>
			<point x="381" y="719"/>
			<point x="342" y="668" type="curve"/>
			<point x="318" y="668" type="line"/>
			<point x="334" y="634" type="line"/>
			<point x="360" y="662"/>
			<point x="388" y="680"/>
			<point x="416" y="680" type="curve" smooth="yes"/>
			<point x="443" y="680"/>
			<point x="455" y="666"/>
			<point x="455" y="618" type="curve" smooth="yes"/>
		</contour>
		<contour>
			<point x="20" y="418" type="line"/>
			<point x="192" y="418" type="line"/>
			<point x="192" y="444" type="line"/>
			<point x="130" y="456" type="line"/>
			<point x="82" y="456" type="line"/>
			<point x="20" y="444" type="line"/>
		</contour>
		<contour>
			<point x="221" y="418" type="line"/>
			<point x="390" y="418" type="line"/>
			<point x="390" y="444" type="line"/>
			<point x="330" y="456" type="line"/>
			<point x="281" y="456" type="line"/>
			<point x="221" y="444" type="line"/>
		</contour>
		<contour>
			<point x="420" y="418" type="line"/>
			<point x="590" y="418" type="line"/>
			<point x="590" y="444" type="line"/>
			<point x="527" y="456" type="line"/>
			<point x="478" y="456" type="line"/>
			<point x="420" y="444" type="line"/>
		</contour>
	</outline>
</glyph>
<glyph name="o.sups" format="2">
	<unicode hex="1D52"/>
	<advance width="377"/>
	<outline>
		<contour>
			<point x="188" y="408" type="curve" smooth="yes"/>
			<point x="287" y="408"/>
			<point x="356" y="474"/>
			<point x="356" y="574" type="curve" smooth="yes"/>
			<point x="356" y="674"/>
			<point x="286" y="737"/>
			<point x="188" y="737" type="curve" smooth="yes"/>
			<point x="94" y="737"/>
			<point x="21" y="673"/>
			<point x="21" y="574" type="curve" smooth="yes"/>
			<point x="21" y="475"/>
			<point x="86" y="408"/>
		</contour>
		<contour>
			<point x="188" y="438" type="curve" smooth="yes"/>
			<point x="147" y="438"/>
			<point x="126" y="476"/>
			<point x="126" y="573" type="curve" smooth="yes"/>
			<point x="126" y="669"/>
			<point x="147" y="708"/>
			<point x="188" y="708" type="curve" smooth="yes"/>
			<point x="229" y="708"/>
			<point x="251" y="669"/>
			<point x="251" y="573" type="curve" smooth="yes"/>
			<point x="251" y="476"/>
			<point x="229" y="438"/>
		</contour>
	</outline>
</glyph>
<glyph name="t.sups" format="2">
	<unicode hex="1D57"/>
	<advance width="236"/>
	<outline>
		<contour>
			<point x="139" y="411" type="curve" smooth="yes"/>
			<point x="188" y="411"/>
			<point x="218" y="430"/>
			<point x="235" y="461" type="curve"/>
			<point x="221" y="476" type="line"/>
			<point x="206" y="463"/>
			<point x="192" y="460"/>
			<point x="182" y="460" type="curve" smooth="yes"/>
			<point x="161" y="460"/>
			<point x="147" y="473"/>
			<point x="147" y="504" type="curve" smooth="yes"/>
			<point x="147" y="703" type="line"/>
			<point x="147" y="706" type="line"/>
			<point x="148" y="820" type="line"/>
			<point x="92" y="820" type="line"/>
			<point x="45" y="709" type="line"/>
			<point x="79" y="731" type="line"/>
			<point x="6" y="721" type="line"/>
			<point x="6" y="689" type="line"/>
			<point x="48" y="689" type="line"/>
			<point x="48" y="497" type="line" smooth="yes"/>
			<point x="48" y="437"/>
			<point x="83" y="411"/>
		</contour>
		<contour>
			<point x="98" y="689" type="line"/>
			<point x="219" y="689" type="line"/>
			<point x="219" y="726" type="line"/>
			<point x="98" y="726" type="line"/>
		</contour>
	</outline>
</glyph>
<glyph name="u.sups" format="2">
	<unicode hex="1D58"/>
	<advance width="397"/>
	<outline>
		<contour>
			<point x="138" y="408" type="curve" smooth="yes"/>
			<point x="186" y="408"/>
			<point x="226" y="433"/>
			<point x="256" y="477" type="curve"/>
			<point x="281" y="477" type="line"/>
			<point x="264" y="516" type="line"/>
			<point x="241" y="487"/>
			<point x="210" y="466"/>
			<point x="184" y="466" type="curve" smooth="yes"/>
			<point x="160" y="466"/>
			<point x="145" y="479"/>
			<point x="145" y="522" type="curve" smooth="yes"/>
			<point x="145" y="727" type="line"/>
			<point x="135" y="734" type="line"/>
			<point x="11" y="717" type="line"/>
			<point x="11" y="693" type="line"/>
			<point x="55" y="686" type="line"/>
			<point x="45" y="697" type="line"/>
			<point x="45" y="523" type="line" smooth="yes"/>
			<point x="45" y="439"/>
			<point x="80" y="408"/>
		</contour>
		<contour>
			<point x="251" y="412" type="line"/>
			<point x="381" y="418" type="line"/>
			<point x="381" y="444" type="line"/>
			<point x="346" y="452" type="line"/>
			<point x="346" y="727" type="line"/>
			<point x="336" y="734" type="line"/>
			<point x="211" y="715" type="line"/>
			<point x="211" y="693" type="line"/>
			<point x="246" y="687" type="line"/>
			<point x="246" y="485" type="line"/>
			<point x="246" y="483" type="line"/>
		</contour>
	</outline>
</glyph>
<glyph name="v.sups" format="2">
	<unicode hex="1D5B"/>
	<advance width="351"/>
	<outline>
		<contour>
			<point x="153" y="416" type="line"/>
			<point x="199" y="416" type="line"/>
			<point x="321" y="726" type="line"/>
			<point x="283" y="726" type="line"/>
			<point x="203" y="504" type="line"/>
			<point x="199" y="493" type="line"/>
			<point x="217" y="494" type="line"/>
			<point x="127" y="726" type="line"/>
			<point x="20" y="726" type="line"/>
		</contour>
		<contour>
			<point x="-1" y="701" type="line"/>
			<point x="60" y="689" type="line"/>
			<point x="123" y="689" type="line"/>
			<point x="185" y="701" type="line"/>
			<point x="185" y="726" type="line"/>
			<point x="-1" y="726" type="line"/>
		</contour>
		<contour>
			<point x="226" y="701" type="line"/>
			<point x="284" y="692" type="line"/>
			<point x="296" y="692" type="line"/>
			<point x="348" y="701" type="line"/>
			<point x="348" y="726" type="line"/>
			<point x="226" y="726" type="line"/>
		</contour>
	</outline>
</glyph>
<glyph name="quoteleft" format="2">
	<unicode hex="2018"/>
	<unicode hex="02BB"/>
	<advance width="215"/>
	<outline>
		<contour>
			<point x="110" y="441" type="curve" smooth="yes"/>
			<point x="151" y="441"/>
			<point x="184" y="473"/>
			<point x="184" y="514" type="curve" smooth="yes"/>
			<point x="184" y="540"/>
			<point x="173" y="565"/>
			<point x="137" y="586" type="curve" smooth="yes"/>
			<point x="77" y="621" type="line"/>
			<point x="87" y="575" type="line"/>
			<point x="102" y="633"/>
			<point x="135" y="667"/>
			<point x="194" y="692" type="curve"/>
			<point x="177" y="730" type="line"/>
			<point x="87" y="698"/>
			<point x="27" y="627"/>
			<point x="27" y="542" type="curve" smooth="yes"/>
			<point x="27" y="515"/>
			<point x="33" y="490"/>
			<point x="46" y="468" type="curve"/>
			<point x="62" y="453"/>
			<point x="83" y="441"/>
		</contour>
	</outline>
</glyph>
<glyph name="daggerdbl" format="2">
	<unicode hex="2021"/>
	<advance width="528"/>
	<outline>
		<contour>
			<point x="264" y="-74" type="curve" smooth="yes"/>
			<point x="305" y="-74"/>
			<point x="333" y="-51"/>
			<point x="333" y="-4" type="curve" smooth="yes"/>
			<point x="333" y="27"/>
			<point x="319" y="65"/>
			<point x="305" y="94" type="curve" smooth="yes"/>
			<point x="273" y="159" type="line"/>
			<point x="255" y="159" type="line"/>
			<point x="224" y="94" type="line" smooth="yes"/>
			<point x="210" y="65"/>
			<point x="195" y="27"/>
			<point x="195" y="-4" type="curve" smooth="yes"/>
			<point x="195" y="-51"/>
			<point x="223" y="-74"/>
		</contour>
		<contour>
			<point x="195" y="326" type="curve" smooth="yes"/>
			<point x="195" y="279"/>
			<point x="208" y="249"/>
			<point x="255" y="159" type="curve"/>
			<point x="273" y="159" type="line"/>
			<point x="319" y="248"/>
			<point x="332" y="279"/>
			<point x="332" y="326" type="curve" smooth="yes"/>
			<point x="332" y="373"/>
			<point x="319" y="405"/>
			<point x="273" y="493" type="curve"/>
			<point x="255" y="493" type="line"/>
			<point x="209" y="403"/>
			<point x="195" y="373"/>
		</contour>
		<contour>
			<point x="264" y="726" type="curve" smooth="yes"/>
			<point x="223" y="726"/>
			<point x="195" y="703"/>
			<point x="195" y="657" type="curve" smooth="yes"/>
			<point x="195" y="625"/>
			<point x="210" y="586"/>
			<point x="224" y="558" type="curve" smooth="yes"/>
			<point x="255" y="493" type="line"/>
			<point x="273" y="493" type="line"/>
			<point x="305" y="558" type="line" smooth="yes"/>
			<point x="319" y="587"/>
			<point x="333" y="625"/>
			<point x="333" y="657" type="curve" smooth="yes"/>
			<point x="333" y="703"/>
			<point x="305" y="726"/>
		</contour>
		<contour>
			<point x="35" y="159" type="curve" smooth="yes"/>
			<point x="35" y="119"/>
			<point x="58" y="89"/>
			<point x="107" y="89" type="curve" smooth="yes"/>
			<point x="138" y="89"/>
			<point x="170" y="103"/>
			<point x="199" y="118" type="curve" smooth="yes"/>
			<point x="264" y="151" type="line"/>
			<point x="264" y="167" type="line"/>
			<point x="199" y="200" type="line" smooth="yes"/>
			<point x="170" y="214"/>
			<point x="138" y="229"/>
			<point x="107" y="229" type="curve" smooth="yes"/>
			<point x="58" y="229"/>
			<point x="35" y="199"/>
		</contour>
		<contour>
			<point x="494" y="159" type="curve" smooth="yes"/>
			<point x="494" y="199"/>
			<point x="470" y="229"/>
			<point x="421" y="229" type="curve" smooth="yes"/>
			<point x="390" y="229"/>
			<point x="359" y="216"/>
			<point x="329" y="201" type="curve" smooth="yes"/>
			<point x="264" y="167" type="line"/>
			<point x="264" y="151" type="line"/>
			<point x="329" y="118" type="line" smooth="yes"/>
			<point x="358" y="104"/>
			<point x="390" y="90"/>
			<point x="421" y="90" type="curve" smooth="yes"/>
			<point x="470" y="90"/>
			<point x="494" y="119"/>
		</contour>
		<contour>
			<point x="35" y="493" type="curve" smooth="yes"/>
			<point x="35" y="453"/>
			<point x="58" y="424"/>
			<point x="107" y="424" type="curve" smooth="yes"/>
			<point x="138" y="424"/>
			<point x="170" y="438"/>
			<point x="199" y="452" type="curve" smooth="yes"/>
			<point x="264" y="485" type="line"/>
			<point x="264" y="501" type="line"/>
			<point x="199" y="534" type="line" smooth="yes"/>
			<point x="170" y="549"/>
			<point x="138" y="563"/>
			<point x="107" y="563" type="curve" smooth="yes"/>
			<point x="58" y="563"/>
			<point x="35" y="533"/>
		</contour>
		<contour>
			<point x="494" y="493" type="curve" smooth="yes"/>
			<point x="494" y="533"/>
			<point x="470" y="562"/>
			<point x="421" y="562" type="curve" smooth="yes"/>
			<point x="390" y="562"/>
			<point x="358" y="548"/>
			<point x="329" y="534" type="curve" smooth="yes"/>
			<point x="264" y="501" type="line"/>
			<point x="264" y="485" type="line"/>
			<point x="329" y="451" type="line" smooth="yes"/>
			<point x="359" y="437"/>
			<point x="390" y="423"/>
			<point x="421" y="423" type="curve" smooth="yes"/>
			<point x="470" y="423"/>
			<point x="494" y="453"/>
		</contour>
	</outline>
</glyph>
<glyph name="fraction" format="2">
	<unicode hex="2044"/>
	<unicode hex="2215"/>
	<advance width="148"/>
	<outline>
		<contour>
			<point x="-127" y="-31" type="line"/>
			<point x="320" y="628" type="line"/>
			<point x="275" y="658" type="line"/>
			<point x="-172" y="-1" type="line"/>
		</contour>
	</outline>
</glyph>
<glyph name="zero.sups" format="2">
	<unicode hex="2070"/>
	<advance width="368"/>
	<outline>
		<contour>
			<point x="184" y="409" type="curve" smooth="yes"/>
			<point x="266" y="409"/>
			<point x="339" y="473"/>
			<point x="339" y="615" type="curve" smooth="yes"/>
			<point x="339" y="758"/>
			<point x="266" y="822"/>
			<point x="184" y="822" type="curve" smooth="yes"/>
			<point x="101" y="822"/>
			<point x="29" y="758"/>
			<point x="29" y="615" type="curve" smooth="yes"/>
			<point x="29" y="473"/>
			<point x="101" y="409"/>
		</contour>
		<contour>
			<point x="184" y="438" type="curve" smooth="yes"/>
			<point x="154" y="438"/>
			<point x="132" y="471"/>
			<point x="132" y="615" type="curve" smooth="yes"/>
			<point x="132" y="760"/>
			<point x="154" y="792"/>
			<point x="184" y="792" type="curve" smooth="yes"/>
			<point x="214" y="792"/>
			<point x="237" y="759"/>
			<point x="237" y="615" type="curve" smooth="yes"/>
			<point x="237" y="471"/>
			<point x="214" y="438"/>
		</contour>
	</outline>
</glyph>
<glyph name="four.sups" format="2">
	<unicode hex="2074"/>
	<advance width="368"/>
	<outline>
		<contour>
			<point x="190" y="418" type="line"/>
			<point x="286" y="418" type="line"/>
			<point x="286" y="813" type="line"/>
			<point x="210" y="813" type="line"/>
			<point x="24" y="565" type="line"/>
			<point x="24" y="505" type="line"/>
			<point x="343" y="505" type="line"/>
			<point x="343" y="578" type="line"/>
			<point x="68" y="578" type="line"/>
			<point x="68" y="592" type="line"/>
			<point x="60" y="559" type="line"/>
			<point x="143" y="672" type="line"/>
			<point x="227" y="785" type="line"/>
			<point x="180" y="748" type="line"/>
			<point x="190" y="748" type="line"/>
			<point x="190" y="556" type="line"/>
			<point x="190" y="531" type="line"/>
		</contour>
	</outline>
</glyph>
<glyph name="five.sups" format="2">
	<unicode hex="2075"/>
	<advance width="368"/>
	<outline>
		<contour>
			<point x="166" y="408" type="curve" smooth="yes"/>
			<point x="264" y="408"/>
			<point x="337" y="452"/>
			<point x="337" y="540" type="curve" smooth="yes"/>
			<point x="337" y="623"/>
			<point x="273" y="664"/>
			<point x="180" y="664" type="curve" smooth="yes"/>
			<point x="143" y="664"/>
			<point x="107" y="658"/>
			<point x="75" y="643" type="curve"/>
			<point x="75" y="635" type="line"/>
			<point x="106" y="637" type="line"/>
			<point x="118" y="792" type="line"/>
			<point x="93" y="729" type="line"/>
			<point x="321" y="729" type="line"/>
			<point x="321" y="812" type="line"/>
			<point x="83" y="812" type="line"/>
			<point x="69" y="626" type="line"/>
			<point x="85" y="613" type="line"/>
			<point x="107" y="619"/>
			<point x="127" y="622"/>
			<point x="149" y="622" type="curve" smooth="yes"/>
			<point x="199" y="622"/>
			<point x="226" y="588"/>
			<point x="226" y="531" type="curve" smooth="yes"/>
			<point x="226" y="474"/>
			<point x="195" y="436"/>
			<point x="148" y="436" type="curve" smooth="yes"/>
			<point x="132" y="436"/>
			<point x="121" y="438"/>
			<point x="104" y="445" type="curve"/>
			<point x="125" y="426" type="line"/>
			<point x="117" y="484" type="line" smooth="yes"/>
			<point x="112" y="523"/>
			<point x="96" y="536"/>
			<point x="71" y="536" type="curve" smooth="yes"/>
			<point x="53" y="536"/>
			<point x="37" y="527"/>
			<point x="30" y="507" type="curve"/>
			<point x="34" y="447"/>
			<point x="82" y="408"/>
		</contour>
	</outline>
</glyph>
<glyph name="eight.sups" format="2">
	<unicode hex="2078"/>
	<advance width="368"/>
	<outline>
		<contour>
			<point x="176" y="408" type="curve" smooth="yes"/>
			<point x="274" y="408"/>
			<point x="334" y="451"/>
			<point x="334" y="522" type="curve" smooth="yes"/>
			<point x="334" y="582"/>
			<point x="291" y="621"/>
			<point x="224" y="652" type="curve" smooth="yes"/>
			<point x="156" y="682"/>
			<point x="135" y="709"/>
			<point x="135" y="741" type="curve" smooth="yes"/>
			<point x="135" y="775"/>
			<point x="159" y="794"/>
			<point x="187" y="794" type="curve" smooth="yes"/>
			<point x="218" y="794"/>
			<point x="236" y="770"/>
			<point x="236" y="736" type="curve" smooth="yes"/>
			<point x="236" y="705"/>
			<point x="229" y="680"/>
			<point x="198" y="643" type="curve"/>
			<point x="214" y="630" type="line"/>
			<point x="214" y="634" type="line"/>
			<point x="295" y="662"/>
			<point x="320" y="695"/>
			<point x="320" y="734" type="curve" smooth="yes"/>
			<point x="320" y="781"/>
			<point x="280" y="822"/>
			<point x="190" y="822" type="curve" smooth="yes"/>
			<point x="107" y="822"/>
			<point x="45" y="780"/>
			<point x="45" y="711" type="curve" smooth="yes"/>
			<point x="45" y="656"/>
			<point x="84" y="616"/>
			<point x="143" y="590" type="curve" smooth="yes"/>
			<point x="210" y="559"/>
			<point x="237" y="533"/>
			<point x="237" y="494" type="curve" smooth="yes"/>
			<point x="237" y="462"/>
			<point x="218" y="436"/>
			<point x="183" y="436" type="curve" smooth="yes"/>
			<point x="149" y="436"/>
			<point x="125" y="463"/>
			<point x="125" y="504" type="curve" smooth="yes"/>
			<point x="125" y="539"/>
			<point x="137" y="567"/>
			<point x="169" y="599" type="curve"/>
			<point x="153" y="614" type="line"/>
			<point x="153" y="608" type="line"/>
			<point x="74" y="586"/>
			<point x="37" y="551"/>
			<point x="37" y="500" type="curve" smooth="yes"/>
			<point x="37" y="446"/>
			<point x="81" y="408"/>
		</contour>
	</outline>
</glyph>
<glyph name="parenleft.sups" format="2">
	<unicode hex="207D"/>
	<advance width="270"/>
	<outline>
		<contour>
			<point x="139" y="596" type="curve" smooth="yes"/>
			<point x="139" y="686"/>
			<point x="164" y="760"/>
			<point x="234" y="851" type="curve"/>
			<point x="210" y="872" type="line"/>
			<point x="113" y="799"/>
			<point x="54" y="705"/>
			<point x="54" y="596" type="curve" smooth="yes"/>
			<point x="54" y="487"/>
			<point x="113" y="393"/>
			<point x="210" y="321" type="curve"/>
			<point x="234" y="342" type="line"/>
			<point x="164" y="433"/>
			<point x="139" y="506"/>
		</contour>
	</outline>
</glyph>
<glyph name="parenright.sups" format="2">
	<unicode hex="207E"/>
	<advance width="270"/>
	<outline>
		<contour>
			<point x="130" y="597" type="curve" smooth="yes"/>
			<point x="130" y="507"/>
			<point x="105" y="432"/>
			<point x="35" y="342" type="curve"/>
			<point x="59" y="321" type="line"/>
			<point x="157" y="393"/>
			<point x="215" y="488"/>
			<point x="215" y="597" type="curve" smooth="yes"/>
			<point x="215" y="705"/>
			<point x="157" y="800"/>
			<point x="59" y="872" type="curve"/>
			<point x="35" y="851" type="line"/>
			<point x="105" y="760"/>
			<point x="130" y="687"/>
		</contour>
	</outline>
</glyph>
<glyph name="n.sups" format="2">
	<unicode hex="207F"/>
	<advance width="409"/>
	<outline>
		<contour>
			<point x="58" y="418" type="line"/>
			<point x="157" y="418" type="line"/>
			<point x="157" y="660" type="line"/>
			<point x="157" y="661" type="line"/>
			<point x="152" y="730" type="line"/>
			<point x="142" y="737" type="line"/>
			<point x="15" y="697" type="line"/>
			<point x="15" y="675" type="line"/>
			<point x="58" y="668" type="line"/>
		</contour>
		<contour>
			<point x="259" y="418" type="line"/>
			<point x="358" y="418" type="line"/>
			<point x="358" y="629" type="line" smooth="yes"/>
			<point x="358" y="703"/>
			<point x="322" y="737"/>
			<point x="265" y="737" type="curve" smooth="yes"/>
			<point x="219" y="737"/>
			<point x="184" y="718"/>
			<point x="145" y="668" type="curve"/>
			<point x="121" y="668" type="line"/>
			<point x="136" y="634" type="line"/>
			<point x="164" y="664"/>
			<point x="194" y="680"/>
			<point x="221" y="680" type="curve" smooth="yes"/>
			<point x="248" y="680"/>
			<point x="259" y="665"/>
			<point x="259" y="621" type="curve" smooth="yes"/>
		</contour>
		<contour>
			<point x="20" y="418" type="line"/>
			<point x="192" y="418" type="line"/>
			<point x="192" y="444" type="line"/>
			<point x="130" y="456" type="line"/>
			<point x="82" y="456" type="line"/>
			<point x="20" y="444" type="line"/>
		</contour>
		<contour>
			<point x="222" y="418" type="line"/>
			<point x="394" y="418" type="line"/>
			<point x="394" y="444" type="line"/>
			<point x="331" y="456" type="line"/>
			<point x="283" y="456" type="line"/>
			<point x="222" y="444" type="line"/>
		</contour>
	</outline>
</glyph>
<glyph name="lira" format="2">
	<unicode hex="20A4"/>
	<advance width="533"/>
	<outline>
		<contour>
			<point x="45" y="0" type="line"/>
			<point x="487" y="0" type="line"/>
			<point x="487" y="120" type="line"/>
			<point x="118" y="120" type="line"/>
			<point x="109" y="99" type="line"/>
			<point x="191" y="127"/>
			<point x="243" y="178"/>
			<point x="248" y="259" type="curve" smooth="yes"/>
			<point x="254" y="333"/>
			<point x="219" y="394"/>
			<point x="219" y="483" type="curve" smooth="yes"/>
			<point x="219" y="559"/>
			<point x="259" y="601"/>
			<point x="326" y="601" type="curve" smooth="yes"/>
			<point x="348" y="601"/>
			<point x="371" y="596"/>
			<point x="412" y="582" type="curve"/>
			<point x="338" y="616" type="line"/>
			<point x="353" y="536" type="line" smooth="yes"/>
			<point x="364" y="471"/>
			<point x="393" y="455"/>
			<point x="427" y="455" type="curve" smooth="yes"/>
			<point x="455" y="455"/>
			<point x="477" y="469"/>
			<point x="485" y="501" type="curve"/>
			<point x="478" y="592"/>
			<point x="408" y="646"/>
			<point x="299" y="646" type="curve" smooth="yes"/>
			<point x="183" y="646"/>
			<point x="81" y="586"/>
			<point x="81" y="470" type="curve" smooth="yes"/>
			<point x="81" y="368"/>
			<point x="142" y="330"/>
			<point x="142" y="238" type="curve" smooth="yes"/>
			<point x="142" y="182"/>
			<point x="106" y="126"/>
			<point x="45" y="89" type="curve"/>
		</contour>
		<contour>
			<point x="51" y="224" type="line"/>
			<point x="408" y="224" type="line"/>
			<point x="408" y="272" type="line"/>
			<point x="51" y="272" type="line"/>
		</contour>
		<contour>
			<point x="51" y="337" type="line"/>
			<point x="408" y="337" type="line"/>
			<point x="408" y="386" type="line"/>
			<point x="51" y="386" type="line"/>
		</contour>
	</outline>
</glyph>
<glyph name="won" format="2">
	<unicode hex="20A9"/>
	<advance width="533"/>
	<outline>
		<contour>
			<point x="-9" y="593" type="line"/>
			<point x="79" y="578" type="line"/>
			<point x="130" y="578" type="line"/>
			<point x="224" y="593" type="line"/>
			<point x="224" y="631" type="line"/>
			<point x="-9" y="631" type="line"/>
		</contour>
		<contour>
			<point x="13" y="321" type="line"/>
			<point x="154" y="321" type="line"/>
			<point x="167" y="328" type="line"/>
			<point x="419" y="328" type="line"/>
			<point x="430" y="321" type="line"/>
			<point x="512" y="321" type="line"/>
			<point x="512" y="369" type="line"/>
			<point x="13" y="369" type="line"/>
		</contour>
		<contour>
			<point x="120" y="-2" type="line"/>
			<point x="193" y="-2" type="line"/>
			<point x="288" y="439" type="line"/>
			<point x="249" y="415" type="line"/>
			<point x="322" y="-2" type="line"/>
			<point x="393" y="-2" type="line"/>
			<point x="498" y="631" type="line"/>
			<point x="453" y="631" type="line"/>
			<point x="372" y="102" type="line"/>
			<point x="404" y="134" type="line"/>
			<point x="337" y="548" type="line"/>
			<point x="265" y="548" type="line"/>
			<point x="178" y="102" type="line"/>
			<point x="208" y="135" type="line"/>
			<point x="162" y="631" type="line"/>
			<point x="34" y="631" type="line"/>
		</contour>
		<contour>
			<point x="387" y="593" type="line"/>
			<point x="460" y="580" type="line"/>
			<point x="477" y="580" type="line"/>
			<point x="539" y="593" type="line"/>
			<point x="539" y="631" type="line"/>
			<point x="387" y="631" type="line"/>
		</contour>
	</outline>
</glyph>
<glyph name="tugrik" format="2">
	<unicode hex="20AE"/>
	<advance width="533"/>
	<outline>
		<contour>
			<point x="13" y="450" type="line"/>
			<point x="71" y="450" type="line"/>
			<point x="116" y="627" type="line"/>
			<point x="56" y="584" type="line"/>
			<point x="477" y="584" type="line"/>
			<point x="418" y="627" type="line"/>
			<point x="462" y="450" type="line"/>
			<point x="520" y="450" type="line"/>
			<point x="515" y="631" type="line"/>
			<point x="18" y="631" type="line"/>
		</contour>
		<contour>
			<point x="186" y="0" type="curve"/>
			<point x="347" y="0" type="line"/>
			<point x="344" y="90"/>
			<point x="344" y="189"/>
			<point x="344" y="245" type="curve" smooth="yes"/>
			<point x="344" y="368" type="line" smooth="yes"/>
			<point x="344" y="433"/>
			<point x="344" y="539"/>
			<point x="347" y="631" type="curve"/>
			<point x="186" y="631" type="line"/>
			<point x="190" y="538"/>
			<point x="190" y="432"/>
			<point x="190" y="316" type="curve" smooth="yes"/>
			<point x="190" y="189" type="line" smooth="yes"/>
			<point x="190" y="158"/>
			<point x="190" y="89"/>
		</contour>
		<contour>
			<point x="107" y="0" type="line"/>
			<point x="427" y="0" type="line"/>
			<point x="427" y="44" type="line"/>
			<point x="292" y="58" type="line"/>
			<point x="240" y="58" type="line"/>
			<point x="107" y="44" type="line"/>
		</contour>
		<contour>
			<point x="97" y="119" type="line"/>
			<point x="266" y="188" type="line"/>
			<point x="266" y="239" type="line"/>
			<point x="97" y="170" type="line"/>
		</contour>
		<contour>
			<point x="97" y="246" type="line"/>
			<point x="266" y="315" type="line"/>
			<point x="266" y="366" type="line"/>
			<point x="97" y="297" type="line"/>
		</contour>
		<contour>
			<point x="266" y="180" type="line"/>
			<point x="437" y="248" type="line"/>
			<point x="437" y="299" type="line"/>
			<point x="266" y="231" type="line"/>
		</contour>
		<contour>
			<point x="266" y="307" type="line"/>
			<point x="437" y="375" type="line"/>
			<point x="437" y="426" type="line"/>
			<point x="266" y="358" type="line"/>
		</contour>
	</outline>
</glyph>
<glyph name="peso" format="2">
	<unicode hex="20B1"/>
	<advance width="533"/>
	<outline>
		<contour>
			<point x="159" y="242" type="line"/>
			<point x="244" y="242" type="line" smooth="yes"/>
			<point x="425" y="242"/>
			<point x="488" y="335"/>
			<point x="488" y="442" type="curve" smooth="yes"/>
			<point x="488" y="552"/>
			<point x="419" y="631"/>
			<point x="250" y="631" type="curve" smooth="yes"/>
			<point x="159" y="631" type="line"/>
			<point x="159" y="584" type="line"/>
			<point x="245" y="584" type="line" smooth="yes"/>
			<point x="318" y="584"/>
			<point x="357" y="536"/>
			<point x="357" y="442" type="curve" smooth="yes"/>
			<point x="357" y="352"/>
			<point x="322" y="288"/>
			<point x="246" y="288" type="curve" smooth="yes"/>
			<point x="159" y="288" type="line"/>
		</contour>
		<contour>
			<point x="81" y="0" type="curve"/>
			<point x="240" y="0" type="line"/>
			<point x="237" y="93"/>
			<point x="237" y="196"/>
			<point x="237" y="281" type="curve" smooth="yes"/>
			<point x="237" y="364" type="line" smooth="yes"/>
			<point x="237" y="435"/>
			<point x="237" y="540"/>
			<point x="240" y="631" type="curve"/>
			<point x="82" y="631" type="line"/>
			<point x="85" y="539"/>
			<point x="85" y="434"/>
			<point x="85" y="336" type="curve" smooth="yes"/>
			<point x="85" y="298" type="line" smooth="yes"/>
			<point x="85" y="197"/>
			<point x="85" y="91"/>
		</contour>
		<contour>
			<point x="13" y="0" type="line"/>
			<point x="322" y="0" type="line"/>
			<point x="322" y="44" type="line"/>
			<point x="191" y="58" type="line"/>
			<point x="141" y="58" type="line"/>
			<point x="13" y="44" type="line"/>
		</contour>
		<contour>
			<point x="13" y="588" type="line"/>
			<point x="142" y="573" type="line"/>
			<point x="169" y="573" type="line"/>
			<point x="169" y="631" type="line"/>
			<point x="13" y="631" type="line"/>
		</contour>
		<contour>
			<point x="6" y="468" type="line"/>
			<point x="533" y="468" type="line"/>
			<point x="533" y="517" type="line"/>
			<point x="6" y="517" type="line"/>
		</contour>
		<contour>
			<point x="6" y="360" type="line"/>
			<point x="533" y="360" type="line"/>
			<point x="533" y="408" type="line"/>
			<point x="6" y="408" type="line"/>
		</contour>
	</outline>
</glyph>
<glyph name="hryvnia" format="2">
	<unicode hex="20B4"/>
	<advance width="533"/>
	<outline>
		<contour>
			<point x="268" y="-15" type="curve" smooth="yes"/>
			<point x="390" y="-15"/>
			<point x="462" y="33"/>
			<point x="474" y="126" type="curve"/>
			<point x="467" y="155"/>
			<point x="443" y="172"/>
			<point x="418" y="172" type="curve" smooth="yes"/>
			<point x="384" y="172"/>
			<point x="360" y="153"/>
			<point x="350" y="98" type="curve" smooth="yes"/>
			<point x="334" y="18" type="line"/>
			<point x="384" y="45" type="line"/>
			<point x="356" y="35"/>
			<point x="332" y="30"/>
			<point x="301" y="30" type="curve" smooth="yes"/>
			<point x="248" y="30"/>
			<point x="209" y="65"/>
			<point x="209" y="129" type="curve" smooth="yes"/>
			<point x="209" y="186"/>
			<point x="241" y="219"/>
			<point x="288" y="255" type="curve"/>
			<point x="120" y="257" type="line"/>
			<point x="88" y="232"/>
			<point x="64" y="188"/>
			<point x="64" y="141" type="curve" smooth="yes"/>
			<point x="64" y="42"/>
			<point x="144" y="-15"/>
		</contour>
		<contour>
			<point x="266" y="380" type="curve"/>
			<point x="422" y="376" type="line"/>
			<point x="455" y="401"/>
			<point x="476" y="449"/>
			<point x="476" y="491" type="curve" smooth="yes"/>
			<point x="476" y="589"/>
			<point x="402" y="646"/>
			<point x="278" y="646" type="curve" smooth="yes"/>
			<point x="158" y="646"/>
			<point x="76" y="589"/>
			<point x="72" y="508" type="curve"/>
			<point x="81" y="478"/>
			<point x="101" y="463"/>
			<point x="131" y="463" type="curve" smooth="yes"/>
			<point x="166" y="463"/>
			<point x="196" y="483"/>
			<point x="203" y="543" type="curve" smooth="yes"/>
			<point x="214" y="617" type="line"/>
			<point x="166" y="587" type="line"/>
			<point x="197" y="598"/>
			<point x="221" y="600"/>
			<point x="250" y="600" type="curve" smooth="yes"/>
			<point x="302" y="600"/>
			<point x="336" y="564"/>
			<point x="336" y="499" type="curve" smooth="yes"/>
			<point x="336" y="456"/>
			<point x="311" y="423"/>
		</contour>
		<contour>
			<point x="27" y="231" type="line"/>
			<point x="506" y="231" type="line"/>
			<point x="506" y="279" type="line"/>
			<point x="27" y="279" type="line"/>
		</contour>
		<contour>
			<point x="27" y="353" type="line"/>
			<point x="506" y="353" type="line"/>
			<point x="506" y="401" type="line"/>
			<point x="27" y="401" type="line"/>
		</contour>
		<contour>
			<point x="113" y="258" type="line"/>
			<point x="289" y="255" type="line"/>
			<point x="426" y="371" type="line"/>
			<point x="253" y="374" type="line"/>
		</contour>
	</outline>
</glyph>
<glyph name="bitcoin" format="2">
	<unicode hex="20BF"/>
	<advance width="533"/>
	<outline>
		<contour>
			<point x="159" y="0" type="line"/>
			<point x="247" y="0" type="line" smooth="yes"/>
			<point x="440" y="0"/>
			<point x="511" y="79"/>
			<point x="511" y="177" type="curve" smooth="yes"/>
			<point x="511" y="264"/>
			<point x="446" y="328"/>
			<point x="285" y="337" type="curve"/>
			<point x="286" y="329" type="line"/>
			<point x="436" y="344"/>
			<point x="486" y="407"/>
			<point x="486" y="479" type="curve" smooth="yes"/>
			<point x="486" y="568"/>
			<point x="429" y="631"/>
			<point x="267" y="631" type="curve" smooth="yes"/>
			<point x="158" y="631" type="line"/>
			<point x="158" y="584" type="line"/>
			<point x="245" y="584" type="line" smooth="yes"/>
			<point x="309" y="584"/>
			<point x="345" y="546"/>
			<point x="345" y="473" type="curve" smooth="yes"/>
			<point x="345" y="398"/>
			<point x="313" y="351"/>
			<point x="243" y="351" type="curve" smooth="yes"/>
			<point x="158" y="351" type="line"/>
			<point x="158" y="306" type="line"/>
			<point x="243" y="306" type="line" smooth="yes"/>
			<point x="323" y="306"/>
			<point x="364" y="265"/>
			<point x="364" y="177" type="curve" smooth="yes"/>
			<point x="364" y="98"/>
			<point x="318" y="47"/>
			<point x="245" y="47" type="curve" smooth="yes"/>
			<point x="159" y="47" type="line"/>
		</contour>
		<contour>
			<point x="84" y="0" type="curve"/>
			<point x="234" y="0" type="line"/>
			<point x="231" y="94"/>
			<point x="231" y="198"/>
			<point x="231" y="308" type="curve" smooth="yes"/>
			<point x="231" y="339" type="line" smooth="yes"/>
			<point x="231" y="433"/>
			<point x="231" y="539"/>
			<point x="234" y="631" type="curve"/>
			<point x="84" y="631" type="line"/>
			<point x="88" y="537"/>
			<point x="88" y="432"/>
			<point x="88" y="332" type="curve" smooth="yes"/>
			<point x="88" y="300" type="line" smooth="yes"/>
			<point x="88" y="199"/>
			<point x="88" y="92"/>
		</contour>
		<contour>
			<point x="18" y="589" type="line"/>
			<point x="140" y="573" type="line"/>
			<point x="155" y="573" type="line"/>
			<point x="155" y="631" type="line"/>
			<point x="18" y="631" type="line"/>
		</contour>
		<contour>
			<point x="18" y="0" type="line"/>
			<point x="155" y="0" type="line"/>
			<point x="155" y="58" type="line"/>
			<point x="140" y="58" type="line"/>
			<point x="18" y="43" type="line"/>
		</contour>
		<contour>
			<point x="167" y="-115" type="line"/>
			<point x="219" y="-115" type="line"/>
			<point x="219" y="28" type="line"/>
			<point x="167" y="28" type="line"/>
		</contour>
		<contour>
			<point x="167" y="606" type="line"/>
			<point x="220" y="606" type="line"/>
			<point x="220" y="737" type="line"/>
			<point x="167" y="737" type="line"/>
		</contour>
		<contour>
			<point x="279" y="-115" type="line"/>
			<point x="331" y="-115" type="line"/>
			<point x="331" y="28" type="line"/>
			<point x="279" y="28" type="line"/>
		</contour>
		<contour>
			<point x="279" y="606" type="line"/>
			<point x="331" y="606" type="line"/>
			<point x="331" y="737" type="line"/>
			<point x="279" y="737" type="line"/>
		</contour>
	</outline>
</glyph>
<glyph name="litre" format="2">
	<unicode hex="2113"/>
	<advance width="545"/>
	<outline>
		<contour>
			<point x="329" y="-15" type="curve" smooth="yes"/>
			<point x="429" y="-15"/>
			<point x="483" y="28"/>
			<point x="531" y="84" type="curve"/>
			<point x="508" y="116" type="line"/>
			<point x="469" y="83"/>
			<point x="428" y="63"/>
			<point x="381" y="63" type="curve" smooth="yes"/>
			<point x="289" y="63"/>
			<point x="221" y="152"/>
			<point x="221" y="360" type="curve" smooth="yes"/>
			<point x="221" y="626"/>
			<point x="264" y="691"/>
			<point x="304" y="691" type="curve" smooth="yes"/>
			<point x="335" y="691"/>
			<point x="359" y="661"/>
			<point x="359" y="562" type="curve" smooth="yes"/>
			<point x="359" y="435"/>
			<point x="328" y="326"/>
			<point x="226" y="202" type="curve"/>
			<point x="213" y="190" type="line"/>
			<point x="52" y="52" type="line"/>
			<point x="75" y="20" type="line"/>
			<point x="314" y="203"/>
			<point x="479" y="359"/>
			<point x="479" y="552" type="curve" smooth="yes"/>
			<point x="479" y="664"/>
			<point x="417" y="738"/>
			<point x="312" y="738" type="curve" smooth="yes"/>
			<point x="178" y="738"/>
			<point x="65" y="611"/>
			<point x="65" y="360" type="curve" smooth="yes"/>
			<point x="65" y="101"/>
			<point x="187" y="-15"/>
		</contour>
	</outline>
</glyph>
<glyph name="summation" format="2">
	<unicode hex="2211"/>
	<advance width="563"/>
	<outline>
		<contour>
			<point x="29" y="-123" type="line"/>
			<point x="521" y="-123" type="line"/>
			<point x="531" y="125" type="line"/>
			<point x="467" y="125" type="line"/>
			<point x="418" y="-56" type="line"/>
			<point x="485" y="-13" type="line"/>
			<point x="130" y="-13" type="line"/>
			<point x="130" y="9" type="line"/>
			<point x="113" y="-48" type="line"/>
			<point x="229" y="134" type="line"/>
			<point x="345" y="316" type="line"/>
			<point x="168" y="644" type="line"/>
			<point x="183" y="588" type="line"/>
			<point x="183" y="609" type="line"/>
			<point x="324" y="609" type="line"/>
			<point x="464" y="609" type="line"/>
			<point x="400" y="654" type="line"/>
			<point x="449" y="469" type="line"/>
			<point x="512" y="469" type="line"/>
			<point x="502" y="657" type="line"/>
			<point x="32" y="657" type="line"/>
			<point x="32" y="614" type="line"/>
			<point x="243" y="236" type="line"/>
			<point x="253" y="302" type="line"/>
			<point x="29" y="-54" type="line"/>
		</contour>
	</outline>
</glyph>
<glyph name="radical" format="2">
	<unicode hex="221A"/>
	<advance width="573"/>
	<outline>
		<contour>
			<point x="119" y="332" type="line"/>
			<point x="260" y="-109" type="line"/>
			<point x="362" y="-109" type="line"/>
			<point x="586" y="775" type="line"/>
			<point x="473" y="775" type="line"/>
			<point x="314" y="-67" type="line"/>
			<point x="349" y="-48" type="line"/>
			<point x="234" y="365" type="line"/>
			<point x="34" y="365" type="line"/>
			<point x="34" y="294" type="line"/>
			<point x="159" y="294" type="line"/>
		</contour>
	</outline>
</glyph>
<glyph name="notequal" format="2">
	<unicode hex="2260"/>
	<advance width="534"/>
	<outline>
		<contour>
			<point x="138" y="38" type="line"/>
			<point x="440" y="582" type="line"/>
			<point x="397" y="607" type="line"/>
			<point x="94" y="63" type="line"/>
		</contour>
		<component base="equal"/>
	</outline>
</glyph>
<glyph name="trianglewhiteright" format="2">
	<unicode hex="25B7"/>
	<advance width="609"/>
	<outline>
		<contour>
			<point x="101" y="558" type="line"/>
			<point x="70" y="540" type="line"/>
			<point x="70" y="-8" type="line"/>
			<point x="101" y="-24" type="line"/>
			<point x="580" y="249" type="line"/>
			<point x="580" y="283" type="line"/>
		</contour>
		<contour>
			<point x="451" y="266" type="line"/>
			<point x="152" y="94" type="line"/>
			<point x="152" y="438" type="line"/>
		</contour>
	</outline>
</glyph>
<glyph name="triangleblackdown" format="2">
	<unicode hex="25BC"/>
	<advance width="609"/>
	<outline>
		<contour>
			<point x="597" y="494" type="line"/>
			<point x="580" y="524" type="line"/>
			<point x="29" y="524" type="line"/>
			<point x="12" y="494" type="line"/>
			<point x="286" y="18" type="line"/>
			<point x="322" y="18" type="line"/>
		</contour>
	</outline>
</glyph>
